<?xml version="1.0" encoding="UTF-8" standalone="no"?><!DOCTYPE svg PUBLIC "-//W3C//DTD SVG 1.1//EN" "http://www.w3.org/Graphics/SVG/1.1/DTD/svg11.dtd"><svg width="100%" height="100%" viewBox="0 0 4000 4000" version="1.1" xmlns="http://www.w3.org/2000/svg" xmlns:xlink="http://www.w3.org/1999/xlink" xml:space="preserve" xmlns:serif="http://www.serif.com/" style="fill-rule:evenodd;clip-rule:evenodd;stroke-linecap:round;stroke-linejoin:round;stroke-miterlimit:1.5;"><g><g><path d="M1119.12,3363.1l176.41,-2216.15c38.833,-76.328 83.934,-130.72 137.82,-154.359c427.243,254.667 1010.58,219.032 1142.69,3.264c61.839,26.704 105.633,78.671 129.838,158.063l174.999,2207.24c-432.491,415.036 -1443.12,361.227 -1761.76,1.941Z" style="fill:#737277;fill-opacity:0;"/><clipPath id="_clip1"><path d="M1119.12,3363.1l176.41,-2216.15c38.833,-76.328 83.934,-130.72 137.82,-154.359c427.243,254.667 1010.58,219.032 1142.69,3.264c61.839,26.704 105.633,78.671 129.838,158.063l174.999,2207.24c-432.491,415.036 -1443.12,361.227 -1761.76,1.941Z"/></clipPath><g clip-path="url(#_clip1)"><rect x="687.742" y="107.141" width="2481.5" height="3734.01" style="fill:#fff;"/></g><path d="M1119.12,3363.1l176.41,-2216.15c38.833,-76.328 83.934,-130.72 137.82,-154.359c427.243,254.667 1010.58,219.032 1142.69,3.264c61.839,26.704 105.633,78.671 129.838,158.063l174.999,2207.24c-432.491,415.036 -1443.12,361.227 -1761.76,1.941Z" style="fill:none;stroke:#737277;stroke-width:29.66px;"/><g><path d="M1312.37,1808.95c116.218,270.186 1180.63,243.747 1366.09,27.393l99.1,1413.33c-1.639,38.423 -12.851,72.742 -31.754,103.766c-332.33,248.969 -1012.75,284.864 -1454.37,54.362c-34.247,-28.243 -59.513,-72.708 -59.226,-113.284l80.161,-1485.57Z" style="fill:#c3c0c1;"/><path d="M1931.74,1608.6c566.013,0.577 780.01,115.395 746.853,234.692c-119.609,98.62 -364.493,162.28 -673.707,158.389c-296.492,19.377 -631.8,-55.261 -692.826,-192.734c26.579,-107.105 223.142,-176.483 619.68,-200.347Z" style="fill:#dad4d0;"/><clipPath id="_clip2"><path d="M1931.74,1608.6c566.013,0.577 780.01,115.395 746.853,234.692c-119.609,98.62 -364.493,162.28 -673.707,158.389c-296.492,19.377 -631.8,-55.261 -692.826,-192.734c26.579,-107.105 223.142,-176.483 619.68,-200.347Z"/></clipPath><g clip-path="url(#_clip2)"><path d="M2543.35,1649.5l-176.588,-529.749l-1210.86,403.632l176.587,529.748l1210.86,-403.631Z" style="fill:#cac1bc;"/></g></g><path d="M1411.74,1242.12c481.638,240.908 913.372,220.778 1297.16,-50.138" style="fill:none;stroke:#737277;stroke-width:29.66px;"/><path d="M1545.81,1302.1l-84.677,1947.57" style="fill:none;stroke:#737277;stroke-width:29.66px;"/><path d="M2455.06,1350.91l150.243,1943.61" style="fill:none;stroke:#737277;stroke-width:29.66px;"/></g><g><path d="M2562.93,574.653l11.29,417.94c-215.174,197.375 -557.79,242.239 -1140.31,0l-4.517,-415.682c24.914,-112.22 189.335,-191.593 532.899,-228.063c452.401,-16.387 570.227,89.583 600.64,225.805Z" style="fill:none;"/><clipPath id="_clip3"><path d="M2562.93,574.653l11.29,417.94c-215.174,197.375 -557.79,242.239 -1140.31,0l-4.517,-415.682c24.914,-112.22 189.335,-191.593 532.899,-228.063c452.401,-16.387 570.227,89.583 600.64,225.805Z"/></clipPath><g clip-path="url(#_clip3)"><rect x="1330.9" y="174.197" width="1385.8" height="1012.76" style="fill:#c9b494;"/></g><path d="M2562.93,574.653l11.29,417.94c-215.174,197.375 -557.79,242.239 -1140.31,0l-4.517,-415.682c24.914,-112.22 189.335,-191.593 532.899,-228.063c452.401,-16.387 570.227,89.583 600.64,225.805Z" style="fill:none;stroke:#737277;stroke-width:29.58px;"/><path d="M1429.39,598.955c299.479,228.029 884.004,220.276 1124.6,7.746" style="fill:none;stroke:#737277;stroke-width:29.58px;"/></g><g><ellipse cx="1727.85" cy="634.43" rx="41.935" ry="22.141" style="fill:#696a6e;"/><ellipse cx="2001.81" cy="634.43" rx="41.935" ry="22.141" style="fill:#696a6e;"/><ellipse cx="2280.01" cy="634.43" rx="41.935" ry="22.141" style="fill:#696a6e;"/><ellipse cx="2416.16" cy="541.694" rx="41.935" ry="22.141" style="fill:#696a6e;"/><ellipse cx="2280.01" cy="471.649" rx="41.935" ry="22.141" style="fill:#696a6e;"/><ellipse cx="2141.9" cy="541.694" rx="41.935" ry="22.141" style="fill:#696a6e;"/><ellipse cx="2001.81" cy="471.649" rx="41.935" ry="22.141" style="fill:#696a6e;"/><ellipse cx="1860.59" cy="541.694" rx="41.935" ry="22.141" style="fill:#696a6e;"/><ellipse cx="1729.38" cy="471.649" rx="41.935" ry="22.141" style="fill:#696a6e;"/><ellipse cx="1587.32" cy="541.694" rx="41.935" ry="22.141" style="fill:#696a6e;"/></g></g></svg>