<?xml version="1.0" encoding="UTF-8" standalone="no"?><!DOCTYPE svg PUBLIC "-//W3C//DTD SVG 1.1//EN" "http://www.w3.org/Graphics/SVG/1.1/DTD/svg11.dtd"><svg width="100%" height="100%" viewBox="0 0 4000 4000" version="1.1" xmlns="http://www.w3.org/2000/svg" xmlns:xlink="http://www.w3.org/1999/xlink" xml:space="preserve" xmlns:serif="http://www.serif.com/" style="fill-rule:evenodd;clip-rule:evenodd;stroke-linejoin:round;stroke-miterlimit:2;"><path d="M4000,923.844c-0,-509.884 -413.96,-923.844 -923.844,-923.844l-2152.31,0c-509.884,0 -923.844,413.96 -923.844,923.844l0,2152.31c0,509.884 413.96,923.844 923.844,923.844l2152.31,-0c509.884,-0 923.844,-413.96 923.844,-923.844l-0,-2152.31Z" style="fill:#232126;"/><path d="M2276.63,2553.26l-1106.51,0l0,-276.628l1106.51,-0l-0,276.628Zm553.256,-553.256l-1659.77,-0l0,-276.629l1659.77,0l0,276.629Zm0,-553.257l-1659.77,0l0,-276.628l1659.77,-0l0,276.628Zm245.892,-829.885l-2151.55,0c-170.587,0 -307.365,136.778 -307.365,307.365l0,2151.55c0,169.753 137.612,307.365 307.365,307.365l2151.55,-0c169.753,-0 307.365,-137.612 307.365,-307.365l-0,-2151.55c-0,-170.587 -138.314,-307.365 -307.365,-307.365Z" style="fill:#b9bbbe;fill-rule:nonzero;"/></svg>