<?xml version="1.0" encoding="UTF-8" standalone="no"?><!DOCTYPE svg PUBLIC "-//W3C//DTD SVG 1.1//EN" "http://www.w3.org/Graphics/SVG/1.1/DTD/svg11.dtd"><svg width="100%" height="100%" viewBox="0 0 4000 4000" version="1.1" xmlns="http://www.w3.org/2000/svg" xmlns:xlink="http://www.w3.org/1999/xlink" xml:space="preserve" xmlns:serif="http://www.serif.com/" style="fill-rule:evenodd;clip-rule:evenodd;stroke-linejoin:round;stroke-miterlimit:2;"><path d="M4000,923.844c-0,-509.884 -413.96,-923.844 -923.844,-923.844l-2152.31,0c-509.884,0 -923.844,413.96 -923.844,923.844l0,2152.31c0,509.884 413.96,923.844 923.844,923.844l2152.31,-0c509.884,-0 923.844,-413.96 923.844,-923.844l-0,-2152.31Z" style="fill:#232126;"/><g><rect x="616.86" y="1455.48" width="276.628" height="1024.12" style="fill:#72767d;fill-rule:nonzero;"/><path d="M3106.51,835.249l-0,164.024l-2074.71,456.856l0,1434.55c0,62.897 43.154,117.582 104.843,133.059l553.256,137.032c11.065,2.607 22.407,3.975 33.472,3.975c43.016,0 84.095,-19.873 110.651,-54.816l341.636,-451.239l930.854,204.734l-0,164.288l276.628,0l-0,-2192.47l-276.628,-0Zm-1438.74,2037.5l-359.34,-89.074l-0,-316.128l570.815,125.793l-211.475,279.409Z" style="fill:#72767d;fill-rule:nonzero;"/></g></svg>