<?xml version="1.0" encoding="UTF-8" standalone="no"?><!DOCTYPE svg PUBLIC "-//W3C//DTD SVG 1.1//EN" "http://www.w3.org/Graphics/SVG/1.1/DTD/svg11.dtd"><svg width="100%" height="100%" viewBox="0 0 4000 4000" version="1.1" xmlns="http://www.w3.org/2000/svg" xmlns:xlink="http://www.w3.org/1999/xlink" xml:space="preserve" xmlns:serif="http://www.serif.com/" style="fill-rule:evenodd;clip-rule:evenodd;stroke-linejoin:round;stroke-miterlimit:2;"><path d="M4000,923.844c-0,-509.884 -413.96,-923.844 -923.844,-923.844l-2152.31,0c-509.884,0 -923.844,413.96 -923.844,923.844l0,2152.31c0,509.884 413.96,923.844 923.844,923.844l2152.31,-0c509.884,-0 923.844,-413.96 923.844,-923.844l-0,-2152.31Z" style="fill:#232126;"/><path d="M2800.53,1572.79c-350.01,-161.862 -853.582,-264.698 -1327.18,-226.423c23.519,-156.79 82.545,-266.082 178.464,-289.139c132.347,-31.819 276.686,55.338 414.107,213.511c89.924,11.529 196.91,32.28 271.616,49.343c-250.864,-471.753 -587.499,-735.99 -843.435,-638.227c-194.604,74.244 -294.212,342.171 -282.222,702.326c-253.631,53.954 -451.464,149.873 -578.279,287.756c-6.456,7.378 -20.751,26.285 -15.679,35.047c4.15,6.917 16.601,-0.922 22.596,-4.612c146.645,-102.835 334.794,-158.173 579.663,-193.22c35.047,384.134 197.37,871.566 467.602,1262.62c-147.567,58.105 -271.615,61.794 -339.404,-10.145c-93.612,-98.685 -90.384,-267.465 -22.135,-465.758c-35.047,-83.929 -70.555,-186.764 -92.69,-259.626c-284.066,453.308 -344.939,877.101 -132.349,1050.03c161.862,131.427 443.623,83.929 749.361,-106.524c173.391,192.759 355.544,315.885 538.158,356.466c9.684,1.845 33.203,5.073 38.275,-3.689c4.151,-6.917 -9.223,-14.296 -15.218,-17.063c-162.323,-75.628 -304.356,-210.744 -456.996,-405.348c315.424,-222.272 656.212,-606.869 859.577,-1036.2c124.049,99.146 189.071,204.288 160.941,299.284c-38.737,130.505 -186.304,212.127 -392.436,251.786c-55.338,72.4 -126.354,154.484 -178.464,210.283c534.008,18.446 931.516,-140.65 974.864,-410.882c33.203,-205.671 -149.411,-426.098 -467.141,-595.8c80.239,-246.714 95.918,-465.758 39.658,-644.222c-3.228,-9.223 -11.99,-31.358 -22.596,-31.358c-7.839,-0 -7.839,15.218 -7.378,21.674c16.601,178.003 -29.053,368.917 -121.282,598.107Zm-983.626,1137.65c-225.959,-362.461 -356.003,-789.483 -355.542,-1221.12c427.02,-14.296 861.881,86.234 1235.41,302.973c-201.06,376.756 -505.417,703.248 -879.868,918.142Z" style="fill:#b9bbbe;fill-rule:nonzero;"/></svg>