<?xml version="1.0" encoding="UTF-8" standalone="no"?><!DOCTYPE svg PUBLIC "-//W3C//DTD SVG 1.1//EN" "http://www.w3.org/Graphics/SVG/1.1/DTD/svg11.dtd"><svg width="100%" height="100%" viewBox="0 0 4000 4000" version="1.1" xmlns="http://www.w3.org/2000/svg" xmlns:xlink="http://www.w3.org/1999/xlink" xml:space="preserve" xmlns:serif="http://www.serif.com/" style="fill-rule:evenodd;clip-rule:evenodd;stroke-linejoin:round;stroke-miterlimit:2;"><path d="M4000,923.844c-0,-509.884 -413.96,-923.844 -923.844,-923.844l-2152.31,0c-509.884,0 -923.844,413.96 -923.844,923.844l0,2152.31c0,509.884 413.96,923.844 923.844,923.844l2152.31,-0c509.884,-0 923.844,-413.96 923.844,-923.844l-0,-2152.31Z" style="fill:#232126;"/><path d="M2969.41,1167.62c-476.397,0 -855.025,-493.708 -858.759,-498.832c-52.349,-69.243 -168.955,-69.243 -221.303,0c-3.74,5.124 -382.364,498.832 -858.76,498.832c-76.583,0 -138.487,62.043 -138.487,138.488l-0,969.411c-0,527.222 936.727,1035.61 1043.37,1091.83c20.219,10.664 42.377,15.788 64.535,15.788c22.158,-0 44.316,-5.263 64.535,-15.788c106.636,-56.226 1043.37,-564.613 1043.37,-1091.83l0,-969.411c0,-76.445 -61.904,-138.488 -138.487,-138.488l-0.01,0Zm-553.95,1384.87l-415.463,-276.975l-415.462,276.975l138.487,-415.462l-276.975,-276.975l415.463,-0l138.487,-415.462l138.487,415.462l415.464,-0l-276.976,276.975l138.488,415.462Z" style="fill:#5165f6;fill-rule:nonzero;"/></svg>