<?xml version="1.0" encoding="UTF-8" standalone="no"?><!DOCTYPE svg PUBLIC "-//W3C//DTD SVG 1.1//EN" "http://www.w3.org/Graphics/SVG/1.1/DTD/svg11.dtd"><svg width="100%" height="100%" viewBox="0 0 4000 4000" version="1.1" xmlns="http://www.w3.org/2000/svg" xmlns:xlink="http://www.w3.org/1999/xlink" xml:space="preserve" xmlns:serif="http://www.serif.com/" style="fill-rule:evenodd;clip-rule:evenodd;stroke-linejoin:round;stroke-miterlimit:2;"><path d="M4000,923.844c-0,-509.884 -413.96,-923.844 -923.844,-923.844l-2152.31,0c-509.884,0 -923.844,413.96 -923.844,923.844l0,2152.31c0,509.884 413.96,923.844 923.844,923.844l2152.31,-0c509.884,-0 923.844,-413.96 923.844,-923.844l-0,-2152.31Z" style="fill:#232126;"/><path d="M3005.92,1119.82l377.22,0l-0,251.48l-377.22,-0l0,377.219l-251.479,0l-0,-377.219l-377.219,-0l-0,-251.48l377.219,0l-0,-377.219l251.479,-0l0,377.219Zm-1383.14,1131.66c277.256,-0 502.959,-225.703 502.959,-502.959c-0,-277.256 -225.703,-502.959 -502.959,-502.959c-277.257,0 -502.959,225.703 -502.959,502.959c-0,277.256 225.702,502.959 502.959,502.959Zm-0,125.74c-592.36,0 -1005.92,310.2 -1005.92,754.44l0,125.739l2011.84,0l0,-125.739c0,-444.239 -413.558,-754.44 -1005.92,-754.44l0.007,0Z" style="fill:#5865f2;"/></svg>