<?xml version="1.0" encoding="UTF-8" standalone="no"?><!DOCTYPE svg PUBLIC "-//W3C//DTD SVG 1.1//EN" "http://www.w3.org/Graphics/SVG/1.1/DTD/svg11.dtd"><svg width="100%" height="100%" viewBox="0 0 4000 4000" version="1.1" xmlns="http://www.w3.org/2000/svg" xmlns:xlink="http://www.w3.org/1999/xlink" xml:space="preserve" xmlns:serif="http://www.serif.com/" style="fill-rule:evenodd;clip-rule:evenodd;stroke-linejoin:round;stroke-miterlimit:2;"><path d="M4000,923.844c-0,-509.884 -413.96,-923.844 -923.844,-923.844l-2152.31,0c-509.884,0 -923.844,413.96 -923.844,923.844l0,2152.31c0,509.884 413.96,923.844 923.844,923.844l2152.31,-0c509.884,-0 923.844,-413.96 923.844,-923.844l-0,-2152.31Z" style="fill:#232126;"/><g><path d="M2108.27,2770.59c387.588,-0 701.531,-313.927 701.531,-701.532c0,-387.569 -313.943,-701.517 -701.531,-701.517c-387.588,-0 -701.531,313.927 -701.531,701.517c-0,387.606 313.943,701.532 701.531,701.532Z" style="fill:#0071e1;fill-opacity:0.4;fill-rule:nonzero;"/><path d="M2708.07,1759.53l567.362,-99.966l-175.379,231.492c-34.203,45.605 -84.186,75.412 -140.299,85.938l-398.989,70.158l-11.401,-62.26l158.706,-225.362Z" style="fill:#d8e3ee;fill-rule:nonzero;"/><path d="M2534.44,1701.64l839.202,-148.198c7.023,-0.876 12.277,7.005 7.899,12.259l-53.503,72.803c-6.13,7.881 -14.904,14.01 -25.43,15.779l-27.18,4.379l-567.362,99.966l-156.954,224.503l11.401,62.26l7.88,46.463l-177.129,253.418l-99.091,-204.311l-19.3,-108.74l209.583,-299.022c10.525,-15.763 28.949,-27.181 49.982,-31.559l0.002,-0Z" style="fill:#ebeff7;fill-rule:nonzero;"/><path d="M2550.24,1984.01l157.83,-224.486l567.362,-99.966l-35.079,46.463l-510.356,90.334l-145.554,207.813l6.13,37.706l-28.932,5.254l-11.401,-63.118Z" style="fill:#c3cfdf;fill-rule:nonzero;"/><path d="M3267.53,1643.76c14.922,-0 26.323,-11.383 26.323,-26.305c0,-14.904 -11.401,-26.305 -26.323,-26.305c-14.903,-0 -26.304,11.384 -26.304,26.305c-0,14.904 11.401,26.305 26.304,26.305Zm-666.434,187.655c14.904,0 26.305,-11.383 26.305,-26.304c0,-14.904 -11.401,-26.306 -26.305,-26.306c-14.904,0 -26.305,11.402 -26.305,26.306c0,14.903 11.401,26.304 26.305,26.304Zm-49.983,71.035c14.903,-0 26.305,-11.384 26.305,-26.306c-0,-14.903 -11.402,-26.304 -26.305,-26.304c-14.904,-0 -26.305,11.383 -26.305,26.304c-0,14.904 11.401,26.306 26.305,26.306Zm-1041.76,-142.927l-567.362,-99.983l175.378,231.491c34.204,45.604 84.188,75.413 140.3,85.938l399.006,70.158l11.384,-62.26l-158.706,-225.361l-0,0.017Z" style="fill:#d8e3ee;fill-rule:nonzero;"/><path d="M1682.98,1701.64l-839.203,-147.323c-7.005,-0.875 -12.277,7.006 -7.881,12.26l53.486,72.802c6.129,7.882 14.886,14.011 25.429,15.763l27.181,4.395l567.361,99.966l156.955,224.486l-11.383,62.261l-7.899,46.479l177.13,253.419l99.09,-204.293l19.3,-108.74l-209.582,-299.023c-10.525,-16.656 -28.95,-28.057 -49.983,-32.435l-0,-0.017l-0.001,-0Z" style="fill:#ebeff7;fill-rule:nonzero;"/><path d="M1666.31,1984.01l-156.955,-224.486l-567.361,-99.966l35.078,46.463l509.463,90.334l146.464,207.813l-7.005,37.706l29.808,5.254l10.508,-63.118Z" style="fill:#c3cfdf;fill-rule:nonzero;"/><path d="M949.888,1643.76c14.886,-0 26.304,-11.383 26.304,-26.305c0,-14.904 -11.401,-26.305 -26.304,-26.305c-14.922,-0 -26.306,11.384 -26.306,26.305c0,14.904 11.384,26.305 26.306,26.305Zm666.434,187.655c14.905,0 26.306,-11.383 26.306,-26.304c-0,-14.904 -11.384,-26.306 -26.306,-26.306c-14.904,0 -26.305,11.402 -26.305,26.306c0,14.903 11.401,26.304 26.305,26.304Zm49.983,71.035c14.922,-0 26.306,-11.384 26.306,-26.306c-0,-14.903 -11.384,-26.304 -26.306,-26.304c-14.886,-0 -26.304,11.383 -26.304,26.304c-0,14.904 11.401,26.306 26.304,26.306Z" style="fill:#d8e3ee;fill-rule:nonzero;"/><path d="M1342.73,1304.4l-21.927,46.463c-5.254,10.526 6.129,21.927 16.672,16.672l46.463,-21.926c3.503,-1.752 7.899,-1.752 11.402,0l46.48,21.926c10.525,5.255 21.927,-6.129 16.673,-16.672l-21.927,-46.463c-1.751,-3.502 -1.751,-7.898 -0,-11.401l21.051,-45.605c5.254,-10.508 -6.147,-21.926 -16.673,-16.655l-46.48,21.909c-3.503,1.752 -7.881,1.752 -11.384,-0l-46.48,-21.909c-10.525,-5.254 -21.927,6.13 -16.673,16.655l21.926,46.481c2.628,3.502 2.628,7.005 0.877,10.507l-0,0.018Z" style="fill:#a4c8ff;fill-rule:nonzero;"/><path d="M2932.57,2452.26l-21.926,46.48c-5.272,10.526 6.129,21.927 16.655,16.673l46.48,-21.927c3.503,-1.751 7.898,-1.751 11.401,0l46.481,21.927c10.508,5.254 21.909,-6.147 16.655,-16.673l-21.927,-46.48c-1.751,-3.503 -1.751,-7.881 0,-11.384l21.927,-46.48c5.254,-10.526 -6.147,-21.927 -16.655,-16.673l-46.481,21.927c-3.503,1.751 -7.898,1.751 -11.401,-0l-46.48,-21.927c-10.526,-5.254 -21.927,6.13 -16.655,16.673l21.926,46.48c1.752,3.503 1.752,7.881 0,11.384Z" style="fill:#5d97ff;fill-rule:nonzero;"/><path d="M3200.02,2139.23c-9.65,0 -17.53,-7.915 -17.53,-17.548l-0,-17.548c-0,-9.633 7.88,-17.531 17.53,-17.531c9.65,-0 17.548,7.881 17.548,17.531l0,17.548c0,9.633 -7.898,17.531 -17.548,17.531l0,0.017Zm0,140.282c-9.65,0 -17.53,-7.881 -17.53,-17.53l-0,-17.549c-0,-9.632 7.88,-17.513 17.53,-17.513c9.65,-0 17.548,7.881 17.548,17.513l0,17.549c0,9.632 -7.898,17.53 -17.548,17.53Zm43.854,-96.446c-0,-9.649 7.881,-17.548 17.53,-17.548l17.531,0c9.65,0 17.549,7.881 17.549,17.548c-0,9.633 -7.899,17.531 -17.549,17.531l-17.531,-0c-9.649,-0 -17.53,-7.88 -17.53,-17.531Zm-140.317,0c-0,-9.649 7.898,-17.548 17.548,-17.548l17.531,0c9.65,0 17.531,7.881 17.531,17.548c-0,9.633 -7.881,17.531 -17.531,17.531l-17.531,-0c-9.65,-0 -17.548,-7.88 -17.548,-17.531Z" style="fill:#a4c8ff;fill-rule:nonzero;"/><path d="M713.3,1771.35c-9.632,0 -17.513,-7.881 -17.513,-17.548l-0,-17.531c-0,-9.632 7.881,-17.548 17.513,-17.548c9.668,-0 17.548,7.898 17.548,17.548l0,17.531c0,9.65 -7.88,17.548 -17.531,17.548l-0.017,0Zm0,140.3c-9.632,-0 -17.513,-7.882 -17.513,-17.531l-0,-17.531c-0,-9.65 7.881,-17.548 17.513,-17.548c9.668,-0 17.548,7.881 17.548,17.548l0,17.531c0,9.632 -7.88,17.531 -17.531,17.531l-0.017,-0Zm43.853,-96.446c0,-9.65 7.882,-17.548 17.549,-17.548l17.531,-0c9.632,-0 17.548,7.88 17.548,17.548c-0,9.632 -7.899,17.53 -17.548,17.53l-17.531,0c-9.65,0 -17.549,-7.88 -17.549,-17.53Zm-140.299,-0c0,-9.65 7.881,-17.548 17.531,-17.548l17.548,-0c9.633,-0 17.531,7.88 17.531,17.548c0,9.632 -7.881,17.53 -17.531,17.53l-17.548,0c-9.633,0 -17.531,-7.88 -17.531,-17.53Z" style="fill:#0071e1;fill-rule:nonzero;"/><path d="M2106.52,1450.85l-361.3,361.282l-0,508.587l361.3,361.301l361.283,-361.301l-0,-508.587l-361.301,-361.3l0.018,0.018Zm181.526,793.6l-181.526,181.508l-180.65,-180.632l-0,-359.549l180.65,-179.757l180.633,180.667l0.875,357.78l0.018,-0.017Z" style="fill:#ff6efa;fill-rule:nonzero;"/><path d="M2106.52,1450.85l0,255.169l180.633,180.667l180.65,-75.411l-361.301,-360.425l0.018,-0Z" style="fill:#ffaffe;fill-rule:nonzero;"/><path d="M1925.87,2245.31l-180.633,74.537l361.283,361.3l0,-255.187l-180.65,-180.65Z" style="fill:#ff54d9;fill-rule:nonzero;"/><path d="M1925.87,1886.67l-0,358.638l180.65,180.65l180.633,-180.65l-0,-358.621l-180.633,-180.667l-180.65,180.65Z" style="fill:#ffd0fb;fill-rule:nonzero;"/><path d="M2287.15,1886.67l0,0.875l-360.407,358.656l-0.876,0l0,-97.339l312.175,-311.299l49.108,49.107Zm0,135.921l0,99.09l-242.034,242.034l-49.966,-50l292,-291.124Z" style="fill:#fff;fill-rule:nonzero;"/></g></svg>