<?xml version="1.0" encoding="UTF-8" standalone="no"?><!DOCTYPE svg PUBLIC "-//W3C//DTD SVG 1.1//EN" "http://www.w3.org/Graphics/SVG/1.1/DTD/svg11.dtd"><svg width="100%" height="100%" viewBox="0 0 4000 4000" version="1.1" xmlns="http://www.w3.org/2000/svg" xmlns:xlink="http://www.w3.org/1999/xlink" xml:space="preserve" xmlns:serif="http://www.serif.com/" style="fill-rule:evenodd;clip-rule:evenodd;stroke-linejoin:round;stroke-miterlimit:2;"><path d="M4000,923.844c-0,-509.884 -413.96,-923.844 -923.844,-923.844l-2152.31,0c-509.884,0 -923.844,413.96 -923.844,923.844l0,2152.31c0,509.884 413.96,923.844 923.844,923.844l2152.31,-0c509.884,-0 923.844,-413.96 923.844,-923.844l-0,-2152.31Z" style="fill:#232126;"/><g><path d="M2000.84,1126.16l-418.559,418.56l-0,589.041l418.559,416.899l418.56,-418.559l-0,-587.381l-418.56,-418.56Zm209.28,919.843l-209.28,209.279l-209.279,-209.279l-0,-415.18l209.279,-209.309l209.28,209.309l0,415.18Z" style="fill:#ff6efa;fill-rule:nonzero;"/><path d="M2000.84,1126.16l0,295.351l209.28,209.309l209.28,-86.1l-418.53,-418.56l-0.03,0Z" style="fill:#ffaffe;fill-rule:nonzero;"/><path d="M1791.57,2046l-209.28,87.76l418.56,416.9l-0,-295.351l-209.28,-209.309Z" style="fill:#ff54d9;fill-rule:nonzero;"/><path d="M1791.57,1630.82l0,415.181l209.28,209.279l209.28,-209.279l-0,-415.181l-209.28,-209.309l-209.28,209.309Z" style="fill:#ffd0fb;fill-rule:nonzero;"/><path d="M2210.13,1630.79l-0,1.689l-416.87,415.21l-1.689,0l-0,-113.101l361.178,-361.179l57.381,57.381Zm-0,156.967l-0,114.761l-280.176,281.865l-57.381,-59.07l337.586,-337.556l-0.029,0Z" style="fill:#fff;fill-rule:nonzero;"/><path d="M1656.56,1402.96l-67.516,32.069c-8.447,5.068 -20.273,0 -25.342,-8.447c-1.691,-5.504 -1.691,-11.39 0,-16.894l32.099,-67.488c3.378,-5.112 3.378,-11.781 -0,-16.894l-32.07,-67.487c-5.067,-10.137 0,-20.273 8.448,-25.341c4.908,-1.678 10.237,-1.678 15.146,-0l67.546,32.098c5.112,3.378 11.781,3.378 16.894,0l67.488,-32.069c10.136,-5.068 20.243,-0 25.312,8.446c1.679,4.908 1.679,10.239 -0,15.147l-32.041,67.546c-3.378,5.113 -3.378,11.781 0,16.894l32.041,67.488c5.067,8.447 -0,20.243 -8.447,25.341c-5.504,1.689 -11.39,1.689 -16.895,-0l-67.487,-32.099c-3.379,-1.689 -10.136,-1.689 -15.176,1.69Z" style="fill:#ffd0fb;fill-rule:nonzero;"/><path d="M2738.4,1760.76c52.313,-21.933 111.383,3.379 131.656,54.031l170.453,413.491l-187.347,77.625l-170.482,-411.802c-21.933,-52.313 3.379,-111.383 55.691,-133.345l0.029,0Zm150.21,-379.733c52.312,-21.962 111.383,3.35 131.655,54.003l187.347,450.599l-187.347,77.653l-185.657,-448.939c-21.962,-52.313 3.379,-111.383 54.002,-133.345l-0,0.029Z" style="fill:#a4c8ff;fill-rule:nonzero;"/><path d="M2762.03,1553.17c52.313,-21.962 111.383,3.378 131.656,54.002l172.142,413.52l-187.347,77.624l-170.453,-411.831c-21.962,-52.312 3.379,-111.383 54.002,-133.315Z" style="fill:#a4c8ff;fill-rule:nonzero;"/><path d="M2973,2059.52l-94.518,38.797l-140.102,-337.555c-8.418,3.378 -16.865,8.446 -23.593,13.514l138.384,334.178c5.068,10.136 13.514,16.893 25.34,16.893c3.35,0 6.729,0 10.108,-1.718l94.518,-38.797l-10.137,-25.341l0,0.029Zm67.518,-102.965l-18.583,8.447l-168.764,-406.763c-10.137,-6.758 -21.933,-10.137 -35.448,-13.515l178.899,430.385c5.069,10.136 13.516,16.894 25.342,16.894c3.349,0 6.728,0 10.107,-1.689l18.583,-8.447l-10.136,-25.341l-0,0.029Z" style="fill:#5d97ff;fill-rule:nonzero;"/><g><path d="M3129.96,2505.08l-626.179,-0l0,192.414l626.179,0l-0,-192.443l-0,0.029Zm64.138,-646.423c38.798,38.827 38.798,102.965 0,143.482l-290.312,290.282l-143.451,-143.452l290.283,-290.312c40.515,-38.798 104.653,-38.798 143.48,0Z" style="fill:#eaf0f8;fill-rule:nonzero;"/><path d="M3281.87,1423.2c55.498,0.159 101.117,45.778 101.276,101.276l-0,371.314l-202.551,0l-0,-371.314c-0.002,-0.264 -0.004,-0.527 -0.004,-0.79c0,-55.127 45.363,-100.489 100.489,-100.489c0.264,-0 0.527,0.001 0.79,0.003Zm-778.078,1272.63l0,-190.784c0,-180.589 109.723,-344.285 276.797,-413.491l195.794,-81.032l153.588,373.062l0,312.245l-626.179,-0Z" style="fill:#eaf0f8;fill-rule:nonzero;"/><path d="M3320.69,2182.7l-111.383,189.036c-50.652,87.76 -77.653,185.657 -77.653,286.904l-0,37.166l-626.15,0l675.113,-678.491l-0,-281.865l202.522,-0l-0,216.037c-1.69,81.003 -21.933,160.346 -62.449,231.213Z" style="fill:#eaf0f8;fill-rule:nonzero;"/></g><path d="M3212.69,1841.79c-50.652,-50.652 -129.966,-50.652 -180.589,0l18.554,18.555c19.006,-19.034 44.827,-29.741 71.725,-29.741c26.899,0 52.721,10.707 71.726,29.741c19.034,19.005 29.741,44.827 29.741,71.726c-0,26.898 -10.707,52.719 -29.741,71.725l-170.452,170.482c-2.114,2.312 -3.316,5.316 -3.379,8.447l-0,146.802c-0,6.787 5.068,13.515 11.826,13.515c6.728,0 13.485,-5.068 13.485,-11.797l0,-141.791l165.415,-165.385c52.312,-52.342 52.312,-133.344 1.689,-182.279Zm-708.901,735.844l0,50.652l524.904,67.488l101.275,0l0,-37.108l-626.179,-81.032Z" style="fill:#a4c8ff;fill-rule:nonzero;"/><path d="M2503.79,2606.36l627.869,80.974c50.623,6.786 87.761,54.031 80.973,104.655c-6.699,50.652 -53.972,87.789 -104.625,81.031l-627.839,-81.06c-50.623,-6.729 -87.761,-54.003 -81.003,-104.626c5.039,-50.624 52.313,-87.761 104.625,-81.003l0,0.029Z" style="fill:#eaf0f8;fill-rule:nonzero;"/><path d="M1146.83,2305.91l-187.346,-77.625l170.453,-411.83c21.962,-52.313 81.032,-75.935 131.655,-54.003c52.313,21.933 75.935,81.033 54.002,131.656l-168.764,411.802Zm-165.413,-340.906l-187.347,-77.625l187.347,-450.658c21.932,-52.312 81.003,-75.934 131.655,-54.001c52.313,21.933 75.935,81.002 54.002,131.655l-185.657,450.629Z" style="fill:#a4c8ff;fill-rule:nonzero;"/><path d="M1123.21,2098.31l-187.347,-77.624l170.482,-413.52c21.932,-52.313 81.003,-75.935 131.655,-54.002c52.313,21.932 75.935,81.003 54.002,131.655l-168.792,413.491Z" style="fill:#a4c8ff;fill-rule:nonzero;"/><path d="M1286.91,1774.25c-7.271,-5.477 -15.209,-10.009 -23.622,-13.486l-140.103,337.585l-94.489,-38.826l-10.136,25.311l94.518,38.827c3.378,1.66 6.757,1.66 10.137,1.66c11.796,-0 20.242,-6.728 25.311,-16.865l138.384,-334.177l-0,-0.029Zm-138.384,-214.319l-168.793,406.734l-18.554,-8.447l-10.136,25.341l18.583,8.447c3.379,1.659 6.757,1.659 10.107,1.659c11.826,0 20.273,-6.757 25.341,-16.893l177.21,-428.667c-11.825,0 -23.622,5.069 -33.787,11.797l0.029,0.029Z" style="fill:#5d97ff;fill-rule:nonzero;"/><path d="M1497.87,2503.39l-626.15,0l0,192.415l626.15,0l-0,-192.415Zm-258.214,-354.421l-143.452,143.452l-288.622,-288.623c-38.827,-38.797 -38.827,-102.935 0,-143.451c38.826,-38.827 102.965,-38.827 143.452,-0l288.622,288.622Z" style="fill:#eaf0f8;fill-rule:nonzero;"/><path d="M822.791,1895.8l-204.269,0l-0,-371.315c0.159,-55.497 45.777,-101.116 101.275,-101.275c55.487,0.175 101.088,45.789 101.247,101.275l1.689,371.315l0.058,0Zm675.084,800.042l-0,-190.783c-0,-180.589 -109.694,-344.285 -276.797,-413.491l-195.765,-81.032l-153.588,373.062l0,312.244l626.15,0Z" style="fill:#eaf0f8;fill-rule:nonzero;"/><path d="M680.999,2182.7l111.383,189.036c50.653,87.76 77.654,185.657 77.654,286.904l-0,37.166l626.15,0l-675.113,-678.491l-0,-281.865l-204.212,-0l0,216.037c1.719,81.215 23.773,160.718 64.138,231.213Z" style="fill:#eaf0f8;fill-rule:nonzero;"/><path d="M789.003,1841.79c48.934,-50.652 129.967,-50.652 180.59,0l-18.554,18.555c-19.006,-19.034 -44.828,-29.741 -71.726,-29.741c-26.898,0 -52.72,10.707 -71.726,29.741c-19.034,19.005 -29.74,44.827 -29.74,71.726c-0,26.898 10.706,52.719 29.74,71.725l170.453,170.482c2.114,2.312 3.315,5.316 3.379,8.447l-0,146.802c-0,6.787 -5.069,13.515 -11.797,13.515c-6.757,0 -13.515,-5.068 -13.515,-11.797l0,-141.791l-165.414,-165.385c-52.313,-52.342 -52.313,-133.344 -1.69,-182.279Zm708.873,735.844l-0,50.652l-524.874,67.488l-101.275,0l-0,-37.108l626.149,-81.032Z" style="fill:#a4c8ff;fill-rule:nonzero;"/><path d="M1523.18,2791.99l-627.869,81.061c-50.623,6.758 -97.867,-30.38 -104.625,-81.032c-6.757,-50.623 30.38,-97.868 81.004,-104.625l627.867,-81.003c50.624,-6.757 97.868,30.38 104.626,80.974c6.757,52.342 -30.38,99.615 -81.003,104.654l-0,-0.029Z" style="fill:#eaf0f8;fill-rule:nonzero;"/></g></svg>