<?xml version="1.0" encoding="UTF-8" standalone="no"?><!DOCTYPE svg PUBLIC "-//W3C//DTD SVG 1.1//EN" "http://www.w3.org/Graphics/SVG/1.1/DTD/svg11.dtd"><svg width="100%" height="100%" viewBox="0 0 4000 4000" version="1.1" xmlns="http://www.w3.org/2000/svg" xmlns:xlink="http://www.w3.org/1999/xlink" xml:space="preserve" xmlns:serif="http://www.serif.com/" style="fill-rule:evenodd;clip-rule:evenodd;stroke-linejoin:round;stroke-miterlimit:2;"><path d="M4000,923.844c-0,-509.884 -413.96,-923.844 -923.844,-923.844l-2152.31,0c-509.884,0 -923.844,413.96 -923.844,923.844l0,2152.31c0,509.884 413.96,923.844 923.844,923.844l2152.31,-0c509.884,-0 923.844,-413.96 923.844,-923.844l-0,-2152.31Z" style="fill:#232126;"/><path d="M3106.51,1239.27l-1106.51,0l-200.141,-261.967c-46.888,-93.777 -142.74,-152.976 -247.444,-152.976l-797.243,0c-76.487,0 -138.314,61.827 -138.314,138.315l0,1936.4c0,152.699 123.791,276.629 276.629,276.629l2213.03,-0c152.699,-0 276.629,-123.93 276.629,-276.629l-0,-1383.14c-0,-152.698 -123.93,-276.628 -276.629,-276.628Zm-553.256,1106.51l-414.943,0l0,414.943l-276.628,-0l-0,-414.943l-414.943,0l0,-276.628l414.943,0l-0,-414.942l276.628,-0l0,414.942l414.943,0l-0,276.628Z" style="fill:#b9bbbe;fill-rule:nonzero;"/></svg>