<?xml version="1.0" encoding="UTF-8" standalone="no"?><!DOCTYPE svg PUBLIC "-//W3C//DTD SVG 1.1//EN" "http://www.w3.org/Graphics/SVG/1.1/DTD/svg11.dtd"><svg width="100%" height="100%" viewBox="0 0 4000 4000" version="1.1" xmlns="http://www.w3.org/2000/svg" xmlns:xlink="http://www.w3.org/1999/xlink" xml:space="preserve" xmlns:serif="http://www.serif.com/" style="fill-rule:evenodd;clip-rule:evenodd;stroke-linejoin:round;stroke-miterlimit:2;"><path d="M4000,923.844c-0,-509.884 -413.96,-923.844 -923.844,-923.844l-2152.31,0c-509.884,0 -923.844,413.96 -923.844,923.844l0,2152.31c0,509.884 413.96,923.844 923.844,923.844l2152.31,-0c509.884,-0 923.844,-413.96 923.844,-923.844l-0,-2152.31Z" style="fill:#232126;"/><path d="M1152.81,3272.18c-43.975,-0 -77.273,-39.735 -69.588,-83.031l85.623,-482.38l-481.292,-0c-43.907,-0 -77.187,-39.607 -69.619,-82.861l24.737,-141.353c5.918,-33.812 35.286,-58.492 69.619,-58.492l506.029,0l149.833,-848.116l-481.291,-0c-43.907,-0 -77.188,-39.611 -69.619,-82.86l24.736,-141.352c5.919,-33.819 35.286,-58.494 69.619,-58.494l506.029,0l90.008,-507.086c5.989,-33.742 35.319,-58.325 69.588,-58.325l139.143,0c43.969,0 77.272,39.73 69.582,83.028l-85.616,482.383l848.115,0l90.014,-507.086c5.979,-33.742 35.31,-58.325 69.588,-58.325l139.133,0c43.975,0 77.278,39.73 69.588,83.028l-85.617,482.383l481.292,0c43.904,0 77.192,39.612 69.616,82.86l-24.737,141.353c-5.908,33.818 -35.282,58.493 -69.616,58.493l-506.029,-0l-149.834,848.116l481.292,0c43.904,0 77.193,39.607 69.616,82.861l-24.736,141.353c-5.909,33.811 -35.282,58.492 -69.616,58.492l-506.029,-0l-90.013,507.088c-5.98,33.741 -35.31,58.323 -69.588,58.323l-139.134,-0c-43.975,-0 -77.277,-39.735 -69.588,-83.031l85.617,-482.38l-848.114,-0l-90.008,507.088c-5.989,33.741 -35.321,58.323 -69.59,58.323l-139.143,-0Zm498.11,-1696.23l-149.834,848.116l848.109,0l149.834,-848.116l-848.109,-0Z" style="fill:#72767d;"/></svg>