<?xml version="1.0" encoding="UTF-8" standalone="no"?><!DOCTYPE svg PUBLIC "-//W3C//DTD SVG 1.1//EN" "http://www.w3.org/Graphics/SVG/1.1/DTD/svg11.dtd"><svg width="100%" height="100%" viewBox="0 0 4000 4000" version="1.1" xmlns="http://www.w3.org/2000/svg" xmlns:xlink="http://www.w3.org/1999/xlink" xml:space="preserve" xmlns:serif="http://www.serif.com/" style="fill-rule:evenodd;clip-rule:evenodd;stroke-linejoin:round;stroke-miterlimit:2;"><path d="M4000,923.844c-0,-509.884 -413.96,-923.844 -923.844,-923.844l-2152.31,0c-509.884,0 -923.844,413.96 -923.844,923.844l0,2152.31c0,509.884 413.96,923.844 923.844,923.844l2152.31,-0c509.884,-0 923.844,-413.96 923.844,-923.844l-0,-2152.31Z" style="fill:#232126;"/><g><circle cx="1993.34" cy="2000" r="1158.17" style="fill:#ffdf3b;"/><path d="M2456.61,2368.86c0,-161.711 -131.289,-293 -293,-293l-1253.75,-0c-161.711,-0 -293,131.289 -293,293l0,120.482c0,161.711 131.289,293 293,293l1253.75,-0c161.711,-0 293,-131.289 293,-293l0,-120.482Z" style="fill:#2482ff;"/><circle cx="1536.44" cy="2429.1" r="185.307" style="fill:#f2f3f4;"/><circle cx="997.317" cy="2429.1" r="185.307" style="fill:#b6d4ff;"/><circle cx="2076.15" cy="2429.1" r="185.307" style="fill:#b6d4ff;"/><path d="M3383.14,1487.19c-0,-132.46 -107.541,-240 -240,-240l-1028.51,-0c-132.459,-0 -240,107.54 -240,240l0,99.083c0,132.46 107.541,240 240,240l1028.51,-0c132.459,-0 240,-107.54 240,-240l-0,-99.083Z" style="fill:#ff80ff;"/><path d="M2633.23,1732.46l-0,-376.404l-93.812,0l0,142.455l-130.294,-0l0,-142.455l-93.232,0l0,376.404l93.232,0l0,-152.878l130.294,0l0,152.878l93.812,0Zm152.299,-347.45c-0,-25.731 -21.174,-46.905 -46.906,-46.905c-25.732,-0 -46.906,21.174 -46.906,46.905c0,25.732 21.174,46.906 46.906,46.906c25.732,0 46.906,-21.174 46.906,-46.906Zm-5.791,347.45l-0,-266.957l-82.809,-0l-0,266.957l82.809,0Zm161.564,-376.404l-101.919,0l26.638,246.69l49.801,-11.003l25.48,-235.687Zm-6.949,376.404l0,-93.811l-88.6,-0l0,93.811l88.6,0Z" style="fill:#f2f3f4;fill-rule:nonzero;"/></g></svg>