<?xml version="1.0" encoding="UTF-8" standalone="no"?><!DOCTYPE svg PUBLIC "-//W3C//DTD SVG 1.1//EN" "http://www.w3.org/Graphics/SVG/1.1/DTD/svg11.dtd"><svg width="100%" height="100%" viewBox="0 0 4000 4000" version="1.1" xmlns="http://www.w3.org/2000/svg" xmlns:xlink="http://www.w3.org/1999/xlink" xml:space="preserve" xmlns:serif="http://www.serif.com/" style="fill-rule:evenodd;clip-rule:evenodd;stroke-linejoin:round;stroke-miterlimit:2;"><path d="M4000,923.844c-0,-509.884 -413.96,-923.844 -923.844,-923.844l-2152.31,0c-509.884,0 -923.844,413.96 -923.844,923.844l0,2152.31c0,509.884 413.96,923.844 923.844,923.844l2152.31,-0c509.884,-0 923.844,-413.96 923.844,-923.844l-0,-2152.31Z" style="fill:#232126;"/><path d="M2000,616.858c-763.992,0 -1383.14,619.149 -1383.14,1383.14c0,763.992 619.149,1383.14 1383.14,1383.14c763.992,-0 1383.14,-619.149 1383.14,-1383.14c-0,-763.992 -619.149,-1383.14 -1383.14,-1383.14Zm0,497.931c61.162,-0 110.651,49.49 110.651,110.651l0,710.603l520.407,300.833c52.947,30.47 70.236,97.47 39.765,150.416c-30.47,52.961 -97.47,70.236 -150.416,39.766l-563.658,-325.039c-4.329,-1.728 -8.216,-4.536 -12.102,-6.915c-33.071,-19.226 -55.326,-54.247 -55.326,-95.091l0,-774.559c0,-61.162 49.517,-110.665 110.679,-110.665Z" style="fill:#b9bbbe;fill-rule:nonzero;"/></svg>