<?xml version="1.0" encoding="UTF-8" standalone="no"?><!DOCTYPE svg PUBLIC "-//W3C//DTD SVG 1.1//EN" "http://www.w3.org/Graphics/SVG/1.1/DTD/svg11.dtd"><svg width="100%" height="100%" viewBox="0 0 4000 4000" version="1.1" xmlns="http://www.w3.org/2000/svg" xmlns:xlink="http://www.w3.org/1999/xlink" xml:space="preserve" xmlns:serif="http://www.serif.com/" style="fill-rule:evenodd;clip-rule:evenodd;stroke-linejoin:round;stroke-miterlimit:2;"><path d="M4000,923.844c-0,-509.884 -413.96,-923.844 -923.844,-923.844l-2152.31,0c-509.884,0 -923.844,413.96 -923.844,923.844l0,2152.31c0,509.884 413.96,923.844 923.844,923.844l2152.31,-0c509.884,-0 923.844,-413.96 923.844,-923.844l-0,-2152.31Z" style="fill:#232126;"/><path d="M3070.28,1723.37l312.867,-0l-0,553.256l-312.729,0c-33.333,128.771 -88.382,248.689 -162.38,354.638l198.48,198.619l-276.628,276.628l-198.481,-198.619c-106.225,73.998 -225.867,129.186 -354.776,162.381l0,312.867l-553.256,-0l-0,-312.867c-128.771,-33.195 -248.551,-88.383 -354.638,-162.381l-198.619,198.619l-276.628,-276.628l198.619,-198.619c-73.998,-105.81 -129.186,-225.729 -162.381,-354.638l-312.867,0l0,-553.256l312.867,-0c33.195,-128.909 88.244,-248.689 162.381,-354.638l-198.619,-198.619l276.628,-276.628l198.619,198.619c105.949,-74.137 225.729,-129.186 354.638,-162.381l-0,-312.867l553.256,0l0,312.729c128.909,33.333 248.551,88.382 354.776,162.38l198.481,-198.619l276.628,276.629l-198.619,198.757c73.998,105.949 129.186,225.867 162.381,354.638Zm-1070.28,829.885c305.55,-0 553.257,-247.707 553.257,-553.257c-0,-305.555 -247.707,-553.257 -553.257,-553.257c-305.555,0 -553.257,247.702 -553.257,553.257c0,305.55 247.702,553.257 553.257,553.257Z" style="fill:#b9bbbe;"/></svg>