<?xml version="1.0" encoding="UTF-8" standalone="no"?><!DOCTYPE svg PUBLIC "-//W3C//DTD SVG 1.1//EN" "http://www.w3.org/Graphics/SVG/1.1/DTD/svg11.dtd"><svg width="100%" height="100%" viewBox="0 0 4000 4000" version="1.1" xmlns="http://www.w3.org/2000/svg" xmlns:xlink="http://www.w3.org/1999/xlink" xml:space="preserve" xmlns:serif="http://www.serif.com/" style="fill-rule:evenodd;clip-rule:evenodd;stroke-linejoin:round;stroke-miterlimit:2;"><path d="M4000,923.844c-0,-509.884 -413.96,-923.844 -923.844,-923.844l-2152.31,0c-509.884,0 -923.844,413.96 -923.844,923.844l0,2152.31c0,509.884 413.96,923.844 923.844,923.844l2152.31,-0c509.884,-0 923.844,-413.96 923.844,-923.844l-0,-2152.31Z" style="fill:#faa81a;"/><path d="M3173.68,1521.21c47.862,-28.767 108.586,-25.863 153.543,7.468c44.812,33.473 65.268,90.454 51.866,144.673l-276.631,1106.48c-15.477,61.679 -70.808,104.831 -134.291,104.831l-1936.33,0c-63.484,0 -118.808,-43.297 -134.297,-104.831l-276.619,-1106.48c-13.415,-54.219 7.053,-111.2 51.866,-144.673c45.09,-33.194 105.669,-36.098 153.661,-7.468l578.547,347.156l480.07,-720.175c3.28,-4.919 7.852,-8.17 12.439,-11.429c2.764,-1.965 5.533,-3.934 8.029,-6.274l-133.191,-133.33c-26.832,-26.832 -26.832,-70.953 -0,-97.784l178.833,-178.833c26.833,-26.831 70.952,-26.831 97.786,-0l178.833,178.833c26.831,26.831 26.831,70.952 -0,97.784l-133.192,133.33c2.494,2.388 5.316,4.39 8.141,6.396c4.538,3.22 9.089,6.45 12.328,11.307l480.074,720.175l578.532,-347.156Zm-2280.13,1501.75l2212.93,0l0,276.632l-2212.93,-0l0,-276.632Z" style="fill:#fff;"/></svg>