<?xml version="1.0" encoding="UTF-8" standalone="no"?><!DOCTYPE svg PUBLIC "-//W3C//DTD SVG 1.1//EN" "http://www.w3.org/Graphics/SVG/1.1/DTD/svg11.dtd"><svg width="100%" height="100%" viewBox="0 0 4000 4000" version="1.1" xmlns="http://www.w3.org/2000/svg" xmlns:xlink="http://www.w3.org/1999/xlink" xml:space="preserve" xmlns:serif="http://www.serif.com/" style="fill-rule:evenodd;clip-rule:evenodd;stroke-linecap:round;stroke-miterlimit:10;"><path d="M4000,923.844c-0,-509.884 -413.96,-923.844 -923.844,-923.844l-2152.31,0c-509.884,0 -923.844,413.96 -923.844,923.844l0,2152.31c0,509.884 413.96,923.844 923.844,923.844l2152.31,-0c509.884,-0 923.844,-413.96 923.844,-923.844l-0,-2152.31Z" style="fill:#232126;"/><g><path d="M1991.58,3242.04c-672.165,-0 -1217.06,-546.689 -1217.06,-1221.07c0,-674.377 544.894,-1221.07 1217.06,-1221.07c672.159,0 1217.05,546.689 1217.05,1221.07c-0,674.375 -544.894,1221.07 -1217.05,1221.07Z" style="fill:#ffd114;fill-rule:nonzero;"/><g><path d="M3376.29,2538.91l0.272,0.272c8.776,8.804 8.776,23.076 0,31.88l-16.158,16.212c-8.776,8.805 -22.998,8.805 -31.774,0l-0.272,-0.276c-8.775,-8.8 -8.775,-23.071 0,-31.876l16.159,-16.212c8.775,-8.804 22.998,-8.804 31.773,-0Z" style="fill:#5d97ff;fill-rule:nonzero;"/><path d="M3248.48,2667.43l0.277,0.277c8.77,8.8 8.77,23.071 -0.005,31.876l-16.159,16.212c-8.771,8.804 -22.998,8.804 -31.769,-0l-0.277,-0.277c-8.775,-8.799 -8.775,-23.071 0,-31.876l16.159,-16.212c8.775,-8.804 22.999,-8.804 31.774,0Z" style="fill:#5d97ff;fill-rule:nonzero;"/><path d="M3200.53,2539.34l0.276,-0.277c8.771,-8.804 22.998,-8.804 31.769,0l16.164,16.212c8.771,8.804 8.771,23.076 0,31.881l-0.277,0.271c-8.77,8.805 -22.998,8.805 -31.769,-0l-16.163,-16.212c-8.771,-8.805 -8.771,-23.076 -0,-31.875Z" style="fill:#5d97ff;fill-rule:nonzero;"/><path d="M3327.97,2667.85l0.272,-0.276c8.776,-8.8 22.998,-8.8 31.774,0l16.158,16.217c8.776,8.8 8.776,23.071 0,31.875l-0.271,0.272c-8.776,8.804 -22.999,8.804 -31.774,0l-16.159,-16.212c-8.775,-8.799 -8.775,-23.076 0,-31.876Z" style="fill:#5d97ff;fill-rule:nonzero;"/></g><path d="M757.084,2856.12c0,-17.386 13.961,-31.479 31.182,-31.479c17.221,0 31.181,14.093 31.181,31.479l0,31.089c0,17.386 -13.96,31.478 -31.181,31.478c-17.221,-0 -31.182,-14.092 -31.182,-31.478l0,-31.089Z" style="fill:#ff80ff;fill-rule:nonzero;"/><path d="M757.084,3106.8c0,-17.385 13.961,-31.482 31.182,-31.482c17.221,-0 31.181,14.097 31.181,31.482l0,31.091c0,17.38 -13.96,31.477 -31.181,31.477c-17.221,0 -31.182,-14.097 -31.182,-31.477l0,-31.091Z" style="fill:#ff80ff;fill-rule:nonzero;"/><path d="M648.234,3027.91c-17.329,-0 -31.376,-14.01 -31.376,-31.284c-0,-17.279 14.047,-31.284 31.376,-31.284l30.988,0c17.328,0 31.375,14.005 31.375,31.284c-0,17.274 -14.047,31.284 -31.375,31.284l-30.988,-0Z" style="fill:#ff80ff;fill-rule:nonzero;"/><path d="M897.698,3028.29c-17.328,0 -31.375,-14.005 -31.375,-31.284c-0,-17.279 14.047,-31.284 31.375,-31.284l30.988,0c17.328,0 31.376,14.005 31.376,31.284c-0,17.279 -14.048,31.284 -31.376,31.284l-30.988,0Z" style="fill:#ff80ff;fill-rule:nonzero;"/><path d="M3085.08,971.303l36.411,75.394c1.902,3.856 2.552,8.222 1.853,12.471c-0.693,4.249 -2.701,8.174 -5.738,11.22c-3.037,3.047 -6.947,5.06 -11.181,5.758c-4.241,0.699 -8.587,0.049 -12.434,-1.857l-75.146,-34.2c-2.677,-1.227 -5.583,-1.858 -8.523,-1.858c-2.939,0 -5.845,0.631 -8.523,1.858l-75.146,36.14c-3.848,1.911 -8.194,2.561 -12.429,1.863c-4.24,-0.704 -8.149,-2.717 -11.186,-5.763c-3.032,-3.046 -5.04,-6.966 -5.738,-11.221c-0.7,-4.249 -0.049,-8.61 1.852,-12.472l36.024,-75.393c1.339,-2.789 2.032,-5.841 2.032,-8.94c0,-3.095 -0.693,-6.148 -2.032,-8.936l-36.024,-75.394c-2.129,-3.691 -3.07,-7.955 -2.682,-12.203c0.388,-4.248 2.081,-8.272 4.841,-11.514c2.765,-3.242 6.467,-5.543 10.59,-6.585c4.123,-1.042 8.465,-0.775 12.428,0.767l77.47,36.142c2.779,1.343 5.826,2.04 8.911,2.04c3.085,0 6.132,-0.697 8.911,-2.04l75.142,-36.142c3.852,-1.91 8.197,-2.56 12.433,-1.861c4.24,0.7 8.149,2.714 11.186,5.76c3.032,3.045 5.04,6.969 5.738,11.219c0.699,4.251 0.049,8.613 -1.852,12.474l-36.412,75.394c-1.46,2.729 -2.289,5.754 -2.426,8.851c-0.13,3.095 0.433,6.18 1.65,9.028Z" style="fill:#00d0ac;fill-rule:nonzero;"/><path d="M2680.65,1986.77l139.063,-80.443l-0,1081.55l-139.063,80.448l0,-1081.55Z" style="fill:#9da7ba;fill-rule:nonzero;"/><path d="M2819.71,1906.33l-1162.05,-673.1l0,1081.55l1162.05,673.1l0,-1081.55Z" style="fill:#9da7ba;fill-rule:nonzero;"/><path d="M2238.68,735.012c319.567,184.986 581.029,712.353 581.029,1171.32l-1162.05,-671.936c0,-460.131 259.522,-684.368 581.024,-499.382l0.001,-0.003Z" style="fill:#9da7ba;fill-rule:nonzero;"/><path d="M2680.67,1986.77l-1161.66,-673.099l0,1081.55l1161.66,673.1l-0,-1081.55Z" style="fill:#fff;fill-rule:nonzero;"/><path d="M2100.02,815.464c319.179,184.988 581.029,712.353 581.029,1171.32l-1162.06,-674.657c0,-457.412 261.462,-681.649 581.029,-496.662l0.003,-0.002Z" style="fill:#fff;fill-rule:nonzero;"/><path d="M2100.04,1019.1c243.256,140.682 441.971,565.064 441.971,938.925l-0,214.912l-884.326,-511.044l0,-216.077c0,-375.804 199.099,-567.784 442.355,-426.714l-0,-0.002Z" style="fill:#060531;fill-rule:nonzero;"/><path d="M2542.01,2051.28l-884.326,-512.208l0,936.587l884.326,512.209l-0,-936.588Z" style="fill:#060531;fill-rule:nonzero;"/><path d="M1063.08,1649.82l594.582,-110.757l98.387,56.737l0,936.588l-643.775,120.086l-49.194,-66.066l0,-936.588Z" style="fill:#9c594f;fill-rule:nonzero;"/><path d="M1112.28,1715.9l643.775,-120.085l0,936.587l-643.775,120.086l-0,-936.588Z" style="fill:#6d363d;fill-rule:nonzero;"/><path d="M1063.1,891.247l0,758.598l643.776,-119.697c0,-417.382 -289.738,-704.579 -643.776,-638.901Z" style="fill:#884141;fill-rule:nonzero;"/><path d="M2258.84,1733l0,1577.83l204.133,-341.993l0,-936.588c0,-352.873 -91.804,-486.949 -204.133,-299.241l0,-0.005Z" style="fill:#884141;fill-rule:nonzero;"/><path d="M1112.29,957.309l0,758.598l643.388,-120.085c0,-416.994 -289.738,-704.192 -643.388,-638.512l0,-0.001Z" style="fill:#6d363d;fill-rule:nonzero;"/><path d="M2231.73,2646.28l36.799,-144.956" style="fill:none;fill-rule:nonzero;stroke:#9da7ba;stroke-width:250.63px;"/><path d="M2475,2012.41l-216.14,361.814l0,936.588l79.018,19.045l204.138,-341.993l-0,-936.588l-67.016,-38.861l-0,-0.005Z" style="fill:#9c594f;fill-rule:nonzero;"/><path d="M2542.01,2051.29l-204.138,341.988l-0,936.588l204.138,-341.988l-0,-936.588Z" style="fill:#ad685b;fill-rule:nonzero;"/><path d="M2337.86,1752.03l-79.022,-19.041l-0,1577.82l79.022,19.046l0,-1577.83l0,0.003Z" style="fill:#bf7654;fill-rule:nonzero;"/><path d="M2444.8,1668.88l-79.017,-19.433l-106.911,83.553l79.022,19.045l106.906,-83.165Z" style="fill:#884141;fill-rule:nonzero;"/><path d="M1112.28,957.314l-49.193,-66.067l-0,1695.19l49.193,66.066l0,-1695.19l0,0.001Z" style="fill:#bf7654;fill-rule:nonzero;"/><path d="M2337.88,1752.04l-0,1577.82l204.138,-341.988l-0,-937.37c-0,-349.764 -91.805,-486.561 -204.138,-298.464Z" style="fill:#9c564e;fill-rule:nonzero;"/><path d="M1240.11,948.379l0,1680.42l57.329,-10.492l-0,-1663.32c-18.982,-3.208 -38.119,-5.414 -57.329,-6.607l0,-0.003Z" style="fill:#5f2830;fill-rule:nonzero;"/><path d="M1448.11,1007.05l0,1582.88l56.941,-10.492l-0,-1536.24c-18.123,-13.355 -37.149,-25.434 -56.941,-36.145l0,-0.003Z" style="fill:#5f2830;fill-rule:nonzero;"/><path d="M1629.41,1169.49l-0,1386.23l55.393,-10.105l0,-1278.96c-15.232,-34.135 -33.787,-66.681 -55.393,-97.16l-0,-0.005Z" style="fill:#5f2830;fill-rule:nonzero;"/><path d="M2379.7,1695.69l0,1563.45l32.541,-54.409l-0,-1533.13c-12.371,5.724 -23.445,13.922 -32.541,24.094l0,-0.004Z" style="fill:#884141;fill-rule:nonzero;"/><path d="M2466.87,1680.92l-0,1432.48l31.376,-52.463l-0,-1329.49c-6.874,-18.832 -17.556,-36.033 -31.376,-50.523Z" style="fill:#884141;fill-rule:nonzero;"/><path d="M1296.64,2224.09c-64.606,-15.945 -103.311,-84.63 -86.445,-153.407c16.862,-68.777 82.903,-111.606 147.513,-95.661c64.605,15.946 103.306,84.626 86.444,153.402c-16.866,68.782 -82.907,111.611 -147.512,95.666Z" style="fill:none;fill-rule:nonzero;stroke:#9da7ba;stroke-width:250.63px;stroke-linecap:butt;"/><path d="M1312.92,2003.09l0,-68.011" style="fill:none;fill-rule:nonzero;stroke:#9da7ba;stroke-width:250.63px;"/></g></svg>