<?xml version="1.0" encoding="UTF-8" standalone="no"?><!DOCTYPE svg PUBLIC "-//W3C//DTD SVG 1.1//EN" "http://www.w3.org/Graphics/SVG/1.1/DTD/svg11.dtd"><svg width="100%" height="100%" viewBox="0 0 4000 4000" version="1.1" xmlns="http://www.w3.org/2000/svg" xmlns:xlink="http://www.w3.org/1999/xlink" xml:space="preserve" xmlns:serif="http://www.serif.com/" style="fill-rule:evenodd;clip-rule:evenodd;stroke-linejoin:round;stroke-miterlimit:2;"><path d="M4000,923.844c-0,-509.884 -413.96,-923.844 -923.844,-923.844l-2152.31,0c-509.884,0 -923.844,413.96 -923.844,923.844l0,2152.31c0,509.884 413.96,923.844 923.844,923.844l2152.31,-0c509.884,-0 923.844,-413.96 923.844,-923.844l-0,-2152.31Z" style="fill:#232126;"/><path d="M2987.95,1012.04l0,-395.183l-263.455,0l0,395.183l-395.183,0l0,263.455l395.183,0l0,395.183l263.455,-0l0,-395.183l395.183,0l-0,-263.455l-395.183,0Z" style="fill:#b9bbbe;fill-rule:nonzero;"/><path d="M1275.5,1012.04l790.367,0l0,658.638l-1185.55,-0l-0,1449l1844.19,-0l0,-1185.55l263.455,0l0,1185.55c0,144.9 -118.554,263.455 -263.455,263.455l-1844.19,-0c-69.872,-0 -136.883,-27.755 -186.29,-77.166c-49.409,-49.412 -77.165,-116.421 -77.165,-186.289l1.318,-1844.19c-0,-144.9 115.92,-263.454 262.137,-263.454l131.728,-0l-0,-263.456l263.455,0l-0,263.456l0,0Z" style="fill:#b9bbbe;fill-rule:nonzero;"/><rect x="1143.77" y="1934.13" width="658.638" height="658.638" style="fill:#b9bbbe;"/></svg>