<?xml version="1.0" encoding="UTF-8" standalone="no"?><!DOCTYPE svg PUBLIC "-//W3C//DTD SVG 1.1//EN" "http://www.w3.org/Graphics/SVG/1.1/DTD/svg11.dtd"><svg width="100%" height="100%" viewBox="0 0 4000 4000" version="1.1" xmlns="http://www.w3.org/2000/svg" xmlns:xlink="http://www.w3.org/1999/xlink" xml:space="preserve" xmlns:serif="http://www.serif.com/" style="fill-rule:evenodd;clip-rule:evenodd;stroke-linejoin:round;stroke-miterlimit:2;"><path d="M4000,923.844c-0,-509.884 -413.96,-923.844 -923.844,-923.844l-2152.31,0c-509.884,0 -923.844,413.96 -923.844,923.844l0,2152.31c0,509.884 413.96,923.844 923.844,923.844l2152.31,-0c509.884,-0 923.844,-413.96 923.844,-923.844l-0,-2152.31Z" style="fill:#232126;"/><path d="M2968.2,893.486l-138.315,0l0,-276.628l-276.628,0l0,276.628l-1106.51,0l-0,-276.628l-276.628,0l-0,276.628l-138.315,0c-153.528,0 -275.245,124.483 -275.245,276.629l-1.383,1936.4c0,151.753 124.875,276.628 276.628,276.628l1936.4,-0c152.145,-0 276.628,-124.483 276.628,-276.628l-0,-1936.4c-0,-152.146 -124.483,-276.629 -276.628,-276.629Zm-0,2213.03l-1936.4,-0l0,-1521.45l1936.4,-0l-0,1521.45Zm-1659.77,-1244.83l691.57,-0l-0,691.57l-691.57,0l-0,-691.57Z" style="fill:#72767d;"/></svg>