<?xml version="1.0" encoding="UTF-8" standalone="no"?><!DOCTYPE svg PUBLIC "-//W3C//DTD SVG 1.1//EN" "http://www.w3.org/Graphics/SVG/1.1/DTD/svg11.dtd"><svg width="100%" height="100%" viewBox="0 0 4000 4000" version="1.1" xmlns="http://www.w3.org/2000/svg" xmlns:xlink="http://www.w3.org/1999/xlink" xml:space="preserve" xmlns:serif="http://www.serif.com/" style="fill-rule:evenodd;clip-rule:evenodd;stroke-linejoin:round;stroke-miterlimit:2;"><path d="M4000,923.844c-0,-509.884 -413.96,-923.844 -923.844,-923.844l-2152.31,0c-509.884,0 -923.844,413.96 -923.844,923.844l0,2152.31c0,509.884 413.96,923.844 923.844,923.844l2152.31,-0c509.884,-0 923.844,-413.96 923.844,-923.844l-0,-2152.31Z" style="fill:#232126;"/><circle cx="2000" cy="2000" r="1383.14" style="fill:#b9bbbe;"/><path d="M2480.75,2405.53l57.345,-397.473l-358.731,-0l-0,-257.831c-0,-108.748 50.125,-214.86 210.79,-214.86l163.1,0l-0,-338.4c-0,0 -148.01,-26.856 -289.533,-26.856c-295.452,-0 -488.566,190.363 -488.566,534.992l0,302.955l-328.412,-0l-0,397.473l328.412,-0l0,960.894c133.93,22.282 270.293,22.282 404.209,0l-0,-960.894l301.386,-0Z" style="fill:#fff;fill-rule:nonzero;"/></svg>