<?xml version="1.0" encoding="UTF-8" standalone="no"?><!DOCTYPE svg PUBLIC "-//W3C//DTD SVG 1.1//EN" "http://www.w3.org/Graphics/SVG/1.1/DTD/svg11.dtd"><svg width="100%" height="100%" viewBox="0 0 4000 4000" version="1.1" xmlns="http://www.w3.org/2000/svg" xmlns:xlink="http://www.w3.org/1999/xlink" xml:space="preserve" xmlns:serif="http://www.serif.com/" style="fill-rule:evenodd;clip-rule:evenodd;stroke-linejoin:round;stroke-miterlimit:2;"><path d="M4000,923.844c-0,-509.884 -413.96,-923.844 -923.844,-923.844l-2152.31,0c-509.884,0 -923.844,413.96 -923.844,923.844l0,2152.31c0,509.884 413.96,923.844 923.844,923.844l2152.31,-0c509.884,-0 923.844,-413.96 923.844,-923.844l-0,-2152.31Z" style="fill:#232126;"/><path d="M847.378,847.379c-127.314,0 -230.524,103.21 -230.524,230.525l0,1844.2c0,127.318 103.209,230.525 230.524,230.525l2305.24,-0c127.318,-0 230.524,-103.207 230.524,-230.525l-0,-1844.2c-0,-127.315 -103.206,-230.525 -230.524,-230.525l-2305.24,0Zm894.95,1089l0,464.737c-99.586,65.008 -217.153,100.969 -348.552,100.969c-302.909,0 -470.27,-199.173 -470.27,-493.782c0,-295.994 181.193,-496.55 475.802,-496.55c117.568,0 215.771,27.663 291.844,70.541l-31.812,206.088c-71.924,-45.643 -156.296,-81.605 -254.499,-81.605c-164.594,-0 -244.817,121.717 -244.817,300.142c0,179.809 82.989,305.676 247.583,305.676c52.56,-0 89.905,-11.066 128.633,-30.43l-0,-170.127l-178.426,0l0,-175.659l384.514,0Zm205.588,-406.645l236.517,0l0,954.371l-236.517,-0l-0,-954.371Zm1028.63,0l-0,197.79l-336.104,0l-0,195.024l265.563,-0l0,197.789l-265.563,0l-0,363.768l-235.135,-0l-0,-954.371l571.239,0Z" style="fill:#b9bbbe;fill-rule:nonzero;"/></svg>