<?xml version="1.0" encoding="UTF-8" standalone="no"?><!DOCTYPE svg PUBLIC "-//W3C//DTD SVG 1.1//EN" "http://www.w3.org/Graphics/SVG/1.1/DTD/svg11.dtd"><svg width="100%" height="100%" viewBox="0 0 4000 4000" version="1.1" xmlns="http://www.w3.org/2000/svg" xmlns:xlink="http://www.w3.org/1999/xlink" xml:space="preserve" xmlns:serif="http://www.serif.com/" style="fill-rule:evenodd;clip-rule:evenodd;stroke-linejoin:round;stroke-miterlimit:2;"><path d="M4000,923.844c-0,-509.884 -413.96,-923.844 -923.844,-923.844l-2152.31,0c-509.884,0 -923.844,413.96 -923.844,923.844l0,2152.31c0,509.884 413.96,923.844 923.844,923.844l2152.31,-0c509.884,-0 923.844,-413.96 923.844,-923.844l-0,-2152.31Z" style="fill:#232126;"/><path d="M2000,616.869c-762.659,0 -1383.13,620.334 -1383.13,1383.14l-0,1106.51c-0,152.697 123.79,276.626 276.625,276.626l276.626,-0c152.697,-0 276.626,-123.929 276.626,-276.626l-0,-414.939c-0,-152.697 -123.929,-276.626 -276.626,-276.626l-276.626,0l0,-414.938c0,-610.243 496.405,-1106.51 1106.51,-1106.51c610.098,0 1106.51,496.267 1106.51,1106.51l-0,414.938l-276.626,0c-152.697,0 -276.626,123.929 -276.626,276.626l0,414.939c0,152.697 123.929,276.626 276.626,276.626l276.626,-0c152.697,-0 276.625,-123.929 276.625,-276.626l0,-1106.51c0,-762.804 -620.471,-1383.14 -1383.13,-1383.14l0.002,0Z" style="fill:#b9bbbe;fill-rule:nonzero;"/></svg>