<?xml version="1.0" encoding="UTF-8" standalone="no"?><!DOCTYPE svg PUBLIC "-//W3C//DTD SVG 1.1//EN" "http://www.w3.org/Graphics/SVG/1.1/DTD/svg11.dtd"><svg width="100%" height="100%" viewBox="0 0 4000 4000" version="1.1" xmlns="http://www.w3.org/2000/svg" xmlns:xlink="http://www.w3.org/1999/xlink" xml:space="preserve" xmlns:serif="http://www.serif.com/" style="fill-rule:evenodd;clip-rule:evenodd;stroke-linejoin:round;stroke-miterlimit:2;"><path d="M4000,923.844c-0,-509.884 -413.96,-923.844 -923.844,-923.844l-2152.31,0c-509.884,0 -923.844,413.96 -923.844,923.844l0,2152.31c0,509.884 413.96,923.844 923.844,923.844l2152.31,-0c509.884,-0 923.844,-413.96 923.844,-923.844l-0,-2152.31Z" style="fill:#232126;"/><path d="M2000,3383.14c763.891,-0 1383.14,-619.25 1383.14,-1383.14c-0,-763.888 -619.25,-1383.14 -1383.14,-1383.14c-763.888,0 -1383.14,619.253 -1383.14,1383.14c0,763.891 619.253,1383.14 1383.14,1383.14Zm136.948,-1430.69l624.938,-410.413c15.716,-10.228 34.803,6.871 26.107,23.513l-259.097,508.581c-6.121,12.224 2.731,26.574 16.321,26.574l155.136,-0c17.86,-0 25.191,22.735 10.685,33.126l-700.509,501.856c-6.259,4.581 -14.799,4.581 -21.214,-0l-700.505,-501.856c-14.352,-10.391 -7.023,-33.126 10.688,-33.126l154.971,-0c13.741,-0 22.597,-14.35 16.336,-26.574l-259.1,-508.581c-8.55,-16.642 10.536,-33.741 26.262,-23.513l625.085,410.413c10.84,7.175 19.537,16.943 25.329,28.544l95.281,191.167c6.725,13.434 25.951,13.434 32.676,0l95.264,-191.167c5.809,-11.601 14.506,-21.525 25.346,-28.544Z" style="fill:#ff7c66;"/></svg>