<?xml version="1.0" encoding="UTF-8" standalone="no"?><!DOCTYPE svg PUBLIC "-//W3C//DTD SVG 1.1//EN" "http://www.w3.org/Graphics/SVG/1.1/DTD/svg11.dtd"><svg width="100%" height="100%" viewBox="0 0 4000 4000" version="1.1" xmlns="http://www.w3.org/2000/svg" xmlns:xlink="http://www.w3.org/1999/xlink" xml:space="preserve" xmlns:serif="http://www.serif.com/" style="fill-rule:evenodd;clip-rule:evenodd;stroke-linejoin:round;stroke-miterlimit:2;"><path d="M4000,923.844c-0,-509.884 -413.96,-923.844 -923.844,-923.844l-2152.31,0c-509.884,0 -923.844,413.96 -923.844,923.844l0,2152.31c0,509.884 413.96,923.844 923.844,923.844l2152.31,-0c509.884,-0 923.844,-413.96 923.844,-923.844l-0,-2152.31Z" style="fill:#232126;"/><path d="M2219.64,633.713c659.156,105.461 1163.5,677.299 1163.5,1366c-0,763.529 -619.891,1383.42 -1383.42,1383.42c-750.243,-0 -1361.81,-598.507 -1382.86,-1343.66c195.125,214.305 476.272,348.875 788.598,348.875c588.522,0 1066.33,-477.805 1066.33,-1066.33c0,-262.245 -94.872,-502.507 -252.147,-688.315l0.008,-0.004Z" style="fill:#faa81a;"/></svg>