<?xml version="1.0" encoding="UTF-8" standalone="no"?><!DOCTYPE svg PUBLIC "-//W3C//DTD SVG 1.1//EN" "http://www.w3.org/Graphics/SVG/1.1/DTD/svg11.dtd"><svg width="100%" height="100%" viewBox="0 0 4000 4000" version="1.1" xmlns="http://www.w3.org/2000/svg" xmlns:xlink="http://www.w3.org/1999/xlink" xml:space="preserve" xmlns:serif="http://www.serif.com/" style="fill-rule:evenodd;clip-rule:evenodd;stroke-linecap:round;stroke-miterlimit:10;"><path d="M4000,923.844c-0,-509.884 -413.96,-923.844 -923.844,-923.844l-2152.31,0c-509.884,0 -923.844,413.96 -923.844,923.844l0,2152.31c0,509.884 413.96,923.844 923.844,923.844l2152.31,-0c509.884,-0 923.844,-413.96 923.844,-923.844l-0,-2152.31Z" style="fill:#232126;"/><g><circle cx="1874.26" cy="2125.74" r="1257.4" style="fill:#ff80ff;"/><circle cx="2847.49" cy="1152.51" r="535.653" style="fill:#32dec5;"/><path d="M2847.49,898.516l0,487.871" style="fill:none;fill-rule:nonzero;stroke:#fff;stroke-width:167.23px;"/><path d="M3091.43,1142.45l-487.872,-0" style="fill:none;fill-rule:nonzero;stroke:#fff;stroke-width:167.23px;"/><path d="M2440.09,2684.65c0,-239.535 -121.968,-443.863 -293.603,-524.965c94.436,-47.937 154.168,-145.246 154.168,-251.152c0,-154.513 -127.145,-281.658 -281.658,-281.658c-154.513,-0 -281.657,127.145 -281.657,281.658c-0,83.992 37.57,163.729 102.341,217.202c-122.414,1.754 -241.742,-38.911 -337.612,-115.052c-69.196,-62.794 -111.369,-150.072 -117.567,-243.307c0,-77.257 -63.572,-140.829 -140.829,-140.829c-77.256,-0 -140.828,63.572 -140.828,140.829c6.768,171.158 80.661,332.953 205.585,450.149c83.737,74.711 184.231,128.193 292.974,155.918c-51.013,95.75 -77.376,202.717 -76.701,311.207l915.387,-0Z" style="fill:#fff;fill-rule:nonzero;"/></g></svg>