<?xml version="1.0" encoding="UTF-8" standalone="no"?><!DOCTYPE svg PUBLIC "-//W3C//DTD SVG 1.1//EN" "http://www.w3.org/Graphics/SVG/1.1/DTD/svg11.dtd"><svg width="100%" height="100%" viewBox="0 0 4000 4000" version="1.1" xmlns="http://www.w3.org/2000/svg" xmlns:xlink="http://www.w3.org/1999/xlink" xml:space="preserve" xmlns:serif="http://www.serif.com/" style="fill-rule:evenodd;clip-rule:evenodd;stroke-linejoin:round;stroke-miterlimit:2;"><path d="M4000,923.844c-0,-509.884 -413.96,-923.844 -923.844,-923.844l-2152.31,0c-509.884,0 -923.844,413.96 -923.844,923.844l0,2152.31c0,509.884 413.96,923.844 923.844,923.844l2152.31,-0c509.884,-0 923.844,-413.96 923.844,-923.844l-0,-2152.31Z" style="fill:#232126;"/><path d="M2215.29,1861.69l-316.739,-317.292l195.852,-195.3l650.906,652.151l-651.182,649.937l-195.438,-195.852l317.707,-317.016l-1596.01,-0c69.572,697.794 660.035,1244.83 1376.09,1244.83c762.663,-0 1383.14,-620.615 1383.14,-1383.14c-0,-762.525 -620.477,-1383.14 -1383.14,-1383.14c-716.051,0 -1306.51,546.894 -1376.09,1244.83l1594.9,0Z" style="fill:#00f281;fill-rule:nonzero;"/></svg>