<?xml version="1.0" encoding="UTF-8" standalone="no"?><!DOCTYPE svg PUBLIC "-//W3C//DTD SVG 1.1//EN" "http://www.w3.org/Graphics/SVG/1.1/DTD/svg11.dtd"><svg width="100%" height="100%" viewBox="0 0 4000 4000" version="1.1" xmlns="http://www.w3.org/2000/svg" xmlns:xlink="http://www.w3.org/1999/xlink" xml:space="preserve" xmlns:serif="http://www.serif.com/" style="fill-rule:evenodd;clip-rule:evenodd;stroke-linejoin:round;stroke-miterlimit:2;"><path d="M4000,923.844c-0,-509.884 -413.96,-923.844 -923.844,-923.844l-2152.31,0c-509.884,0 -923.844,413.96 -923.844,923.844l0,2152.31c0,509.884 413.96,923.844 923.844,923.844l2152.31,-0c509.884,-0 923.844,-413.96 923.844,-923.844l-0,-2152.31Z" style="fill:#232126;"/><g><path d="M616.86,2768.41l307.365,-0l-0,-307.365l-307.365,-0l0,307.365Zm614.729,-0l2151.55,-0l-0,-307.365l-2151.55,-0l0,307.365Zm-614.729,-614.73l307.365,0l-0,-307.364l-307.365,-0l0,307.364Zm614.729,0l2151.55,0l-0,-307.364l-2151.55,-0l0,307.364Zm-614.729,-614.729l307.365,0l-0,-307.365l-307.365,0l0,307.365Zm614.729,-307.365l0,307.365l2151.55,0l-0,-307.365l-2151.55,0Z" style="fill:#ececec;"/><rect x="616.86" y="616.858" width="2766.28" height="2766.28" style="fill:none;"/></g></svg>