<?xml version="1.0" encoding="UTF-8" standalone="no"?><!DOCTYPE svg PUBLIC "-//W3C//DTD SVG 1.1//EN" "http://www.w3.org/Graphics/SVG/1.1/DTD/svg11.dtd"><svg width="100%" height="100%" viewBox="0 0 4000 4000" version="1.1" xmlns="http://www.w3.org/2000/svg" xmlns:xlink="http://www.w3.org/1999/xlink" xml:space="preserve" xmlns:serif="http://www.serif.com/" style="fill-rule:evenodd;clip-rule:evenodd;stroke-linejoin:round;stroke-miterlimit:2;"><path d="M4000,923.844c-0,-509.884 -413.96,-923.844 -923.844,-923.844l-2152.31,0c-509.884,0 -923.844,413.96 -923.844,923.844l0,2152.31c0,509.884 413.96,923.844 923.844,923.844l2152.31,-0c509.884,-0 923.844,-413.96 923.844,-923.844l-0,-2152.31Z" style="fill:#232126;"/><g><path d="M1874.26,3257.4c694.443,-0 1257.4,-562.957 1257.4,-1257.4c-0,-694.444 -562.958,-1257.4 -1257.4,-1257.4c-694.444,0 -1257.4,562.957 -1257.4,1257.4c0,694.444 562.957,1257.4 1257.4,1257.4Z" style="fill:#2482ff;fill-rule:nonzero;"/><g><path d="M2286.69,1182.69l-824.855,-0c-67.358,-0 -121.967,54.608 -121.967,121.967l-0,1390.69c-0,67.359 54.609,121.967 121.967,121.967l824.855,0c67.359,0 121.968,-54.608 121.968,-121.967l0,-1390.69c0,-67.359 -54.609,-121.967 -121.968,-121.967Z" style="fill:#2a2d33;fill-rule:nonzero;"/><rect x="1458.69" y="1308.43" width="831.142" height="1383.14" style="fill:#2a2d33;fill-rule:nonzero;"/><path d="M1969.19,2152.14l30.806,36.465c26.695,0.591 53.131,-5.344 77.016,-17.283c23.884,-11.945 44.493,-29.53 60.041,-51.245c-0.862,-90.816 -22.363,-180.249 -62.87,-261.54c-36.037,-28.323 -79.965,-44.794 -125.74,-47.152l-6.287,6.916c40.658,11.153 78.549,30.636 111.28,57.211c-41.677,-23.299 -87.673,-37.847 -135.171,-42.751c-30.058,-3.791 -60.475,-3.791 -90.533,-0l-10.059,-0c-35.207,4.118 -69.566,13.661 -101.85,28.291l-26.405,13.203c34.66,-28.015 74.985,-48.177 118.196,-59.098l-5.03,-3.772c-45.776,2.358 -89.703,18.829 -125.74,47.152c-40.507,81.291 -62.009,170.724 -62.87,261.54c15.227,21.438 35.415,38.866 58.846,50.799c23.432,11.932 49.404,18.018 75.696,17.729l30.177,-37.093c-31.711,-7.922 -59.563,-26.865 -78.587,-53.44l12.574,8.173l4.401,0c11.316,6.287 22.633,11.317 32.692,15.718c21.426,8.154 43.513,14.46 66.014,18.861c38.432,7.236 77.877,7.236 116.309,-0c23.13,-2.439 45.908,-7.501 67.9,-15.089c18.088,-6.909 35.371,-15.768 51.553,-26.405c-20.3,26.839 -49.497,45.562 -82.359,52.81Zm-179.18,-73.557c-10.116,0.886 -20.263,-1.308 -29.109,-6.294c-8.839,-4.985 -15.969,-12.536 -20.445,-21.652c-4.47,-9.116 -6.08,-19.37 -4.615,-29.417c1.465,-10.047 5.935,-19.414 12.832,-26.877c6.891,-7.456 15.875,-12.649 25.777,-14.907c9.902,-2.25 20.25,-1.458 29.687,2.283c9.443,3.74 17.528,10.254 23.199,18.678c5.671,8.425 8.657,18.365 8.569,28.518c0.252,6.275 -0.735,12.543 -2.904,18.434c-2.176,5.897 -5.483,11.304 -9.745,15.918c-4.263,4.609 -9.393,8.337 -15.102,10.965c-5.702,2.628 -11.869,4.105 -18.144,4.351Zm164.091,-0c-10.116,0.886 -20.263,-1.308 -29.109,-6.294c-8.839,-4.985 -15.969,-12.536 -20.445,-21.652c-4.47,-9.116 -6.08,-19.37 -4.615,-29.417c1.465,-10.047 5.935,-19.414 12.832,-26.877c6.89,-7.456 15.875,-12.649 25.777,-14.907c9.902,-2.25 20.25,-1.458 29.687,2.283c9.443,3.74 17.528,10.254 23.199,18.678c5.671,8.425 8.657,18.365 8.569,28.518c0.346,12.631 -4.263,24.897 -12.838,34.176c-8.576,9.28 -20.439,14.838 -33.057,15.492Z" style="fill:#2a2d33;fill-rule:nonzero;"/></g><path d="M2286.69,1182.69l-824.855,-0c-67.358,-0 -121.967,54.608 -121.967,121.967l-0,1390.69c-0,67.359 54.609,121.967 121.967,121.967l824.855,0c67.359,0 121.968,-54.608 121.968,-121.967l0,-1390.69c0,-67.359 -54.609,-121.967 -121.968,-121.967Z" style="fill:#ffd90e;fill-rule:nonzero;"/><rect x="1434.17" y="1308.43" width="831.142" height="1383.14" style="fill:#fff;fill-rule:nonzero;"/><path d="M2048.78,1843.03c-33.089,-15.038 -67.969,-25.625 -103.742,-31.642c-4.879,8.714 -9.355,17.635 -13.304,26.77c-38.067,-5.602 -76.864,-5.602 -114.957,-0c-4.049,-9.135 -8.5,-18.056 -13.373,-26.67c-35.905,6.023 -70.779,16.604 -103.867,31.649c-65.781,96.185 -83.53,190.088 -74.602,282.532c38.495,28.122 81.536,49.497 127.299,63.191c10.286,-13.694 19.414,-28.323 27.204,-43.582c-14.856,-5.495 -29.266,-12.241 -42.965,-20.332c3.64,-2.597 7.161,-5.187 10.581,-8.098c80.612,37.565 173.791,37.565 254.428,0c3.421,2.804 6.941,5.501 10.462,8.098c-13.68,7.991 -28.115,14.837 -42.947,20.332c7.897,15.259 16.919,29.782 27.179,43.481c45.763,-13.699 88.81,-35.075 127.299,-63.191l0.126,0c10.462,-107.08 -17.849,-200.046 -74.821,-282.538Zm-258.076,225.76c-24.814,0 -45.26,-22.513 -45.26,-49.906c0,-27.392 19.943,-49.906 45.26,-49.906c25.318,-0 45.638,22.514 45.235,49.906c0,27.393 -20.043,49.906 -45.235,49.906Zm167.052,0c-24.814,0 -45.26,-22.513 -45.26,-49.906c0,-27.392 20.043,-49.906 45.26,-49.906c25.192,-0 45.638,22.514 45.235,49.906c0,27.393 -20.043,49.906 -45.235,49.906Z" style="fill:#2482ff;"/><path d="M2943.05,1622.78c243.055,-0 440.09,-197.035 440.09,-440.09c-0,-243.055 -197.035,-440.091 -440.09,-440.091c-243.056,0 -440.091,197.036 -440.091,440.091c0,243.055 197.035,440.09 440.091,440.09Z" style="fill:#ff80ff;fill-rule:nonzero;"/><path d="M3022.31,1365.01l-0,-455.849l-100.328,0l-116.486,53.867l12.794,87.534l90.898,-35.687l-0,350.135l113.122,-0Z" style="fill:#fff;fill-rule:nonzero;"/></g></svg>