<?xml version="1.0" encoding="UTF-8" standalone="no"?><!DOCTYPE svg PUBLIC "-//W3C//DTD SVG 1.1//EN" "http://www.w3.org/Graphics/SVG/1.1/DTD/svg11.dtd"><svg width="100%" height="100%" viewBox="0 0 4000 4000" version="1.1" xmlns="http://www.w3.org/2000/svg" xmlns:xlink="http://www.w3.org/1999/xlink" xml:space="preserve" xmlns:serif="http://www.serif.com/" style="fill-rule:evenodd;clip-rule:evenodd;stroke-linejoin:round;stroke-miterlimit:2;"><path d="M4000,923.844c-0,-509.884 -413.96,-923.844 -923.844,-923.844l-2152.31,0c-509.884,0 -923.844,413.96 -923.844,923.844l0,2152.31c0,509.884 413.96,923.844 923.844,923.844l2152.31,-0c509.884,-0 923.844,-413.96 923.844,-923.844l-0,-2152.31Z" style="fill:#232126;"/><path d="M1226.28,2280.71c-6.637,-0.55 -13.346,-0.832 -20.119,-0.832l-248.331,0l-0,-383.774c-0,-564.404 445.63,-1023.4 993.324,-1023.4c183.876,-0 356.242,51.731 504.098,141.816l180.077,-185.521c-196.305,-134.029 -431.548,-212.145 -684.175,-212.145c-684.648,0 -1241.65,573.743 -1241.65,1279.25l-0,917.03l516.781,-532.423l-0.002,0.002Z" style="fill:#b9bbbe;fill-rule:nonzero;"/><path d="M2910.33,1629.62c22.263,84.998 34.146,174.328 34.146,266.485l-0,383.774l-248.331,0c-137.078,0 -248.33,114.621 -248.33,255.85l-0,383.775c-0,141.228 111.252,255.849 248.33,255.849l248.331,-0c137.203,-0 248.331,-114.621 248.331,-255.849l-0,-1023.4c-0,-165.343 -30.595,-323.459 -86.258,-468.642l-196.219,202.157l0,0.002Z" style="fill:#b9bbbe;fill-rule:nonzero;"/><path d="M858.624,3383.14l-175.596,-180.912l2458.35,-2532.78l175.595,180.913l-2458.35,2532.78l0.001,0.005Z" style="fill:#ed4245;fill-rule:nonzero;"/></svg>