<?xml version="1.0" encoding="UTF-8" standalone="no"?><!DOCTYPE svg PUBLIC "-//W3C//DTD SVG 1.1//EN" "http://www.w3.org/Graphics/SVG/1.1/DTD/svg11.dtd"><svg width="100%" height="100%" viewBox="0 0 4000 4000" version="1.1" xmlns="http://www.w3.org/2000/svg" xmlns:xlink="http://www.w3.org/1999/xlink" xml:space="preserve" xmlns:serif="http://www.serif.com/" style="fill-rule:evenodd;clip-rule:evenodd;stroke-linejoin:round;stroke-miterlimit:2;"><path d="M4000,923.844c-0,-509.884 -413.96,-923.844 -923.844,-923.844l-2152.31,0c-509.884,0 -923.844,413.96 -923.844,923.844l0,2152.31c0,509.884 413.96,923.844 923.844,923.844l2152.31,-0c509.884,-0 923.844,-413.96 923.844,-923.844l-0,-2152.31Z" style="fill:#232126;"/><path d="M1586.44,1873.44c0.692,3.803 1.383,7.607 1.383,11.756l827.118,-828.501l0,-24.896c0,-229.602 -185.341,-414.943 -414.942,-414.943c-229.601,0 -414.942,185.341 -414.942,414.943l-0,829.884c-0,4.149 0.691,7.953 1.383,11.757Z" style="fill:#b9bbbe;fill-rule:nonzero;"/><path d="M1961.78,2566.08l-105.188,105.174l-98.189,98.991c33.818,8.88 68.285,15.92 103.279,20.913l-0,591.985l276.628,-0l0,-591.985c453.67,-67.773 829.884,-457.819 829.884,-929.47l-235.133,-0c-0,414.942 -351.318,705.402 -733.065,705.402c-12.78,-0 -25.519,-0.346 -38.216,-1.01Z" style="fill:#b9bbbe;fill-rule:nonzero;"/><path d="M3244.83,930.832l-175.659,-175.659l-2313.99,2313.99l175.659,175.659l579.536,-578.153l170.127,-171.51l1564.33,-1564.33Z" style="fill:#ed4245;fill-rule:nonzero;"/></svg>