<?xml version="1.0" encoding="UTF-8" standalone="no"?><!DOCTYPE svg PUBLIC "-//W3C//DTD SVG 1.1//EN" "http://www.w3.org/Graphics/SVG/1.1/DTD/svg11.dtd"><svg width="100%" height="100%" viewBox="0 0 4000 4000" version="1.1" xmlns="http://www.w3.org/2000/svg" xmlns:xlink="http://www.w3.org/1999/xlink" xml:space="preserve" xmlns:serif="http://www.serif.com/" style="fill-rule:evenodd;clip-rule:evenodd;stroke-linejoin:round;stroke-miterlimit:2;"><path d="M4000,923.844c-0,-509.884 -413.96,-923.844 -923.844,-923.844l-2152.31,0c-509.884,0 -923.844,413.96 -923.844,923.844l0,2152.31c0,509.884 413.96,923.844 923.844,923.844l2152.31,-0c509.884,-0 923.844,-413.96 923.844,-923.844l-0,-2152.31Z" style="fill:#232126;"/><path d="M2000,616.858c763.377,0 1383.14,619.765 1383.14,1383.14c-0,763.377 -619.765,1383.14 -1383.14,1383.14c-763.377,-0 -1383.14,-619.765 -1383.14,-1383.14c0,-763.377 619.765,-1383.14 1383.14,-1383.14Zm0,646.658c406.477,-0 736.482,330.007 736.482,736.481c-0,406.477 -330.008,736.482 -736.482,736.482c-406.477,-0 -736.482,-330.008 -736.482,-736.482c0,-406.477 330.008,-736.481 736.482,-736.481Z" style="fill:#737f8d;"/></svg>