<?xml version="1.0" encoding="UTF-8" standalone="no"?><!DOCTYPE svg PUBLIC "-//W3C//DTD SVG 1.1//EN" "http://www.w3.org/Graphics/SVG/1.1/DTD/svg11.dtd"><svg width="100%" height="100%" viewBox="0 0 4000 4000" version="1.1" xmlns="http://www.w3.org/2000/svg" xmlns:xlink="http://www.w3.org/1999/xlink" xml:space="preserve" xmlns:serif="http://www.serif.com/" style="fill-rule:evenodd;clip-rule:evenodd;stroke-linejoin:round;stroke-miterlimit:2;"><path d="M4000,923.844c-0,-509.884 -413.96,-923.844 -923.844,-923.844l-2152.31,0c-509.884,0 -923.844,413.96 -923.844,923.844l0,2152.31c0,509.884 413.96,923.844 923.844,923.844l2152.31,-0c509.884,-0 923.844,-413.96 923.844,-923.844l-0,-2152.31Z" style="fill:#232126;"/><path d="M3383.22,2051.22l-1434.36,-1434.36l-205.034,204.744l205.034,205.033l-717.26,717.108l-0,0.289l-205.034,-205.032l-204.888,205.032l614.81,614.664l-819.701,819.555l204.888,204.889l819.701,-819.556l614.816,614.665l204.888,-204.889l-204.888,-204.888l717.107,-717.253l0.146,0l204.888,204.888l204.888,-204.888l-0.001,0Z" style="fill:#b9bbbe;fill-rule:nonzero;"/></svg>