<?xml version="1.0" encoding="UTF-8" standalone="no"?><!DOCTYPE svg PUBLIC "-//W3C//DTD SVG 1.1//EN" "http://www.w3.org/Graphics/SVG/1.1/DTD/svg11.dtd"><svg width="100%" height="100%" viewBox="0 0 4000 4000" version="1.1" xmlns="http://www.w3.org/2000/svg" xmlns:xlink="http://www.w3.org/1999/xlink" xml:space="preserve" xmlns:serif="http://www.serif.com/" style="fill-rule:evenodd;clip-rule:evenodd;stroke-linejoin:round;stroke-miterlimit:2;"><path d="M4000,923.844c-0,-509.884 -413.96,-923.844 -923.844,-923.844l-2152.31,0c-509.884,0 -923.844,413.96 -923.844,923.844l0,2152.31c0,509.884 413.96,923.844 923.844,923.844l2152.31,-0c509.884,-0 923.844,-413.96 923.844,-923.844l-0,-2152.31Z" style="fill:#232126;"/><path d="M2920.65,2012.96c-3.997,-110.817 -96.626,-197.665 -207.471,-194.511c-50,1.853 -97.636,21.826 -133.999,56.197c-156.848,-107.097 -341.732,-165.724 -531.637,-168.576l90.761,-432.231l293.918,60.512c6.86,67.844 62.144,120.568 130.236,124.206c68.092,3.639 128.674,-42.894 142.727,-109.622c14.052,-66.728 -22.629,-133.739 -86.419,-157.864c-63.777,-24.124 -135.617,1.835 -169.255,61.156l-337.141,-69.157c-11.48,-2.537 -23.513,-0.284 -33.292,6.242c-9.792,6.526 -16.501,16.758 -18.575,28.337l-103.736,479.777c-192.589,2.827 -380.25,61.382 -540.287,168.575c-52.198,-51.162 -127.973,-70.111 -198.104,-49.53c-70.132,20.567 -123.663,77.456 -139.953,148.702c-16.289,71.245 7.207,145.741 61.429,194.746c17.086,13.997 35.988,25.629 56.19,34.578l0,60.513c0,311.206 363.075,561.901 808.277,561.901c445.192,-0 808.266,-250.695 808.266,-561.901l0,-60.513c66.709,-35.989 108.231,-105.741 108.065,-181.537Z" style="fill:#fff;fill-rule:nonzero;"/><path d="M2000,616.858c763.881,0 1383.14,619.253 1383.14,1383.14c-0,763.881 -619.26,1383.14 -1383.14,1383.14c-763.888,-0 -1383.14,-619.26 -1383.14,-1383.14c0,-763.888 619.253,-1383.14 1383.14,-1383.14Zm920.646,1396.12c-3.983,-110.817 -96.626,-197.665 -207.471,-194.511c-50,1.853 -97.622,21.826 -133.985,56.183c-156.862,-107.097 -341.732,-165.711 -531.638,-168.563l90.762,-432.232l293.917,60.512c6.861,67.845 62.145,120.569 130.237,124.207c68.092,3.637 128.674,-42.896 142.726,-109.623c14.039,-66.728 -22.642,-133.738 -86.418,-157.863c-63.777,-24.125 -135.631,1.834 -169.255,61.156l-337.141,-69.158c-11.48,-2.536 -23.513,-0.283 -33.292,6.243c-9.793,6.524 -16.501,16.758 -18.576,28.336l-103.735,479.777c-192.603,2.827 -380.255,61.37 -540.29,168.563c-52.199,-51.148 -127.973,-70.097 -198.104,-49.516c-70.132,20.567 -123.664,77.456 -139.953,148.701c-16.291,71.246 7.206,145.728 61.429,194.733c17.086,14.011 35.987,25.643 56.19,34.578l0,60.526c0,311.193 363.075,561.888 808.266,561.888c445.206,-0 808.28,-250.695 808.28,-561.888l0,-60.526c66.709,-35.975 108.231,-105.727 108.051,-181.523Zm-1383.13,138.3c0,-76.377 61.925,-138.3 138.314,-138.3c76.384,-0 138.308,61.923 138.308,138.3c-0,76.391 -61.924,138.314 -138.308,138.314c-36.824,0.47 -72.278,-13.942 -98.32,-39.986c-26.042,-26.045 -40.463,-61.495 -39.994,-98.328Zm803.958,384.693c-98.314,72.822 -219.435,108.079 -341.47,99.406c-122.74,3.486 -243.059,-34.592 -341.463,-108.051c-11.84,-15.906 -9.986,-38.133 4.322,-51.867c13.151,-13.085 34.395,-13.085 47.546,-0c83.991,60.706 186.067,91.176 289.595,86.446c102.74,3.555 204.013,-25.159 289.602,-82.131c16.169,-13.831 40.014,-13.831 56.183,0c17.289,12.974 8.645,43.223 -4.315,56.197Zm-164.262,-384.693c-0,-76.377 61.937,-138.3 138.314,-138.3c76.391,-0 138.328,61.923 138.328,138.3c-0,76.391 -61.937,138.314 -138.328,138.314c-36.819,0.47 -72.269,-13.942 -98.314,-39.986c-26.044,-26.045 -40.456,-61.495 -40,-98.328Z" style="fill:#ff4300;fill-rule:nonzero;"/></svg>