<?xml version="1.0" encoding="UTF-8" standalone="no"?><!DOCTYPE svg PUBLIC "-//W3C//DTD SVG 1.1//EN" "http://www.w3.org/Graphics/SVG/1.1/DTD/svg11.dtd"><svg width="100%" height="100%" viewBox="0 0 4000 4000" version="1.1" xmlns="http://www.w3.org/2000/svg" xmlns:xlink="http://www.w3.org/1999/xlink" xml:space="preserve" xmlns:serif="http://www.serif.com/" style="fill-rule:evenodd;clip-rule:evenodd;stroke-linejoin:round;stroke-miterlimit:2;"><path d="M4000,923.844c-0,-509.884 -413.96,-923.844 -923.844,-923.844l-2152.31,0c-509.884,0 -923.844,413.96 -923.844,923.844l0,2152.31c0,509.884 413.96,923.844 923.844,923.844l2152.31,-0c509.884,-0 923.844,-413.96 923.844,-923.844l-0,-2152.31Z" style="fill:#232126;"/><path d="M3140.97,1233.41l-1082.51,-601.391c-36.444,-20.207 -80.469,-20.207 -116.913,-0l-1082.51,601.391c-38.128,21.169 -61.823,61.342 -61.823,105.003c0,83.474 13.712,2044.73 1202.79,2044.73c1189.07,-0 1202.79,-1961.26 1202.79,-2044.73c-0,-43.661 -23.695,-83.834 -61.823,-105.003l0.003,0Zm-1140.96,105.003c166.104,0 300.696,134.592 300.696,300.696c0,166.105 -134.592,300.696 -300.696,300.696c-166.107,-0 -300.698,-134.591 -300.698,-300.696c-0,-166.104 134.591,-300.696 300.698,-300.696Zm-451.046,1202.9c-0,-276.761 174.283,-451.044 451.046,-451.044c276.76,-0 451.044,174.283 451.044,451.044l-902.091,-0l0.001,-0Z" style="fill:#5165f6;"/></svg>