<?xml version="1.0" encoding="UTF-8" standalone="no"?><!DOCTYPE svg PUBLIC "-//W3C//DTD SVG 1.1//EN" "http://www.w3.org/Graphics/SVG/1.1/DTD/svg11.dtd"><svg width="100%" height="100%" viewBox="0 0 4000 4000" version="1.1" xmlns="http://www.w3.org/2000/svg" xmlns:xlink="http://www.w3.org/1999/xlink" xml:space="preserve" xmlns:serif="http://www.serif.com/" style="fill-rule:evenodd;clip-rule:evenodd;stroke-linejoin:round;stroke-miterlimit:2;"><path d="M4000,923.844c-0,-509.884 -413.96,-923.844 -923.844,-923.844l-2152.31,0c-509.884,0 -923.844,413.96 -923.844,923.844l0,2152.31c0,509.884 413.96,923.844 923.844,923.844l2152.31,-0c509.884,-0 923.844,-413.96 923.844,-923.844l-0,-2152.31Z" style="fill:#232126;"/><path d="M924.225,616.858c-169.753,0 -307.365,137.612 -307.365,307.365l0,2151.55c0,169.758 137.612,307.365 307.365,307.365l2151.55,-0c169.758,-0 307.365,-137.607 307.365,-307.365l-0,-2151.55c-0,-169.753 -137.607,-307.365 -307.365,-307.365l-2151.55,0Zm1828.74,832.065l-217.337,-217.339l-1304.04,1304.04l217.34,217.337l1304.04,-1304.04Z" style="fill:#b9bbbe;"/></svg>