<?xml version="1.0" encoding="UTF-8" standalone="no"?><!DOCTYPE svg PUBLIC "-//W3C//DTD SVG 1.1//EN" "http://www.w3.org/Graphics/SVG/1.1/DTD/svg11.dtd"><svg width="100%" height="100%" viewBox="0 0 4000 4000" version="1.1" xmlns="http://www.w3.org/2000/svg" xmlns:xlink="http://www.w3.org/1999/xlink" xml:space="preserve" xmlns:serif="http://www.serif.com/" style="fill-rule:evenodd;clip-rule:evenodd;stroke-linejoin:round;stroke-miterlimit:2;"><path d="M4000,923.844c-0,-509.884 -413.96,-923.844 -923.844,-923.844l-2152.31,0c-509.884,0 -923.844,413.96 -923.844,923.844l0,2152.31c0,509.884 413.96,923.844 923.844,923.844l2152.31,-0c509.884,-0 923.844,-413.96 923.844,-923.844l-0,-2152.31Z" style="fill:#232126;"/><path d="M2000,616.858c-763.888,0 -1383.14,619.253 -1383.14,1383.14c0,763.881 619.253,1383.14 1383.14,1383.14c763.881,-0 1383.14,-619.26 1383.14,-1383.14c-0,-366.831 -145.728,-718.638 -405.108,-978.029c-259.395,-259.388 -611.196,-405.112 -978.033,-405.112Zm631.058,1996.91c-25.367,38.534 -75.796,51.619 -116.696,30.249c-324.18,-198.813 -734.807,-242.05 -1214.58,-133.985c-30.112,6.944 -61.644,-2.697 -82.719,-25.297c-21.073,-22.601 -28.488,-54.731 -19.449,-84.289c9.037,-29.544 33.155,-52.034 63.267,-58.977c527.329,-121.025 976.85,-69.157 1344.24,155.603c19.35,11.66 33.071,30.734 37.967,52.795c4.91,22.047 0.554,45.145 -12.033,63.901Zm172.893,-380.364c-14.828,24.163 -38.687,41.411 -66.281,47.898c-27.593,6.487 -56.639,1.701 -80.678,-13.319c-371.719,-229.09 -937.942,-293.918 -1378.82,-159.933c-37.061,10.816 -77.074,1.037 -104.965,-25.657c-27.892,-26.695 -39.426,-66.239 -30.256,-103.736c9.169,-37.497 37.648,-67.262 74.709,-78.078c501.389,-151.274 1128.12,-77.788 1551.71,185.866c48.534,32.158 63.68,96.53 34.579,146.959Zm12.96,-389.008c-445.192,-263.662 -1179.99,-289.595 -1607.89,-159.926c-64.224,10.248 -126.105,-28.666 -144.693,-90.99c-18.588,-62.323 11.868,-128.776 71.214,-155.382c488.422,-146.959 1301.01,-121.025 1815.37,185.86c29.641,17.405 50.955,46.073 59.102,79.464c8.147,33.393 2.42,68.649 -15.879,97.751c-39.018,58.05 -115.851,76.791 -177.221,43.223Z" style="fill:#b9bbbe;fill-rule:nonzero;"/></svg>