<?xml version="1.0" encoding="UTF-8" standalone="no"?><!DOCTYPE svg PUBLIC "-//W3C//DTD SVG 1.1//EN" "http://www.w3.org/Graphics/SVG/1.1/DTD/svg11.dtd"><svg width="100%" height="100%" viewBox="0 0 4000 4000" version="1.1" xmlns="http://www.w3.org/2000/svg" xmlns:xlink="http://www.w3.org/1999/xlink" xml:space="preserve" xmlns:serif="http://www.serif.com/" style="fill-rule:evenodd;clip-rule:evenodd;stroke-linejoin:round;stroke-miterlimit:2;"><path d="M4000,923.844c-0,-509.884 -413.96,-923.844 -923.844,-923.844l-2152.31,0c-509.884,0 -923.844,413.96 -923.844,923.844l0,2152.31c0,509.884 413.96,923.844 923.844,923.844l2152.31,-0c509.884,-0 923.844,-413.96 923.844,-923.844l-0,-2152.31Z" style="fill:#232126;"/><path d="M3375.7,1527.86c-21.348,-51.707 -72.084,-85.531 -128.088,-85.531l-746.072,0l-377.611,-755.082c-46.993,-93.849 -201.004,-93.849 -247.997,-0l-377.474,755.082l-746.072,0c-56.004,0 -106.74,33.824 -128.088,85.531c-21.348,51.706 -9.565,111.592 30.081,151.099l635.451,635.452l-254.79,892.043c-15.942,55.865 4.574,115.75 51.429,149.99c47.132,34.379 110.483,35.627 158.585,3.327l754.946,-503.203l754.805,503.203c23.289,15.526 50.043,23.289 76.936,23.289c28.695,0 57.39,-8.872 81.788,-26.616c46.855,-34.24 67.371,-94.125 51.429,-149.99l-254.79,-892.043l635.451,-635.452c39.646,-39.507 51.429,-99.393 30.081,-151.099Z" style="fill:#faa81b;fill-rule:nonzero;"/></svg>