<?xml version="1.0" encoding="UTF-8" standalone="no"?><!DOCTYPE svg PUBLIC "-//W3C//DTD SVG 1.1//EN" "http://www.w3.org/Graphics/SVG/1.1/DTD/svg11.dtd"><svg width="100%" height="100%" viewBox="0 0 4000 4000" version="1.1" xmlns="http://www.w3.org/2000/svg" xmlns:xlink="http://www.w3.org/1999/xlink" xml:space="preserve" xmlns:serif="http://www.serif.com/" style="fill-rule:evenodd;clip-rule:evenodd;stroke-linejoin:round;stroke-miterlimit:2;"><path d="M4000,923.844c-0,-509.884 -413.96,-923.844 -923.844,-923.844l-2152.31,0c-509.884,0 -923.844,413.96 -923.844,923.844l0,2152.31c0,509.884 413.96,923.844 923.844,923.844l2152.31,-0c509.884,-0 923.844,-413.96 923.844,-923.844l-0,-2152.31Z" style="fill:#232126;"/><path d="M1055.71,2984.39c-9.608,0 -16.883,-8.686 -15.204,-18.144l88.143,-496.579l-496.344,-0c-9.593,-0 -16.865,-8.661 -15.212,-18.105l39.634,-226.479c1.293,-7.386 7.71,-12.778 15.211,-12.778l501.749,-0l136.402,-772.082l-496.344,-0c-9.593,-0 -16.865,-8.655 -15.212,-18.105l39.634,-226.478c1.294,-7.389 7.709,-12.78 15.211,-12.78l501.749,0l89.103,-501.98c1.308,-7.372 7.716,-12.743 15.203,-12.743l225.991,-0c9.613,-0 16.883,8.68 15.21,18.14l-88.145,496.583l772.082,0l89.098,-501.98c1.313,-7.372 7.722,-12.743 15.211,-12.743l225.989,-0c9.613,-0 16.883,8.68 15.21,18.14l-88.147,496.583l496.349,0c9.586,0 16.857,8.654 15.21,18.104l-39.634,226.479c-1.3,7.389 -7.708,12.78 -15.21,12.78l-501.752,-0l-46.377,262.508l-257.298,0l46.377,-262.508l-772.089,-0l-136.402,772.082l284.327,-0l0,257.362l-329.421,-0l-89.102,501.984c-1.309,7.373 -7.717,12.739 -15.204,12.739l-225.996,0Z" style="fill:#b9bbbe;fill-rule:nonzero;"/><path d="M2086.04,1949.8c-68.227,0 -123.534,55.307 -123.534,123.534l-0,810.858c-0,68.227 55.307,123.534 123.534,123.534l123.533,0c17.063,0 30.884,13.82 30.884,30.884l-0,262.303c-0,26.766 31.732,40.869 51.587,22.918l314.625,-284.243c22.7,-20.512 52.219,-31.862 82.82,-31.862l570.12,0c68.227,0 123.534,-55.307 123.534,-123.534l-0,-810.858c-0,-68.227 -55.307,-123.534 -123.534,-123.534l-1173.57,0l0.004,0Z" style="fill:#b9bbbe;fill-rule:nonzero;"/></svg>