<?xml version="1.0" encoding="UTF-8" standalone="no"?><!DOCTYPE svg PUBLIC "-//W3C//DTD SVG 1.1//EN" "http://www.w3.org/Graphics/SVG/1.1/DTD/svg11.dtd"><svg width="100%" height="100%" viewBox="0 0 4000 4000" version="1.1" xmlns="http://www.w3.org/2000/svg" xmlns:xlink="http://www.w3.org/1999/xlink" xml:space="preserve" xmlns:serif="http://www.serif.com/" style="fill-rule:evenodd;clip-rule:evenodd;stroke-linejoin:round;stroke-miterlimit:2;"><path d="M4000,923.844c-0,-509.884 -413.96,-923.844 -923.844,-923.844l-2152.31,0c-509.884,0 -923.844,413.96 -923.844,923.844l0,2152.31c0,509.884 413.96,923.844 923.844,923.844l2152.31,-0c509.884,-0 923.844,-413.96 923.844,-923.844l-0,-2152.31Z" style="fill:#232126;"/><path d="M2451.69,2676.73l-564.997,-563.41c-14.794,-14.924 -26.504,-32.608 -34.446,-52.048c-7.944,-19.44 -11.967,-40.269 -11.846,-61.273l-0,-957.638l319.209,-0l0,892.195l517.125,517.129l-225.045,225.045Z" style="fill:#ff4043;fill-rule:nonzero;"/><path d="M2457.83,893.488l648.679,648.693l-0,915.652l-648.679,648.679l-915.661,-0l-648.684,-648.679l0,-915.652l648.684,-648.693l915.661,0Zm58.078,-276.628l-1031.82,0c-36.622,0.51 -71.693,14.834 -98.198,40.108l-728.917,728.918c-25.275,26.505 -39.607,61.584 -40.117,98.206l0,1031.82c0.51,36.612 14.842,71.688 40.117,98.189l728.917,728.929c26.505,25.27 61.576,39.599 98.198,40.111l1031.82,-0c36.612,-0.512 71.688,-14.841 98.189,-40.111l728.929,-728.929c25.27,-26.501 39.599,-61.577 40.111,-98.189l-0,-1031.82c-0.512,-36.622 -14.841,-71.701 -40.111,-98.206l-728.929,-728.918c-26.501,-25.274 -61.577,-39.598 -98.189,-40.108Z" style="fill:#ff4043;fill-rule:nonzero;"/></svg>