<?xml version="1.0" encoding="UTF-8" standalone="no"?><!DOCTYPE svg PUBLIC "-//W3C//DTD SVG 1.1//EN" "http://www.w3.org/Graphics/SVG/1.1/DTD/svg11.dtd"><svg width="100%" height="100%" viewBox="0 0 4000 4000" version="1.1" xmlns="http://www.w3.org/2000/svg" xmlns:xlink="http://www.w3.org/1999/xlink" xml:space="preserve" xmlns:serif="http://www.serif.com/" style="fill-rule:evenodd;clip-rule:evenodd;stroke-linejoin:round;stroke-miterlimit:2;"><path d="M4000,923.844c-0,-509.884 -413.96,-923.844 -923.844,-923.844l-2152.31,0c-509.884,0 -923.844,413.96 -923.844,923.844l0,2152.31c0,509.884 413.96,923.844 923.844,923.844l2152.31,-0c509.884,-0 923.844,-413.96 923.844,-923.844l-0,-2152.31Z" style="fill:#232126;"/><path d="M980.791,1344.72l-0,1747.22c-0,160.452 130.604,291.203 291.203,291.203l1456.01,-0c160.599,-0 291.203,-130.751 291.203,-291.203l0,-1747.22l-2038.42,0Zm873.609,1456.16l-291.203,0l-0,-873.608l291.203,-0l-0,873.608Zm582.405,0l-291.203,0l0,-873.608l291.203,-0l0,873.608Zm0,-1892.96l0,-291.057l-873.608,-0l-0,291.057l-873.609,0l0,291.203l2620.83,0l-0,-291.203l-873.609,0Z" style="fill:#ed4245;fill-rule:nonzero;"/></svg>