<?xml version="1.0" encoding="UTF-8" standalone="no"?><!DOCTYPE svg PUBLIC "-//W3C//DTD SVG 1.1//EN" "http://www.w3.org/Graphics/SVG/1.1/DTD/svg11.dtd"><svg width="100%" height="100%" viewBox="0 0 4000 4000" version="1.1" xmlns="http://www.w3.org/2000/svg" xmlns:xlink="http://www.w3.org/1999/xlink" xml:space="preserve" xmlns:serif="http://www.serif.com/" style="fill-rule:evenodd;clip-rule:evenodd;stroke-linejoin:round;stroke-miterlimit:2;"><path d="M4000,923.844c-0,-509.884 -413.96,-923.844 -923.844,-923.844l-2152.31,0c-509.884,0 -923.844,413.96 -923.844,923.844l0,2152.31c0,509.884 413.96,923.844 923.844,923.844l2152.31,-0c509.884,-0 923.844,-413.96 923.844,-923.844l-0,-2152.31Z" style="fill:#232126;"/><g><path d="M2987.14,1901.2l-394.859,395.177l-394.859,0l-345.495,345.786l-0,-345.786l-444.214,0l0,-1481.93l1579.43,0l-0,1086.75Z" style="fill:#fff;fill-rule:nonzero;"/><path d="M1309,616.858l-493.571,493.979l-0,1778.33l592.286,-0l-0,493.975l493.576,-493.975l394.845,-0l888.433,-889.166l0,-1383.14l-1875.57,0Zm1678.14,1284.34l-394.859,395.191l-394.859,0l-345.495,345.785l-0,-345.785l-444.212,0l-0,-1481.94l1579.42,-0l-0,1086.75Z" style="fill:#a644ff;fill-rule:nonzero;"/><rect x="2493.58" y="1160.23" width="197.43" height="592.778" style="fill:#a644ff;fill-rule:nonzero;"/><rect x="1950.64" y="1160.23" width="197.43" height="592.778" style="fill:#a644ff;fill-rule:nonzero;"/></g></svg>