<?xml version="1.0" encoding="UTF-8" standalone="no"?><!DOCTYPE svg PUBLIC "-//W3C//DTD SVG 1.1//EN" "http://www.w3.org/Graphics/SVG/1.1/DTD/svg11.dtd"><svg width="100%" height="100%" viewBox="0 0 4000 4000" version="1.1" xmlns="http://www.w3.org/2000/svg" xmlns:xlink="http://www.w3.org/1999/xlink" xml:space="preserve" xmlns:serif="http://www.serif.com/" style="fill-rule:evenodd;clip-rule:evenodd;stroke-linejoin:round;stroke-miterlimit:2;"><path d="M4000,923.844c-0,-509.884 -413.96,-923.844 -923.844,-923.844l-2152.31,0c-509.884,0 -923.844,413.96 -923.844,923.844l0,2152.31c0,509.884 413.96,923.844 923.844,923.844l2152.31,-0c509.884,-0 923.844,-413.96 923.844,-923.844l-0,-2152.31Z" style="fill:#232126;"/><g><path d="M2651.23,1348.77c-167.13,-167.129 -396.501,-270.865 -651.229,-270.865c-509.457,0 -920.941,412.637 -920.941,922.094c-0,509.457 411.484,922.094 920.941,922.094c429.926,-0 788.39,-293.918 890.973,-691.571l-239.744,0c-94.515,268.56 -350.396,461.047 -651.229,461.047c-381.516,0 -691.57,-310.054 -691.57,-691.57c-0,-381.516 310.054,-691.57 691.57,-691.57c191.334,-0 361.922,79.53 486.405,205.165l-371.143,371.143l806.832,0l-0,-806.832l-270.865,270.865Z" style="fill:#ffa800;fill-rule:nonzero;"/><rect x="616.86" y="616.858" width="2766.28" height="2766.28" style="fill:none;"/></g></svg>