<?xml version="1.0" encoding="UTF-8" standalone="no"?><!DOCTYPE svg PUBLIC "-//W3C//DTD SVG 1.1//EN" "http://www.w3.org/Graphics/SVG/1.1/DTD/svg11.dtd"><svg width="100%" height="100%" viewBox="0 0 4000 4000" version="1.1" xmlns="http://www.w3.org/2000/svg" xmlns:xlink="http://www.w3.org/1999/xlink" xml:space="preserve" xmlns:serif="http://www.serif.com/" style="fill-rule:evenodd;clip-rule:evenodd;stroke-linejoin:round;stroke-miterlimit:2;"><path d="M4000,923.844c-0,-509.884 -413.96,-923.844 -923.844,-923.844l-2152.31,0c-509.884,0 -923.844,413.96 -923.844,923.844l0,2152.31c0,509.884 413.96,923.844 923.844,923.844l2152.31,-0c509.884,-0 923.844,-413.96 923.844,-923.844l-0,-2152.31Z" style="fill:#232126;"/><path d="M1982.97,700.692c-54.453,-22.422 -117.058,-10.046 -158.698,31.594l-625.034,685.164l-436.781,-0c-80.077,-0 -145.594,65.663 -145.594,145.594l0,873.556c0,80.077 65.517,145.594 145.594,145.594l436.781,0l625.034,685.456c41.64,41.639 104.245,54.161 158.698,31.594c54.452,-22.568 89.831,-75.709 89.831,-134.675l-0,-2329.49c-0,-58.674 -35.379,-112.107 -89.831,-134.383Zm381.018,279.963l0,291.188c401.402,0 727.969,326.712 727.969,727.976c0,401.402 -326.567,727.969 -727.969,727.969l0,291.188c561.992,-0 1019.16,-457.019 1019.16,-1019.16c-0,-561.853 -457.165,-1019.16 -1019.16,-1019.16Zm0,582.376c240.813,-0 436.782,196.122 436.782,436.788c-0,240.958 -195.969,436.781 -436.782,436.781l0,-291.187c80.223,-0 145.594,-65.372 145.594,-145.594c0,-80.222 -65.371,-145.594 -145.594,-145.594l0,-291.194Z" style="fill:#72767d;"/></svg>