<?xml version="1.0" encoding="UTF-8" standalone="no"?><!DOCTYPE svg PUBLIC "-//W3C//DTD SVG 1.1//EN" "http://www.w3.org/Graphics/SVG/1.1/DTD/svg11.dtd"><svg width="100%" height="100%" viewBox="0 0 4000 4000" version="1.1" xmlns="http://www.w3.org/2000/svg" xmlns:xlink="http://www.w3.org/1999/xlink" xml:space="preserve" xmlns:serif="http://www.serif.com/" style="fill-rule:evenodd;clip-rule:evenodd;stroke-linejoin:round;stroke-miterlimit:2;"><path d="M4000,923.844c-0,-509.884 -413.96,-923.844 -923.844,-923.844l-2152.31,0c-509.884,0 -923.844,413.96 -923.844,923.844l0,2152.31c0,509.884 413.96,923.844 923.844,923.844l2152.31,-0c509.884,-0 923.844,-413.96 923.844,-923.844l-0,-2152.31Z" style="fill:#232126;"/><g><path d="M2414.94,2068.93l0,0.277c0,76.211 -62.103,138.314 -138.314,138.314l0,276.628c228.772,0 414.942,-186.032 414.942,-414.942l0,-0.277l-276.628,0Zm553.257,0l-0,0.277c-0,381.332 -310.239,691.571 -691.571,691.571l0,276.628c533.893,-0 968.199,-434.168 968.199,-968.199l-0,-0.277l-276.628,0Zm-1204.3,-1203.88c39.558,-39.558 99.033,-51.314 150.762,-30.014c51.73,21.162 85.34,71.923 85.34,127.664l0,2213.02c0,56.017 -33.61,106.502 -85.34,127.94c-51.729,21.439 -111.204,9.544 -150.762,-30.014l-593.782,-651.183l-414.943,0c-76.072,0 -138.314,-62.241 -138.314,-138.314l0,-829.879c0,-75.934 62.242,-138.314 138.314,-138.314l414.943,0l593.782,-650.906Z" style="fill:#72767d;"/><path d="M3248.28,1100.74l-0,-138.314c-0,-154.912 -134.857,-276.628 -280.086,-276.628c-145.23,-0 -276.629,121.716 -276.629,276.628l0,138.314c-76.39,-0 -138.314,61.926 -138.314,138.314l0,414.942c0,76.388 61.924,138.314 138.314,138.314l553.257,0c76.391,0 138.314,-61.926 138.314,-138.314l-0,-418.4c-0,-74.479 -60.374,-134.856 -134.856,-134.856Zm-141.772,-0l-276.629,-0l0,-138.314c0,-79.037 64.552,-138.314 138.315,-138.314c73.762,-0 138.314,59.277 138.314,138.314l-0,138.314Z" style="fill:#72767d;fill-rule:nonzero;"/></g></svg>