<?xml version="1.0" encoding="UTF-8" standalone="no"?><!DOCTYPE svg PUBLIC "-//W3C//DTD SVG 1.1//EN" "http://www.w3.org/Graphics/SVG/1.1/DTD/svg11.dtd"><svg width="100%" height="100%" viewBox="0 0 4000 4000" version="1.1" xmlns="http://www.w3.org/2000/svg" xmlns:xlink="http://www.w3.org/1999/xlink" xml:space="preserve" xmlns:serif="http://www.serif.com/" style="fill-rule:evenodd;clip-rule:evenodd;stroke-linejoin:round;stroke-miterlimit:2;"><path d="M4000,923.844c-0,-509.884 -413.96,-923.844 -923.844,-923.844l-2152.31,0c-509.884,0 -923.844,413.96 -923.844,923.844l0,2152.31c0,509.884 413.96,923.844 923.844,923.844l2152.31,-0c509.884,-0 923.844,-413.96 923.844,-923.844l-0,-2152.31Z" style="fill:#232126;"/><g><g><path d="M3180.82,1183.96c-0,-14.336 -10.701,-25.957 -23.903,-25.957c-13.199,-0 -23.899,11.621 -23.899,25.957l-0,25.957c-0,14.336 10.7,25.957 23.899,25.957c13.202,0 23.903,-11.621 23.903,-25.957l-0,-25.957Z" style="fill:#5d97ff;fill-rule:nonzero;"/><path d="M3180.82,1391.62c-0,-14.337 -10.701,-25.958 -23.903,-25.958c-13.199,0 -23.899,11.621 -23.899,25.958l-0,25.957c-0,14.333 10.7,25.954 23.899,25.954c13.202,0 23.903,-11.621 23.903,-25.954l-0,-25.957Z" style="fill:#5d97ff;fill-rule:nonzero;"/><path d="M3264.5,1326.69c13.202,-0 23.903,-11.622 23.903,-25.958c-0,-14.336 -10.701,-25.958 -23.903,-25.958l-23.899,0c-13.203,0 -23.903,11.622 -23.903,25.958c-0,14.336 10.7,25.958 23.903,25.958l23.899,-0Z" style="fill:#5d97ff;fill-rule:nonzero;"/><path d="M3073.25,1326.75c13.202,-0 23.903,-11.621 23.903,-25.957c-0,-14.337 -10.701,-25.959 -23.903,-25.959l-23.903,0c-13.198,0 -23.899,11.622 -23.899,25.959c-0,14.336 10.701,25.957 23.899,25.957l23.903,-0Z" style="fill:#5d97ff;fill-rule:nonzero;"/></g><path d="M727.133,2727.63l-36.351,82.081c-1.884,4.196 -2.517,8.929 -1.81,13.536c0.709,4.604 2.72,8.856 5.758,12.161c3.037,3.308 6.948,5.503 11.187,6.281c4.24,0.778 8.597,0.098 12.466,-1.938l75.579,-39.543c2.808,-1.446 5.877,-2.197 8.985,-2.197c3.108,-0 6.176,0.751 8.985,2.197l75.578,39.543c3.871,2.017 8.223,2.682 12.456,1.896c4.233,-0.782 8.137,-2.975 11.173,-6.273c3.038,-3.297 5.056,-7.539 5.776,-12.134c0.724,-4.597 0.112,-9.325 -1.745,-13.529l-36.41,-82.081c-1.332,-3.052 -2.023,-6.383 -2.023,-9.759c0,-3.376 0.691,-6.708 2.023,-9.759l36.41,-82.145c1.857,-4.204 2.469,-8.929 1.745,-13.529c-0.72,-4.596 -2.738,-8.837 -5.776,-12.134c-3.036,-3.298 -6.94,-5.488 -11.173,-6.274c-4.233,-0.782 -8.585,-0.121 -12.456,1.9l-75.578,39.603c-2.801,1.481 -5.873,2.248 -8.985,2.248c-3.113,-0 -6.186,-0.767 -8.985,-2.248l-75.579,-39.478c-3.869,-2.036 -8.226,-2.715 -12.466,-1.934c-4.239,0.778 -8.15,2.973 -11.187,6.277c-3.038,3.304 -5.049,7.557 -5.758,12.161c-0.707,4.608 -0.074,9.34 1.81,13.536l36.351,82.017c1.361,3.044 2.068,6.379 2.068,9.759c0,3.38 -0.707,6.719 -2.068,9.759Z" style="fill:#ffcefb;fill-rule:nonzero;"/><path d="M750.856,1891.94l-2.701,-1.084l-109.404,-51.02c-4.359,-2.017 -8.308,-4.948 -11.622,-8.623c-3.313,-3.678 -5.926,-8.029 -7.688,-12.803c-1.762,-4.778 -2.639,-9.883 -2.58,-15.028c0.058,-5.144 1.051,-10.223 2.922,-14.952c3.858,-9.442 10.956,-16.879 19.784,-20.723c8.829,-3.849 18.691,-3.804 27.489,0.124l109.404,51.021c8.423,4.072 15.09,11.489 18.632,20.734c3.542,9.246 3.689,19.61 0.411,28.968c-3.278,9.359 -9.733,16.999 -18.037,21.347c-8.304,4.35 -17.826,5.08 -26.61,2.039Z" style="fill:#ffe17b;fill-rule:nonzero;"/><path d="M3321.71,2178.95c-7.126,-0.007 -14.094,-2.303 -20.02,-6.609c-5.926,-4.302 -10.547,-10.416 -13.272,-17.57c-2.728,-7.153 -3.442,-15.023 -2.053,-22.615c1.388,-7.595 4.82,-14.571 9.861,-20.047l25.368,-27.551c6.766,-7.339 15.941,-11.459 25.509,-11.456c9.563,0.008 18.732,4.14 25.494,11.489c6.758,7.35 10.554,17.313 10.547,27.703c-0.004,10.386 -3.809,20.346 -10.578,27.687l-25.369,27.488c-3.341,3.641 -7.314,6.53 -11.687,8.501c-4.376,1.972 -9.064,2.984 -13.8,2.98Z" style="fill:#00d0ac;fill-rule:nonzero;"/></g><g><path d="M1556.38,2457.21l-221.092,73.865c-29.311,9.793 -61.003,6.542 -88.103,-9.045c-27.104,-15.583 -47.396,-42.22 -56.415,-74.055l-76.511,-270.104c-9.018,-31.835 -6.021,-66.252 8.329,-95.688c14.349,-29.433 38.879,-51.47 68.189,-61.264l221.092,-73.87l144.529,510.22l-0.018,-0.059Z" style="fill:#5d97ff;fill-rule:nonzero;"/><path d="M1440.91,2397.25l-110.405,36.888c-14.664,4.898 -30.517,3.27 -44.076,-4.525c-13.559,-7.795 -23.711,-21.124 -28.22,-37.046l-59.503,-210.061c-4.513,-15.927 -3.012,-33.145 4.166,-47.867c7.178,-14.725 19.45,-25.75 34.111,-30.649l110.404,-36.887l93.523,330.147Z" style="fill:#b2d0ff;fill-rule:nonzero;"/><path d="M2443.55,1602.22l221.093,-73.868c14.517,-4.861 29.779,-6.565 44.905,-5.016c15.129,1.549 29.825,6.32 43.255,14.042c13.429,7.722 25.322,18.242 35.005,30.96c9.683,12.717 16.963,27.383 21.423,43.157l76.511,270.107c9.018,31.831 6.023,66.253 -8.326,95.685c-14.353,29.432 -38.878,51.47 -68.192,61.263l-221.145,73.889l-144.529,-510.219Z" style="fill:#5d97ff;fill-rule:nonzero;"/><path d="M2558.99,1662.15l110.52,-36.923c14.661,-4.899 30.518,-3.272 44.073,4.524c13.558,7.797 23.71,21.123 28.223,37.048l59.52,210.121c4.509,15.926 3.012,33.145 -4.166,47.867c-7.182,14.726 -19.45,25.75 -34.114,30.649l-110.516,36.925l-93.54,-330.211Z" style="fill:#b2d0ff;fill-rule:nonzero;"/><path d="M2286.79,1373.23l-880.646,288.917c-137.962,45.261 -216.016,203.417 -174.339,353.25l117.39,422.032c41.673,149.833 187.3,234.602 325.259,189.341l880.646,-288.92c137.959,-45.261 216.013,-203.413 174.34,-353.246l-117.391,-422.033c-41.676,-149.832 -187.3,-234.603 -325.258,-189.341l-0.001,0Z" style="fill:#5d97ff;fill-rule:nonzero;"/><path d="M1606.48,1840.43l503.582,-168.252c21.126,-7.059 43.965,-4.713 63.498,6.519c19.531,11.232 34.156,30.43 40.652,53.369l59.609,210.428c16.028,56.587 10.704,117.767 -14.805,170.087c-25.508,52.323 -69.108,91.496 -121.21,108.903l-254.093,84.895c-56.316,18.816 -117.205,12.565 -169.278,-17.377c-52.07,-29.943 -91.056,-81.126 -108.382,-142.283l-54.718,-193.179c-6.499,-22.939 -4.341,-47.745 6,-68.956c10.343,-21.214 28.019,-37.095 49.145,-44.154Z" style="fill:#b2d0ff;fill-rule:nonzero;"/><path d="M2399.91,1824.75c43.104,-0 78.047,-37.949 78.047,-84.763c-0,-46.808 -34.943,-84.758 -78.047,-84.758c-43.104,-0 -78.043,37.95 -78.043,84.758c-0,46.814 34.939,84.763 78.043,84.763Z" style="fill:#191c20;fill-rule:nonzero;"/><path d="M1435.64,2146.82c43.104,0 78.046,-37.949 78.046,-84.758c0,-46.813 -34.942,-84.762 -78.046,-84.762c-43.101,-0 -78.043,37.949 -78.043,84.762c-0,46.809 34.942,84.758 78.043,84.758Z" style="fill:#191c20;fill-rule:nonzero;"/><path d="M1830.86,2102.24l-69.15,23.106c-19.065,6.369 -29.766,28.315 -23.9,49.023l0.018,0.061c5.866,20.704 26.075,32.325 45.14,25.953l69.151,-23.102c19.061,-6.371 29.762,-28.318 23.899,-49.023l-0.017,-0.06c-5.867,-20.704 -26.075,-32.325 -45.141,-25.958Z" style="fill:#5d97ff;fill-rule:nonzero;"/><path d="M2095.47,2013.77l-96.765,32.33c-19.065,6.371 -29.766,28.318 -23.899,49.022l0.017,0.06c5.867,20.705 26.075,32.326 45.14,25.958l96.765,-32.333c19.065,-6.367 29.766,-28.315 23.899,-49.023l-0.017,-0.06c-5.867,-20.704 -26.075,-32.325 -45.14,-25.954Z" style="fill:#5d97ff;fill-rule:nonzero;"/></g></svg>