<?xml version="1.0" encoding="UTF-8" standalone="no"?><!DOCTYPE svg PUBLIC "-//W3C//DTD SVG 1.1//EN" "http://www.w3.org/Graphics/SVG/1.1/DTD/svg11.dtd"><svg width="100%" height="100%" viewBox="0 0 4000 4000" version="1.1" xmlns="http://www.w3.org/2000/svg" xmlns:xlink="http://www.w3.org/1999/xlink" xml:space="preserve" xmlns:serif="http://www.serif.com/" style="fill-rule:evenodd;clip-rule:evenodd;stroke-linejoin:round;stroke-miterlimit:2;"><path d="M4000,923.844c-0,-509.884 -413.96,-923.844 -923.844,-923.844l-2152.31,0c-509.884,0 -923.844,413.96 -923.844,923.844l0,2152.31c0,509.884 413.96,923.844 923.844,923.844l2152.31,-0c509.884,-0 923.844,-413.96 923.844,-923.844l-0,-2152.31Z" style="fill:#232126;"/><g><path d="M1990.89,3179.8c-18.176,0.07 -36.185,-3.466 -52.997,-10.403c-16.815,-6.94 -32.102,-17.144 -44.993,-30.035c-12.887,-12.887 -23.122,-28.206 -30.122,-45.076c-6.996,-16.872 -10.617,-34.964 -10.655,-53.246c-0.354,-132.264 -0.882,-330.096 -1.116,-462.004c-0.063,-36.894 14.437,-72.306 40.312,-98.458c25.876,-26.152 61.011,-40.9 97.689,-41.008c36.674,-0.018 71.855,14.615 97.807,40.676c25.956,26.064 40.561,61.427 40.606,98.318c0,131.848 0.767,329.506 1.117,461.707c0.049,18.281 -3.488,36.394 -10.4,53.301c-6.916,16.906 -17.075,32.277 -29.895,45.234c-12.821,12.957 -28.052,23.249 -44.829,30.28c-16.774,7.034 -34.764,10.676 -52.937,10.714l0.413,0Z" style="fill:#5d97ff;fill-rule:nonzero;"/><path d="M2519.47,3011.57c-52.85,-119.444 -131.425,-297.369 -184.572,-417.875c-28.481,-64.625 -7.807,-142.717 52.325,-179.402c16.823,-10.351 35.65,-16.972 55.222,-19.414c19.571,-2.446 39.437,-0.658 58.265,5.24c18.83,5.902 36.191,15.776 50.921,28.968c14.728,13.191 26.488,29.395 34.492,47.526c52.853,120.45 132.953,301.268 186.335,421.95c7.37,16.718 11.396,34.732 11.848,53.014c0.447,18.281 -2.69,36.475 -9.235,53.535c-6.545,17.06 -16.368,32.659 -28.909,45.899c-12.541,13.241 -27.551,23.864 -44.174,31.266c-33.526,14.955 -71.585,15.906 -105.808,2.648c-34.226,-13.258 -61.815,-39.644 -76.71,-73.355Z" style="fill:#5d97ff;fill-rule:nonzero;"/><path d="M1366.18,2643.55l-0,-7.797c11.743,-201.908 52.85,-382.904 213.641,-610.213c18.533,-26.232 46.668,-43.989 78.214,-49.354c31.546,-5.367 63.922,2.092 90,20.733c26.082,18.644 43.73,46.944 49.065,78.68c5.338,31.731 -2.078,64.298 -20.611,90.531c-128.49,181.528 -159.378,314.856 -169.247,483.682c-1.696,31.556 -15.566,61.199 -38.657,82.629c-23.091,21.426 -53.581,32.945 -84.987,32.106c-31.406,-0.837 -61.245,-13.968 -83.175,-36.598c-21.93,-22.633 -34.215,-52.975 -34.243,-84.577l-0,0.178Z" style="fill:url(#_Linear1);fill-rule:nonzero;"/><path d="M1600.48,1835.48l-221.092,68.415c-29.311,9.071 -61.004,6.059 -88.104,-8.377c-27.104,-14.433 -47.396,-39.106 -56.414,-68.592l-76.511,-250.175c-9.018,-29.486 -6.021,-61.364 8.329,-88.628c14.349,-27.261 38.878,-47.673 68.189,-56.743l221.092,-68.42l144.528,472.575l-0.017,-0.055Z" style="fill:#5d97ff;fill-rule:nonzero;"/><path d="M1485.02,1779.95l-110.404,34.166c-14.664,4.537 -30.518,3.029 -44.077,-4.191c-13.558,-7.22 -23.71,-19.565 -28.219,-34.313l-59.503,-194.562c-4.513,-14.752 -3.012,-30.699 4.166,-44.335c7.178,-13.639 19.45,-23.85 34.111,-28.388l110.404,-34.166l93.522,305.789Z" style="fill:#b2d0ff;fill-rule:nonzero;"/><path d="M2487.65,1043.58l221.092,-68.418c14.517,-4.502 29.78,-6.081 44.905,-4.646c15.129,1.434 29.825,5.854 43.255,13.005c13.429,7.153 25.322,16.897 35.005,28.676c9.683,11.779 16.963,25.363 21.423,39.974l76.511,250.178c9.018,29.482 6.023,61.364 -8.326,88.624c-14.353,27.261 -38.878,47.673 -68.192,56.744l-221.145,68.437l-144.528,-472.574Z" style="fill:#5d97ff;fill-rule:nonzero;"/><path d="M2603.09,1099.09l110.519,-34.199c14.661,-4.537 30.518,-3.03 44.073,4.191c13.559,7.222 23.71,19.564 28.223,34.315l59.52,194.618c4.509,14.751 3.012,30.699 -4.166,44.335c-7.182,13.639 -19.449,23.85 -34.113,28.387l-110.517,34.201l-93.539,-305.848Z" style="fill:#b2d0ff;fill-rule:nonzero;"/><path d="M2517.53,1587.52l-872.941,312.786l-30.125,416.458c-5.573,77.378 14.971,154.389 58.313,218.566c34.344,50.883 81.587,91.605 136.839,117.943c55.25,26.34 116.499,37.342 177.397,31.86l529.459,-47.728c63.672,-5.737 123.99,-31.263 172.586,-73.044c48.596,-41.778 83.06,-97.738 98.606,-160.113c16.108,-64.722 11.018,-132.942 -14.507,-194.523l-255.625,-622.205l-0.002,0Z" style="fill:#5d97ff;fill-rule:nonzero;"/><path d="M1625.39,2165.24l957.091,-419.176l-24.9,-60.843l-915.631,251.231l-16.56,228.788Z" style="fill:#2f7af4;fill-rule:nonzero;"/><path d="M2330.9,831.482l-880.645,267.6c-137.963,41.921 -216.016,188.409 -174.339,327.186l117.39,390.895c41.673,138.777 187.3,217.292 325.259,175.371l880.644,-267.603c137.96,-41.922 216.013,-188.405 174.34,-327.183l-117.39,-390.895c-41.676,-138.778 -187.3,-217.294 -325.259,-175.371l-0,-0Z" style="fill:#5d97ff;fill-rule:nonzero;"/><path d="M1650.58,1264.21l503.582,-155.838c21.126,-6.538 43.965,-4.366 63.498,6.037c19.531,10.404 34.156,28.185 40.652,49.432l59.608,194.902c16.028,52.412 10.705,109.079 -14.804,157.538c-25.508,48.463 -69.109,84.745 -121.21,100.868l-254.093,78.631c-56.316,17.428 -117.204,11.639 -169.278,-16.095c-52.069,-27.733 -91.056,-75.139 -108.382,-131.785l-54.717,-178.925c-6.5,-21.247 -4.341,-44.223 5.999,-63.869c10.344,-19.649 28.02,-34.358 49.145,-40.896Z" style="fill:#b2d0ff;fill-rule:nonzero;"/><path d="M2444.01,1249.68c43.103,-0 78.046,-35.149 78.046,-78.509c0,-43.355 -34.943,-78.504 -78.046,-78.504c-43.104,-0 -78.044,35.149 -78.044,78.504c0,43.36 34.94,78.509 78.044,78.509Z" style="fill:#191c20;fill-rule:nonzero;"/><path d="M1479.75,1548c43.105,0 78.047,-35.15 78.047,-78.505c-0,-43.359 -34.942,-78.508 -78.047,-78.508c-43.1,-0 -78.042,35.149 -78.042,78.508c-0,43.355 34.942,78.505 78.042,78.505Z" style="fill:#191c20;fill-rule:nonzero;"/><g><path d="M1874.97,1506.7l-69.151,21.401c-19.065,5.898 -29.765,26.226 -23.899,45.406l0.018,0.056c5.866,19.177 26.075,29.94 45.139,24.039l69.151,-21.398c19.062,-5.901 29.762,-26.229 23.899,-45.406l-0.017,-0.056c-5.867,-19.177 -26.075,-29.94 -45.14,-24.042Z" style="fill:#5d97ff;fill-rule:nonzero;"/><path d="M2139.57,1424.77l-96.765,29.945c-19.065,5.901 -29.766,26.228 -23.899,45.405l0.017,0.056c5.867,19.177 26.075,29.941 45.14,24.043l96.765,-29.948c19.065,-5.898 29.765,-26.226 23.899,-45.406l-0.018,-0.056c-5.866,-19.176 -26.074,-29.94 -45.139,-24.039Z" style="fill:#5d97ff;fill-rule:nonzero;"/><path d="M3180.82,948.654c0,-13.278 -10.701,-24.041 -23.903,-24.041c-13.198,-0 -23.899,10.763 -23.899,24.041l0,24.043c0,13.278 10.701,24.041 23.899,24.041c13.202,0 23.903,-10.763 23.903,-24.041l0,-24.043Z" style="fill:#5d97ff;fill-rule:nonzero;"/><path d="M3180.82,1140.99c0,-13.279 -10.701,-24.042 -23.903,-24.042c-13.198,-0 -23.899,10.763 -23.899,24.042l0,24.042c0,13.276 10.701,24.039 23.899,24.039c13.202,0 23.903,-10.763 23.903,-24.039l0,-24.042Z" style="fill:#5d97ff;fill-rule:nonzero;"/><path d="M3264.5,1080.86c13.202,0 23.903,-10.764 23.903,-24.042c-0,-13.278 -10.701,-24.043 -23.903,-24.043l-23.899,0c-13.202,0 -23.903,10.765 -23.903,24.043c-0,13.278 10.701,24.042 23.903,24.042l23.899,0Z" style="fill:#5d97ff;fill-rule:nonzero;"/><path d="M3073.25,1080.92c13.202,-0 23.903,-10.764 23.903,-24.042c0,-13.279 -10.701,-24.043 -23.903,-24.043l-23.902,-0c-13.199,-0 -23.9,10.764 -23.9,24.043c0,13.278 10.701,24.042 23.9,24.042l23.902,-0Z" style="fill:#5d97ff;fill-rule:nonzero;"/></g><path d="M727.136,2378.43l-36.351,76.025c-1.884,3.887 -2.517,8.27 -1.81,12.537c0.709,4.265 2.72,8.203 5.758,11.264c3.037,3.064 6.948,5.097 11.187,5.817c4.239,0.721 8.597,0.092 12.466,-1.794l75.579,-36.626c2.807,-1.339 5.877,-2.035 8.984,-2.035c3.108,0 6.177,0.696 8.985,2.035l75.579,36.626c3.871,1.868 8.223,2.484 12.456,1.756c4.233,-0.724 8.137,-2.756 11.173,-5.81c3.037,-3.054 5.055,-6.983 5.776,-11.24c0.724,-4.257 0.112,-8.637 -1.745,-12.53l-36.41,-76.025c-1.332,-2.826 -2.023,-5.912 -2.023,-9.039c-0,-3.127 0.691,-6.213 2.023,-9.039l36.41,-76.084c1.857,-3.894 2.469,-8.27 1.745,-12.531c-0.721,-4.257 -2.739,-8.185 -5.776,-11.239c-3.036,-3.054 -6.94,-5.083 -11.173,-5.811c-4.233,-0.724 -8.585,-0.112 -12.456,1.76l-75.579,36.681c-2.8,1.372 -5.872,2.082 -8.985,2.082c-3.112,-0 -6.185,-0.71 -8.984,-2.082l-75.579,-36.565c-3.869,-1.886 -8.227,-2.515 -12.466,-1.791c-4.239,0.72 -8.15,2.753 -11.187,5.814c-3.038,3.06 -5.049,6.999 -5.758,11.263c-0.707,4.268 -0.074,8.651 1.81,12.538l36.351,75.965c1.36,2.819 2.068,5.908 2.068,9.039c-0,3.131 -0.708,6.223 -2.068,9.039Z" style="fill:#ffcefb;fill-rule:nonzero;"/><path d="M750.859,1604.41l-2.701,-1.005l-109.404,-47.256c-4.359,-1.868 -8.308,-4.582 -11.622,-7.986c-3.313,-3.407 -5.926,-7.437 -7.688,-11.859c-1.762,-4.425 -2.639,-9.154 -2.58,-13.919c0.058,-4.764 1.051,-9.469 2.922,-13.848c3.858,-8.746 10.956,-15.634 19.784,-19.195c8.829,-3.564 18.691,-3.523 27.489,0.116l109.403,47.256c8.424,3.771 15.091,10.641 18.633,19.204c3.542,8.564 3.688,18.163 0.41,26.831c-3.278,8.668 -9.732,15.745 -18.036,19.771c-8.304,4.03 -17.826,4.706 -26.61,1.89Z" style="fill:#ffe17b;fill-rule:nonzero;"/><path d="M3321.71,1870.23c-7.126,-0.007 -14.094,-2.133 -20.02,-6.122c-5.926,-3.984 -10.547,-9.647 -13.272,-16.273c-2.728,-6.625 -3.442,-13.915 -2.053,-20.946c1.389,-7.036 4.82,-13.496 9.861,-18.569l25.368,-25.518c6.766,-6.798 15.941,-10.614 25.509,-10.61c9.563,0.007 18.732,3.834 25.494,10.641c6.758,6.807 10.554,16.035 10.547,25.659c-0.004,9.619 -3.809,18.844 -10.578,25.644l-25.369,25.46c-3.341,3.372 -7.314,6.048 -11.687,7.874c-4.376,1.826 -9.064,2.764 -13.8,2.76Z" style="fill:#00d0ac;fill-rule:nonzero;"/><path d="M3092.09,1608.79c-1.057,2.305 -2.113,4.666 -3.289,6.972c-91.553,180.111 -201.306,329.383 -439.494,472.575c-13.604,8.168 -28.674,13.562 -44.349,15.871c-15.675,2.312 -31.651,1.494 -47.01,-2.407c-15.364,-3.9 -29.812,-10.806 -42.517,-20.324c-12.709,-9.515 -23.43,-21.458 -31.549,-35.142c-8.123,-13.681 -13.482,-28.842 -15.78,-44.612c-2.295,-15.766 -1.484,-31.836 2.392,-47.287c3.879,-15.452 10.743,-29.986 20.205,-42.768c9.459,-12.786 21.332,-23.567 34.936,-31.739c190.207,-114.245 271.776,-223.764 348.294,-374.396c14.377,-27.86 38.924,-49.034 68.486,-59.077c29.563,-10.046 61.844,-8.182 90.07,5.202c28.226,13.383 50.201,37.241 61.315,66.573c11.113,29.331 10.501,61.85 -1.71,90.737l-0,-0.178Z" style="fill:#5d97ff;fill-rule:nonzero;"/><path d="M2936.06,2348.13l-107.701,159.851c-1.864,2.865 -2.931,6.181 -3.081,9.602c-0.154,3.421 0.612,6.821 2.214,9.84c1.606,3.022 3.988,5.552 6.899,7.329c2.91,1.777 6.244,2.728 9.647,2.763l192.03,0c19.543,-0.025 38.79,-4.824 56.085,-13.982c17.295,-9.155 32.12,-22.398 43.202,-38.591c11.086,-16.193 18.095,-34.849 20.429,-54.368c2.337,-19.52 -0.073,-39.315 -7.024,-57.691c-7.889,-20.74 -21.276,-38.906 -38.714,-52.525c-17.435,-13.617 -38.248,-22.167 -60.175,-24.72c-21.929,-2.551 -44.132,0.993 -64.197,10.249c-20.066,9.253 -37.228,23.864 -49.614,42.243Z" style="fill:#5d97ff;fill-rule:nonzero;"/></g><defs><linearGradient id="_Linear1" x1="0" y1="0" x2="1" y2="0" gradientUnits="userSpaceOnUse" gradientTransform="matrix(-577.593,230.131,-230.131,-577.593,1870.83,2253.27)"><stop offset="0" style="stop-color:#5d97ff;stop-opacity:1"/><stop offset="1" style="stop-color:#3b7ffb;stop-opacity:1"/></linearGradient></defs></svg>