<?xml version="1.0" encoding="UTF-8" standalone="no"?><!DOCTYPE svg PUBLIC "-//W3C//DTD SVG 1.1//EN" "http://www.w3.org/Graphics/SVG/1.1/DTD/svg11.dtd"><svg width="100%" height="100%" viewBox="0 0 4000 4000" version="1.1" xmlns="http://www.w3.org/2000/svg" xmlns:xlink="http://www.w3.org/1999/xlink" xml:space="preserve" xmlns:serif="http://www.serif.com/" style="fill-rule:evenodd;clip-rule:evenodd;stroke-linejoin:round;stroke-miterlimit:2;"><path d="M4000,923.844c-0,-509.884 -413.96,-923.844 -923.844,-923.844l-2152.31,0c-509.884,0 -923.844,413.96 -923.844,923.844l0,2152.31c0,509.884 413.96,923.844 923.844,923.844l2152.31,-0c509.884,-0 923.844,-413.96 923.844,-923.844l-0,-2152.31Z" style="fill:#232126;"/><g><path d="M1862.3,3377.4c-212.948,-20.277 -428.668,-96.765 -614.229,-217.79c-155.404,-101.37 -190.486,-142.837 -190.486,-226.088c-0,-166.793 183.716,-459.217 497.602,-792.194c178.48,-189.228 426.823,-411.001 453.601,-405.164c52.31,11.674 469.895,418.981 626.231,610.353c247.417,303.489 361.277,551.68 303.42,662.276c-44.011,84.164 -316.352,248.495 -516.368,311.469c-164.954,52.214 -381.595,74.33 -559.771,57.138Zm-1014.28,-617.116c-128.939,-197.817 -194.178,-392.882 -225.876,-674.559c-10.462,-93.071 -6.769,-146.212 23.696,-337.279c37.851,-238.057 173.253,-513.285 336.35,-682.845c69.547,-72.186 75.702,-74.029 160.328,-45.462c102.782,34.711 212.335,110.276 382.51,264.17l99.396,89.696l-54.159,66.656c-252.032,309.016 -517.604,747.043 -617.617,1017.97c-54.469,147.139 -76.317,295.204 -52.929,356.629c15.693,41.467 1.231,26.114 -51.699,-54.979Zm2264.9,33.485c12.614,-62.061 -3.389,-176.323 -41.232,-291.511c-81.55,-249.422 -355.122,-713.881 -606.231,-1029.34l-79.088,-99.219l85.547,-78.636c111.703,-102.595 189.256,-164.03 272.95,-215.944c66.169,-41.161 160.333,-77.407 200.956,-77.407c24.924,-0 112.934,91.23 184.027,191.063c110.167,154.201 191.095,341.578 232.022,536.324c26.46,125.949 28.617,395.33 4.316,520.656c-20.014,102.906 -62.477,236.531 -103.708,327.459c-31.079,67.885 -108.024,199.656 -141.869,242.658c-17.234,21.508 -17.234,21.508 -7.69,-26.1Zm-1227.84,-1839.37c-116.018,-58.977 -294.813,-121.948 -393.594,-139.15c-34.773,-5.837 -93.55,-9.216 -131.401,-7.372c-81.549,3.993 -77.856,-0 52.93,-61.742c108.629,-51.298 199.409,-81.402 322.506,-107.205c138.48,-29.181 398.511,-29.488 534.833,-0.614c147.097,31.025 320.35,95.531 417.903,155.431l28.921,17.816l-66.474,-3.379c-132.325,-6.758 -324.955,46.691 -532.067,147.443c-62.462,30.411 -116.626,54.677 -120.624,53.756c-3.693,-0.614 -54.772,-25.496 -112.933,-54.984Z" style="fill:#fff;fill-rule:nonzero;"/></g></svg>