<?xml version="1.0" encoding="UTF-8" standalone="no"?><!DOCTYPE svg PUBLIC "-//W3C//DTD SVG 1.1//EN" "http://www.w3.org/Graphics/SVG/1.1/DTD/svg11.dtd"><svg width="100%" height="100%" viewBox="0 0 4000 4000" version="1.1" xmlns="http://www.w3.org/2000/svg" xmlns:xlink="http://www.w3.org/1999/xlink" xml:space="preserve" xmlns:serif="http://www.serif.com/" style="fill-rule:evenodd;clip-rule:evenodd;stroke-linejoin:round;stroke-miterlimit:2;"><path d="M4000,923.844c-0,-509.884 -413.96,-923.844 -923.844,-923.844l-2152.31,0c-509.884,0 -923.844,413.96 -923.844,923.844l0,2152.31c0,509.884 413.96,923.844 923.844,923.844l2152.31,-0c509.884,-0 923.844,-413.96 923.844,-923.844l-0,-2152.31Z" style="fill:#232126;"/><g><path d="M1862.36,3376.13c-212.849,-20.267 -428.47,-96.72 -613.945,-217.689c-155.332,-101.323 -190.398,-142.771 -190.398,-225.984c-0,-166.716 183.631,-459.005 497.372,-791.829c178.398,-189.14 426.627,-410.811 453.392,-404.976c52.286,11.668 469.678,418.788 625.942,610.071c247.303,303.349 361.11,551.425 303.28,661.97c-43.991,84.125 -316.206,248.381 -516.13,311.326c-164.877,52.19 -381.419,74.296 -559.513,57.111Zm-1013.81,-616.831c-128.879,-197.726 -194.088,-392.7 -225.771,-674.247c-10.457,-93.029 -6.766,-146.145 23.685,-337.124c37.834,-237.947 173.173,-513.048 336.195,-682.529c69.515,-72.153 75.667,-73.996 160.254,-45.442c102.734,34.695 212.237,110.226 382.333,264.049l99.351,89.654l-54.135,66.625c-251.916,308.874 -517.365,746.699 -617.332,1017.5c-54.443,147.071 -76.281,295.068 -52.904,356.465c15.686,41.448 1.23,26.102 -51.676,-54.954Zm2263.86,33.47c12.608,-62.033 -3.387,-176.241 -41.212,-291.376c-81.513,-249.307 -354.958,-713.552 -605.952,-1028.87l-79.051,-99.173l85.508,-78.599c111.65,-102.549 189.167,-163.955 272.823,-215.845c66.139,-41.142 160.26,-77.372 200.864,-77.372c24.912,0 112.881,91.189 183.942,190.975c110.116,154.13 191.006,341.42 231.915,536.077c26.447,125.891 28.604,395.147 4.313,520.416c-20.005,102.858 -62.448,236.422 -103.66,327.307c-31.065,67.854 -107.973,199.565 -141.803,242.547c-17.226,21.498 -17.226,21.498 -7.687,-26.088Zm-1227.28,-1838.52c-115.965,-58.95 -294.677,-121.891 -393.412,-139.085c-34.758,-5.834 -93.507,-9.212 -131.341,-7.369c-81.511,3.991 -77.82,0 52.906,-61.713c108.579,-51.275 199.317,-81.365 322.357,-107.156c138.416,-29.168 398.327,-29.475 534.586,-0.613c147.03,31.011 320.202,95.486 417.71,155.358l28.908,17.808l-66.443,-3.377c-132.264,-6.755 -324.805,46.669 -531.822,147.375c-62.433,30.397 -116.572,54.652 -120.568,53.731c-3.691,-0.614 -54.747,-25.484 -112.881,-54.959Z" style="fill:#b9bbbe;fill-rule:nonzero;"/></g></svg>