<?xml version="1.0" encoding="UTF-8" standalone="no"?><!DOCTYPE svg PUBLIC "-//W3C//DTD SVG 1.1//EN" "http://www.w3.org/Graphics/SVG/1.1/DTD/svg11.dtd"><svg width="100%" height="100%" viewBox="0 0 4000 4000" version="1.1" xmlns="http://www.w3.org/2000/svg" xmlns:xlink="http://www.w3.org/1999/xlink" xml:space="preserve" xmlns:serif="http://www.serif.com/" style="fill-rule:evenodd;clip-rule:evenodd;stroke-linejoin:round;stroke-miterlimit:2;"><path d="M4000,923.844c-0,-509.884 -413.96,-923.844 -923.844,-923.844l-2152.31,0c-509.884,0 -923.844,413.96 -923.844,923.844l0,2152.31c0,509.884 413.96,923.844 923.844,923.844l2152.31,-0c509.884,-0 923.844,-413.96 923.844,-923.844l-0,-2152.31Z" style="fill:#232126;"/><g><path d="M3257.81,1156.75l-0,128.545l94.48,-0c17.045,-0 30.851,13.812 30.851,30.85l-0,581.025c-0,17.032 -13.806,30.851 -30.851,30.851l-709.567,-0c-17.032,-0 -30.85,-13.819 -30.85,-30.851l-0,-581.025c-0,-17.038 13.818,-30.85 30.85,-30.85l97.694,-0l0,-128.545c0,-143.97 122.118,-257.089 257.09,-257.089c134.972,-0 260.303,113.119 260.303,257.089Zm-388.848,128.545l257.089,-0l0,-128.545c0,-73.454 -59.979,-128.545 -128.544,-128.545c-68.553,0 -128.545,55.091 -128.545,128.545l0,128.545Z" style="fill:#72767d;"/><path d="M983.213,1591.8l1412.71,-311.082l-0,606.17c-0,136.296 110.497,246.806 246.805,246.806l416.485,0l0,845.657l-244.235,0l0,-145.05l-821.85,-180.759l-301.63,398.398c-23.447,30.851 -59.716,48.397 -97.694,48.397c-9.77,0 -19.783,-1.208 -29.553,-3.509l-488.469,-120.986c-54.465,-13.664 -92.565,-61.933 -92.565,-117.464l-0,-1266.58Zm561.496,1250.73l-317.262,-78.644l0,-279.109l503.973,111.063l-186.711,246.69Z" style="fill:#72767d;"/><rect x="616.86" y="1591.22" width="244.235" height="904.195" style="fill:#72767d;fill-rule:nonzero;"/></g></svg>