<?xml version="1.0" encoding="UTF-8" standalone="no"?><!DOCTYPE svg PUBLIC "-//W3C//DTD SVG 1.1//EN" "http://www.w3.org/Graphics/SVG/1.1/DTD/svg11.dtd"><svg width="100%" height="100%" viewBox="0 0 4000 4000" version="1.1" xmlns="http://www.w3.org/2000/svg" xmlns:xlink="http://www.w3.org/1999/xlink" xml:space="preserve" xmlns:serif="http://www.serif.com/" style="fill-rule:evenodd;clip-rule:evenodd;stroke-linejoin:round;stroke-miterlimit:2;"><path d="M4000,923.844c-0,-509.884 -413.96,-923.844 -923.844,-923.844l-2152.31,0c-509.884,0 -923.844,413.96 -923.844,923.844l0,2152.31c0,509.884 413.96,923.844 923.844,923.844l2152.31,-0c509.884,-0 923.844,-413.96 923.844,-923.844l-0,-2152.31Z" style="fill:#232126;"/><path d="M2922.09,1538.95l0,768.41c0,254.653 206.55,461.048 461.048,461.048l-0,153.682l-2766.28,-0l0,-153.682c254.498,-0 461.048,-206.395 461.048,-461.048l-0,-768.41c-0,-509.303 412.79,-922.092 922.091,-922.092c509.303,0 922.091,412.791 922.091,922.092l0.004,-0Zm-922.112,1844.19c-226.835,-0 -422.929,-124.483 -529.431,-307.365l1058.86,0c-106.502,182.882 -302.6,307.365 -529.435,307.365l0.002,-0Z" style="fill:#b9bbbe;"/></svg>