<?xml version="1.0" encoding="UTF-8" standalone="no"?><!DOCTYPE svg PUBLIC "-//W3C//DTD SVG 1.1//EN" "http://www.w3.org/Graphics/SVG/1.1/DTD/svg11.dtd"><svg width="100%" height="100%" viewBox="0 0 4000 4000" version="1.1" xmlns="http://www.w3.org/2000/svg" xmlns:xlink="http://www.w3.org/1999/xlink" xml:space="preserve" xmlns:serif="http://www.serif.com/" style="fill-rule:evenodd;clip-rule:evenodd;stroke-miterlimit:10;"><path d="M4000,923.844c-0,-509.884 -413.96,-923.844 -923.844,-923.844l-2152.31,0c-509.884,0 -923.844,413.96 -923.844,923.844l0,2152.31c0,509.884 413.96,923.844 923.844,923.844l2152.31,-0c509.884,-0 923.844,-413.96 923.844,-923.844l-0,-2152.31Z" style="fill:#232126;"/><g><clipPath id="_clip1"><rect x="908.209" y="539.732" width="2227.34" height="2843.41"/></clipPath><g clip-path="url(#_clip1)"><path d="M1602.73,3108.37l665.353,-659.723" style="fill:none;fill-rule:nonzero;stroke:#005dd2;stroke-width:47.39px;"/><g><rect x="2449.36" y="2525.78" width="52.087" height="325.04" style="fill:#2577ea;fill-rule:nonzero;"/><rect x="2045.84" y="2498.92" width="52.091" height="325.04" style="fill:#2577ea;fill-rule:nonzero;"/><rect x="1021.41" y="1131.28" width="630.626" height="1329.77" style="fill:#2577ea;fill-rule:nonzero;"/><rect x="1021.41" y="1131.28" width="630.626" height="132.906" style="fill:#2577ea;fill-rule:nonzero;"/></g><path d="M2884.13,2461.05l-1232.09,-0l0,-1196.86l616.044,-362.227l616.043,362.227l0,1196.86Z" style="fill:#5d97ff;fill-rule:nonzero;"/><path d="M1652.04,1071.36l0,192.821l616.044,-362.227l616.043,362.227l0,-192.821l-616.043,-362.226l-616.044,362.226Z" style="fill:#2577ea;fill-rule:nonzero;"/><rect x="1583.98" y="1051.39" width="136.82" height="1409.65" style="fill:#005dd2;fill-rule:nonzero;"/><rect x="2815.37" y="1124.39" width="136.82" height="1336.66" style="fill:#005dd2;fill-rule:nonzero;"/><rect x="2645.22" y="1094.09" width="40.978" height="526.808" style="fill:#005dd2;fill-rule:nonzero;"/><path d="M3064.01,1178.11l-795.923,-468.968l-795.922,468.968" style="fill:none;fill-rule:nonzero;stroke:#ff7100;stroke-width:94.78px;stroke-linecap:round;stroke-linejoin:round;stroke-miterlimit:4;"/><path d="M2268.08,1051.39c28.732,-0 57.181,5.611 83.724,16.51c26.543,10.905 50.66,26.88 70.976,47.026c20.312,20.141 36.429,44.058 47.423,70.374c10.995,26.321 16.653,54.527 16.653,83.013l0,394.594l-437.548,0l-0,-394.594c-0,-28.486 5.658,-56.692 16.653,-83.013c10.994,-26.316 27.107,-50.233 47.423,-70.374c41.026,-40.68 96.676,-63.536 154.696,-63.536Z" style="fill:#fff;fill-rule:nonzero;"/><path d="M2268.08,1090.65c24.718,-0 49.191,4.829 72.028,14.208c22.837,9.378 43.585,23.121 61.062,40.452c17.478,17.33 31.339,37.902 40.798,60.545c9.459,22.643 14.326,46.907 14.326,71.417l0,343.631l-376.429,0l-0,-340.19c-0.46,-24.795 4.066,-49.433 13.317,-72.474c9.255,-23.041 23.045,-44.021 40.566,-61.716c17.524,-17.696 38.428,-31.751 61.493,-41.343c23.065,-9.597 47.826,-14.535 72.839,-14.53Z" style="fill:#191c20;fill-rule:nonzero;"/><path d="M2079.87,1280.71l-0,340.19l-188.911,0l-0,-526.808c24.775,-0.095 49.328,4.668 72.241,14.004c22.918,9.341 43.746,23.07 61.299,40.41c17.549,17.34 31.477,37.94 40.979,60.631c9.501,22.685 14.392,47.011 14.392,71.573Z" style="fill:#0046b1;fill-rule:nonzero;"/><path d="M2456.3,1280.71l0,340.185l188.215,0l-0,-526.808c-49.916,0 -97.79,19.658 -133.086,54.66c-35.301,34.998 -55.129,82.464 -55.129,131.963Z" style="fill:#0046b1;fill-rule:nonzero;"/><path d="M2268.08,2374.28c160.335,-0 290.312,-128.873 290.312,-287.853c-0,-158.975 -129.977,-287.852 -290.312,-287.852c-160.335,-0 -290.312,128.877 -290.312,287.852c-0,158.98 129.977,287.853 290.312,287.853Z" style="fill:#ffd90e;fill-rule:nonzero;"/><path d="M2268.08,2328.83c135.019,0 244.476,-108.528 244.476,-242.405c0,-133.872 -109.457,-242.401 -244.476,-242.401c-135.015,0 -244.472,108.529 -244.472,242.401c0,133.877 109.457,242.405 244.472,242.405Z" style="fill:#fff;fill-rule:nonzero;"/><path d="M1602.74,3383.14c153.047,-0 277.114,-123.02 277.114,-274.768c0,-151.753 -124.067,-274.768 -277.114,-274.768c-153.046,-0 -277.114,123.015 -277.114,274.768c-0,151.748 124.068,274.768 277.114,274.768Z" style="fill:#005dd2;fill-rule:nonzero;"/><path d="M2407.69,1973.49l-139.598,112.935l-139.601,-112.935" style="fill:none;fill-rule:nonzero;stroke:#31363d;stroke-width:35.54px;stroke-linecap:round;stroke-linejoin:round;stroke-miterlimit:4;"/><path d="M3064.01,1178.11l-952.883,-561.247" style="fill:none;fill-rule:nonzero;stroke:#5d97ff;stroke-width:94.78px;stroke-linecap:round;stroke-linejoin:round;stroke-miterlimit:4;"/><path d="M2277.12,709.138l-572.288,-0c-11.53,-0.241 -22.875,2.871 -32.643,8.952l-745.224,441.42c-4.64,2.653 -8.666,6.246 -11.815,10.544c-3.15,4.293 -5.353,9.198 -6.466,14.392c-1.114,5.199 -1.113,10.568 0.003,15.762c1.115,5.194 3.32,10.099 6.471,14.393c3.902,4.393 8.714,7.9 14.109,10.274c5.394,2.379 11.242,3.573 17.145,3.502l570.205,-0l-36.116,-49.584l796.619,-469.655Z" style="fill:#a4c8ff;fill-rule:nonzero;"/><path d="M1671.49,1065.16l-61.811,36.5l-589.652,0l61.813,-36.5l589.65,0Z" style="fill:#5d97ff;fill-opacity:0.5;fill-rule:nonzero;"/><path d="M1905.54,927.438l-61.811,36.498l-589.65,-0l61.812,-36.498l589.649,-0Z" style="fill:#5d97ff;fill-opacity:0.5;fill-rule:nonzero;"/><path d="M2138.21,790.399l-61.811,36.498l-590.344,-0l62.503,-36.498l589.652,-0Z" style="fill:#5d97ff;fill-opacity:0.5;fill-rule:nonzero;"/><path d="M1472.17,1178.11l952.883,-561.247" style="fill:none;fill-rule:nonzero;stroke:#5d97ff;stroke-width:94.78px;stroke-linecap:round;stroke-linejoin:round;stroke-miterlimit:4;"/><path d="M2283.37,1393.65c2.426,-1.55 4.407,-3.696 5.744,-6.232c1.341,-2.535 1.99,-5.369 1.895,-8.231c0.043,-2.754 -0.635,-5.474 -1.976,-7.891c-1.341,-2.417 -3.293,-4.44 -5.663,-5.881l-194.47,-128.778c-2.967,12.44 -4.825,25.117 -5.554,37.879l161.823,104.671l-161.823,106.054l-0,41.32l200.024,-132.911Z" style="fill:#ff7100;fill-rule:nonzero;"/><path d="M2505.62,1548.6c-3.208,0.687 -6.521,0.687 -9.724,-0l-231.97,-154.947c-2.431,-1.55 -4.407,-3.696 -5.749,-6.232c-1.341,-2.535 -1.99,-5.369 -1.895,-8.231c-0.043,-2.754 0.64,-5.474 1.976,-7.891c1.341,-2.417 3.294,-4.44 5.668,-5.881l233.358,-152.189c2.958,-1.691 6.308,-2.582 9.725,-2.582c3.412,-0 6.767,0.891 9.72,2.582l233.363,152.876c2.369,1.441 4.322,3.469 5.663,5.881c1.341,2.417 2.019,5.137 1.976,7.896c0.095,2.857 -0.554,5.696 -1.895,8.231c-1.337,2.536 -3.318,4.682 -5.744,6.227l-233.363,152.194c-3.469,1.597 -7.289,2.308 -11.109,2.066Zm-201.413,-169.41l201.413,131.531l201.409,-131.531l-201.409,-130.84l-201.413,130.84Z" style="fill:#ff7100;fill-rule:nonzero;"/><path d="M2185.43,1301.37l-96.538,-64.735c-2.967,12.44 -4.825,25.117 -5.554,37.879l105.566,68.863l-3.474,-42.007Z" style="fill:#d63900;fill-rule:nonzero;"/><path d="M2185.44,1416.37l-105.566,68.867l-0,41.315l105.566,-68.863l0,-41.319Z" style="fill:#d63900;fill-rule:nonzero;"/><path d="M2608.6,1434.64l-22.586,22.396l164.027,162.643l22.59,-22.401l-164.031,-162.638Z" style="fill:#283035;fill-rule:nonzero;"/><path d="M2711.15,1434.88l-22.591,22.396l164.027,162.638l22.591,-22.396l-164.027,-162.638Z" style="fill:#283035;fill-rule:nonzero;"/><path d="M2895.94,1406.74c42.476,-42.315 68.763,-97.975 74.341,-157.416c5.578,-59.447 -9.905,-118.959 -43.779,-168.311l-106.263,-154.947l-125.707,-0l-0,197.641c-0,17.169 -6.881,33.632 -19.122,45.774c-12.246,12.136 -28.851,18.956 -46.168,18.956l-202.104,-0l-0,44.765c-0,65.815 26.32,128.939 73.189,175.542c46.869,46.604 110.466,72.877 176.841,73.057l36.808,-0c68.199,-0.569 133.484,-27.496 181.964,-75.061Z" style="fill:#ffd90e;fill-rule:nonzero;"/><path d="M2980.67,1585.78l-396.575,0c-19.562,0 -35.419,15.568 -35.419,34.775c0,19.207 15.857,34.775 35.419,34.775l396.575,-0c19.563,-0 35.42,-15.568 35.42,-34.775c-0,-19.207 -15.857,-34.775 -35.42,-34.775Z" style="fill:#ff9b00;fill-rule:nonzero;"/><path d="M2820.24,853.754c33.339,-0 65.313,13.132 88.89,36.507c23.571,23.376 36.817,55.079 36.817,88.137l-0,32.366l-251.419,0l-0,-33.054c0.185,-32.939 13.511,-64.466 37.069,-87.693c23.552,-23.226 55.422,-36.264 88.643,-36.263Z" style="fill:#ffd90e;fill-rule:nonzero;"/><path d="M2982.75,964.625c6.052,5.934 10.829,13.018 14.051,20.829c3.223,7.81 4.824,16.184 4.701,24.622l-120.153,-0c-4.464,-0.088 -8.81,-1.469 -12.492,-3.972c-3.687,-2.502 -6.554,-6.018 -8.25,-10.115c-1.697,-4.097 -2.152,-8.597 -1.304,-12.945c0.849,-4.349 2.957,-8.357 6.071,-11.532l24.311,-24.103l0,-34.432c-0.005,-4.449 1.73,-8.727 4.834,-11.937c3.109,-3.209 7.35,-5.101 11.833,-5.279c4.578,0.246 8.957,1.935 12.502,4.82l63.896,64.044Z" style="fill:#ff9b00;fill-rule:nonzero;"/><path d="M2820.23,853.753l-36.813,0c-45.305,-0.056 -88.747,-17.881 -120.844,-49.582l-18.061,-19.971l0,12.396c0,40.181 16.099,78.715 44.755,107.128c28.653,28.411 67.517,44.373 108.04,44.373l22.226,0l0.697,-94.344Z" style="fill:#ffd90e;fill-rule:nonzero;"/><path d="M2641.74,910.222l100.704,-0l-0,99.853l-100.704,-99.853Z" style="fill:#ffd90e;fill-rule:nonzero;"/><path d="M2485.47,1284.84c18.781,39.78 52.295,70.853 93.581,86.767c41.286,15.914 87.17,15.449 128.115,-1.308c40.945,-16.752 73.81,-48.504 91.761,-88.657c17.952,-40.154 19.61,-85.62 4.635,-126.954l-318.092,130.152Z" style="fill:#ff9b00;fill-rule:nonzero;"/><path d="M2316.01,1078.25l78.482,81.26c10.303,10.084 18.492,22.093 24.094,35.329c5.606,13.241 8.511,27.444 8.549,41.798l56.257,0l-0,-39.248c-0.067,-21.937 -7.464,-43.23 -21.037,-60.551c-13.572,-17.321 -32.552,-29.69 -53.972,-35.173l-92.373,-23.415Z" style="fill:#ffd90e;fill-rule:nonzero;"/><path d="M2463.94,1213.23l-6.251,6.194c-2.564,2.441 -5.796,4.076 -9.293,4.701c-3.498,0.626 -7.104,0.218 -10.364,-1.18c-3.266,-1.398 -6.038,-3.72 -7.976,-6.672c-1.938,-2.953 -2.957,-6.407 -2.924,-9.933l-0,-181.111l36.808,36.5c20.022,20.216 31.239,47.414 31.239,75.748c0,28.335 -11.217,55.537 -31.239,75.753Z" style="fill:#ffd90e;fill-rule:nonzero;"/><path d="M2827.87,948.098c8.824,-0 15.976,-7.091 15.976,-15.839c-0,-8.747 -7.152,-15.839 -15.976,-15.839c-8.824,0 -15.975,7.092 -15.975,15.839c0,8.748 7.151,15.839 15.975,15.839Z" style="fill:#191c20;fill-rule:nonzero;"/><rect x="1849.98" y="1094.09" width="40.978" height="526.808" style="fill:#005dd2;fill-rule:nonzero;"/><rect x="1935.41" y="2670.4" width="272.948" height="573.639" style="fill:#5d97ff;fill-rule:nonzero;"/><rect x="2338.93" y="2812.26" width="272.948" height="574.326" style="fill:#5d97ff;fill-rule:nonzero;"/><path d="M946.407,2445.21l2145.38,0l-0,68.863c-0,16.439 -6.587,32.201 -18.307,43.826c-11.724,11.625 -27.624,18.151 -44.201,18.151l-2020.37,-0c-16.578,-0 -32.477,-6.526 -44.199,-18.151c-11.722,-11.625 -18.308,-27.387 -18.308,-43.826l0,-68.863Z" style="fill:#a4c8ff;fill-rule:nonzero;"/><path d="M1602.74,1835.07l-336.149,0l147.238,-385.642c1.37,-4.132 4.024,-7.729 7.578,-10.283c3.554,-2.55 7.829,-3.924 12.217,-3.924c4.388,-0 8.663,1.374 12.217,3.924c3.554,2.554 6.208,6.151 7.578,10.283l149.321,385.642Z" style="fill:#00b594;fill-rule:nonzero;"/><path d="M1602.74,2101.57l-359.069,-0c-6.564,-0 -13.01,-1.74 -18.667,-5.043c-5.658,-3.298 -10.323,-8.042 -13.51,-13.729c-3.188,-5.691 -4.784,-12.122 -4.621,-18.629c0.162,-6.506 2.076,-12.852 5.544,-18.378l188.214,-314.021l69.455,0l179.187,298.871c4.398,7.587 6.597,16.236 6.35,24.984c-0.242,8.748 -2.919,17.259 -7.734,24.595c-4.81,7.336 -11.573,13.213 -19.539,16.98c-7.971,3.768 -16.833,5.28 -25.61,4.37Z" style="fill:#00b594;fill-rule:nonzero;"/><rect x="1375.63" y="2208.32" width="116.681" height="236.894" style="fill:#5a2c3d;fill-rule:nonzero;"/><path d="M1654.82,2297.84l-442.412,-0l170.16,-462.77l102.79,0l169.462,462.77Z" style="fill:#00b594;fill-rule:nonzero;"/><path d="M1529.11,1835.07l-190.994,0l239.612,81.26l-48.618,-81.26Z" style="fill:#00987a;fill-rule:nonzero;"/><path d="M1582.59,2101.57l-295.867,-0l338.234,114.314l-42.367,-114.314Z" style="fill:#00987a;fill-rule:nonzero;"/><path d="M1498.55,1567.88l-45.144,-118.447c-1.369,-4.132 -4.019,-7.729 -7.573,-10.283c-3.554,-2.55 -7.833,-3.924 -12.222,-3.924c-4.388,-0 -8.663,1.374 -12.217,3.924c-3.554,2.554 -6.203,6.151 -7.573,10.283l-45.146,118.447l129.875,0Z" style="fill:#a4c8ff;fill-rule:nonzero;"/><path d="M1255.47,1973.49l75.703,-0c49.701,0.194 97.337,19.728 132.652,54.403c35.178,-34.381 82.573,-53.669 131.963,-53.716l15.279,-0l47.921,80.572c2.909,4.995 4.45,10.663 4.468,16.431c0.019,5.767 -1.488,11.444 -4.369,16.458c-2.876,5.014 -7.033,9.189 -12.042,12.118c-5.014,2.929 -10.715,4.507 -16.534,4.578l-408.378,-0c-4.378,-0.024 -8.674,-1.185 -12.458,-3.37c-3.784,-2.184 -6.923,-5.317 -9.103,-9.08c-2.18,-3.767 -3.324,-8.032 -3.319,-12.373c0.006,-4.341 1.161,-8.606 3.35,-12.364l54.867,-93.657Z" style="fill:#a4c8ff;fill-rule:nonzero;"/></g></g></svg>