<?xml version="1.0" encoding="UTF-8" standalone="no"?><!DOCTYPE svg PUBLIC "-//W3C//DTD SVG 1.1//EN" "http://www.w3.org/Graphics/SVG/1.1/DTD/svg11.dtd"><svg width="100%" height="100%" viewBox="0 0 4000 4000" version="1.1" xmlns="http://www.w3.org/2000/svg" xmlns:xlink="http://www.w3.org/1999/xlink" xml:space="preserve" xmlns:serif="http://www.serif.com/" style="fill-rule:evenodd;clip-rule:evenodd;stroke-linejoin:round;stroke-miterlimit:2;"><path d="M4000,923.844c-0,-509.884 -413.96,-923.844 -923.844,-923.844l-2152.31,0c-509.884,0 -923.844,413.96 -923.844,923.844l0,2152.31c0,509.884 413.96,923.844 923.844,923.844l2152.31,-0c509.884,-0 923.844,-413.96 923.844,-923.844l-0,-2152.31Z" style="fill:#232126;"/><path d="M2000,616.849l-922.097,922.097l-0,922.098l922.097,922.097l922.097,-922.097l0,-922.098l-922.097,-922.097Zm691.575,1749.68l-691.575,691.574l-691.575,-691.574l0,-733.069l691.575,-691.575l691.575,691.575l-0,733.069Z" style="fill:#ff73fa;fill-rule:nonzero;"/><path d="M1538.95,1730.28l0,539.429l461.05,461.049l461.05,-461.049l-0,-539.429l-461.05,-461.05l-461.05,461.05Z" style="fill:#ff73fa;fill-rule:nonzero;"/></svg>