<?xml version="1.0" encoding="UTF-8" standalone="no"?><!DOCTYPE svg PUBLIC "-//W3C//DTD SVG 1.1//EN" "http://www.w3.org/Graphics/SVG/1.1/DTD/svg11.dtd"><svg width="100%" height="100%" viewBox="0 0 4000 4000" version="1.1" xmlns="http://www.w3.org/2000/svg" xmlns:xlink="http://www.w3.org/1999/xlink" xml:space="preserve" xmlns:serif="http://www.serif.com/" style="fill-rule:evenodd;clip-rule:evenodd;stroke-linejoin:round;stroke-miterlimit:2;"><path d="M4000,923.844c-0,-509.884 -413.96,-923.844 -923.844,-923.844l-2152.31,0c-509.884,0 -923.844,413.96 -923.844,923.844l0,2152.31c0,509.884 413.96,923.844 923.844,923.844l2152.31,-0c509.884,-0 923.844,-413.96 923.844,-923.844l-0,-2152.31Z" style="fill:#232126;"/><path d="M2000,742.601c347.168,-0 628.699,281.406 628.699,628.699l0,251.48l-1257.4,-0l0,-251.48c0,-347.293 281.406,-628.699 628.7,-628.699l-0.001,-0Zm-188.61,440.09c-0,104.238 84.497,188.609 188.61,188.609c104.112,0 188.609,-84.371 188.609,-188.609c0,-104.239 -84.497,-188.61 -188.609,-188.61c-104.113,-0 -188.61,84.371 -188.61,188.61Zm1571.75,2074.71l-754.44,0l251.479,-377.22l0,-880.181l-251.479,-0l-0,754.44c-0,69.535 -56.332,125.74 -125.74,125.74l-251.48,-0l125.74,377.22l-754.44,-0l125.74,-377.22l-251.48,-0c-69.408,-0 -125.74,-56.205 -125.74,-125.74l0,-754.44l-251.479,-0l-0,880.181l251.479,377.22l-754.44,0l251.48,-377.22l-0,-880.181c-0,-138.817 112.789,-251.48 251.48,-251.48l1760.36,0c138.691,0 251.48,112.663 251.48,251.48l0,880.181l251.48,377.22l0.004,0Zm-1257.4,-1005.92c-0,69.534 56.332,125.74 125.74,125.74c69.408,0 125.74,-56.206 125.74,-125.74c0,-69.534 -56.332,-125.74 -125.74,-125.74c-69.408,0 -125.74,56.206 -125.74,125.74Z" style="fill:#b9bbbe;fill-rule:nonzero;"/></svg>