<?xml version="1.0" encoding="UTF-8" standalone="no"?><!DOCTYPE svg PUBLIC "-//W3C//DTD SVG 1.1//EN" "http://www.w3.org/Graphics/SVG/1.1/DTD/svg11.dtd"><svg width="100%" height="100%" viewBox="0 0 4000 4000" version="1.1" xmlns="http://www.w3.org/2000/svg" xmlns:xlink="http://www.w3.org/1999/xlink" xml:space="preserve" xmlns:serif="http://www.serif.com/" style="fill-rule:evenodd;clip-rule:evenodd;stroke-linejoin:round;stroke-miterlimit:2;"><path d="M4000,923.844c-0,-509.884 -413.96,-923.844 -923.844,-923.844l-2152.31,0c-509.884,0 -923.844,413.96 -923.844,923.844l0,2152.31c0,509.884 413.96,923.844 923.844,923.844l2152.31,-0c509.884,-0 923.844,-413.96 923.844,-923.844l-0,-2152.31Z" style="fill:#232126;"/><g><path d="M3383.14,1520.08c-0,-176.584 -143.363,-319.947 -319.947,-319.947l-2126.39,0c-176.584,0 -319.947,143.363 -319.947,319.947l0,959.838c0,176.584 143.363,319.947 319.947,319.947l2126.39,-0c176.584,-0 319.947,-143.363 319.947,-319.947l-0,-959.838Z" style="fill:#5865f2;"/><text x="1019.92px" y="2338.39px" style="font-family:'UniSansHeavyCAPS', 'Uni Sans';font-weight:900;font-size:1049.33px;fill:#fff;">BO<tspan x="2366.2px " y="2338.39px ">T</tspan></text></g></svg>