<?xml version="1.0" encoding="UTF-8" standalone="no"?><!DOCTYPE svg PUBLIC "-//W3C//DTD SVG 1.1//EN" "http://www.w3.org/Graphics/SVG/1.1/DTD/svg11.dtd"><svg width="100%" height="100%" viewBox="0 0 4000 4000" version="1.1" xmlns="http://www.w3.org/2000/svg" xmlns:xlink="http://www.w3.org/1999/xlink" xml:space="preserve" xmlns:serif="http://www.serif.com/" style="fill-rule:evenodd;clip-rule:evenodd;stroke-linejoin:round;stroke-miterlimit:2;"><path d="M4000,923.844c-0,-509.884 -413.96,-923.844 -923.844,-923.844l-2152.31,0c-509.884,0 -923.844,413.96 -923.844,923.844l0,2152.31c0,509.884 413.96,923.844 923.844,923.844l2152.31,-0c509.884,-0 923.844,-413.96 923.844,-923.844l-0,-2152.31Z" style="fill:#232126;"/><path d="M1927.21,908.155l0,-291.159c802.868,0 1455.79,653.069 1455.79,1455.79l-291.159,0c0,-642.15 -522.484,-1164.63 -1164.63,-1164.63l0.002,0.002Zm873.478,1164.63l-291.159,0c-0,-321.002 -261.17,-582.317 -582.317,-582.317l-0,-291.159c481.721,0 873.477,391.755 873.477,873.478l-0.001,-0.002Zm-873.478,-291.158l0,291.158l291.158,0c0,-160.719 -130.293,-291.158 -291.158,-291.158Zm436.738,727.896l582.317,-0c80.506,-0 145.579,65.074 145.579,145.579l0,582.318c0,80.505 -65.073,145.579 -145.579,145.579l-727.895,-0c-884.397,-0 -1601.37,-716.977 -1601.37,-1601.37l-0,-727.896c-0,-80.505 65.219,-145.579 145.579,-145.579l582.318,0c80.505,0 145.579,65.074 145.579,145.579l-0,582.317c-0,80.506 -65.074,145.58 -145.579,145.58l-145.58,0c9.171,573.291 436.738,1019.05 1019.05,1019.05l0,-145.58c0,-80.506 65.075,-145.579 145.58,-145.579l0.002,0.002Z" style="fill:#b9bbbe;"/></svg>