<?xml version="1.0" encoding="UTF-8" standalone="no"?><!DOCTYPE svg PUBLIC "-//W3C//DTD SVG 1.1//EN" "http://www.w3.org/Graphics/SVG/1.1/DTD/svg11.dtd"><svg width="100%" height="100%" viewBox="0 0 4000 4000" version="1.1" xmlns="http://www.w3.org/2000/svg" xmlns:xlink="http://www.w3.org/1999/xlink" xml:space="preserve" xmlns:serif="http://www.serif.com/" style="fill-rule:evenodd;clip-rule:evenodd;stroke-linejoin:round;stroke-miterlimit:2;"><path d="M4000,923.844c-0,-509.884 -413.96,-923.844 -923.844,-923.844l-2152.31,0c-509.884,0 -923.844,413.96 -923.844,923.844l0,2152.31c0,509.884 413.96,923.844 923.844,923.844l2152.31,-0c509.884,-0 923.844,-413.96 923.844,-923.844l-0,-2152.31Z" style="fill:#232126;"/><g><path d="M2271.35,1513.59c-0,-76.753 -62.219,-138.974 -138.974,-138.974l-450.275,-0l84.176,-474.265c7.56,-42.57 -25.183,-81.631 -68.412,-81.631l-136.802,-0c-33.691,-0 -62.528,24.169 -68.417,57.343l-88.493,498.553l-497.513,-0c-33.755,-0 -62.628,24.259 -68.447,57.509l-24.321,138.974c-7.44,42.52 25.28,81.465 68.448,81.465l473.192,-0l-147.312,833.844l-497.513,0c-33.755,0 -62.629,24.265 -68.448,57.507l-24.32,138.974c-7.441,42.527 25.279,81.467 68.448,81.467l473.192,0l-84.182,474.263c-7.556,42.567 25.182,81.633 68.417,81.633l136.802,0c33.691,0 62.53,-24.168 68.418,-57.341l88.493,-498.555l833.843,0l-84.177,474.263c-7.56,42.567 25.182,81.633 68.417,81.633l136.792,0c33.701,0 62.539,-24.168 68.417,-57.341l88.499,-498.555l497.513,0c33.757,0 62.635,-24.265 68.445,-57.507l24.32,-138.974c7.449,-42.526 -25.279,-81.467 -68.445,-81.467l-473.192,0l45.277,-256.296c14.801,-83.787 -49.641,-160.626 -134.735,-160.626c-66.388,0 -123.186,47.654 -134.735,113.028l-53.7,303.894l-833.837,0l147.313,-833.844l498.854,-0c76.755,-0 138.974,-62.221 138.974,-138.974Z" style="fill:#72767d;fill-rule:nonzero;"/><path d="M3247.64,1096.67l0,-138.974c0,-155.651 -135.5,-277.948 -281.422,-277.948c-145.923,-0 -277.948,122.297 -277.948,277.948l-0,138.974c-76.756,-0 -138.974,62.221 -138.974,138.974l-0,416.922c-0,76.753 62.218,138.974 138.974,138.974l555.896,-0c76.755,-0 138.974,-62.221 138.974,-138.974l-0,-420.396c-0,-74.835 -60.662,-135.5 -135.5,-135.5Zm-142.448,-0l-277.948,-0l-0,-138.974c-0,-79.414 64.859,-138.974 138.974,-138.974c74.115,-0 138.974,59.56 138.974,138.974l-0,138.974Z" style="fill:#72767d;fill-rule:nonzero;"/></g></svg>