<?xml version="1.0" encoding="UTF-8" standalone="no"?><!DOCTYPE svg PUBLIC "-//W3C//DTD SVG 1.1//EN" "http://www.w3.org/Graphics/SVG/1.1/DTD/svg11.dtd"><svg width="100%" height="100%" viewBox="0 0 4000 4000" version="1.1" xmlns="http://www.w3.org/2000/svg" xmlns:xlink="http://www.w3.org/1999/xlink" xml:space="preserve" xmlns:serif="http://www.serif.com/" style="fill-rule:evenodd;clip-rule:evenodd;stroke-linejoin:round;stroke-miterlimit:2;"><path d="M4000,923.844c-0,-509.884 -413.96,-923.844 -923.844,-923.844l-2152.31,0c-509.884,0 -923.844,413.96 -923.844,923.844l0,2152.31c0,509.884 413.96,923.844 923.844,923.844l2152.31,-0c509.884,-0 923.844,-413.96 923.844,-923.844l-0,-2152.31Z" style="fill:#232126;"/><path d="M3001.93,711.313l-0,345.467l-439.916,-439.916l-188.897,188.898l439.915,439.916l-345.467,0l0,267.183l801.549,-0l-0,-801.549l-267.183,0l-0.001,0.001Zm-2003.87,1736.69l400.773,-0l-0,-801.548c-0,-147.218 119.831,-267.183 267.183,-267.183l534.364,0l-0,-400.773c-0,-147.218 -119.832,-267.183 -267.183,-267.183l-935.138,0c-147.351,0 -267.183,119.965 -267.183,267.183l0,1202.33c0,147.218 119.832,267.183 267.183,267.183l0.001,-0.004Zm935.138,-801.548l935.139,-0c147.351,-0 267.182,119.965 267.182,267.186l0,1202.32c0,147.351 -119.831,267.183 -267.182,267.183l-935.139,-0c-147.351,-0 -267.182,-119.832 -267.182,-267.183l0,-1202.32c0,-147.221 119.831,-267.186 267.182,-267.186Zm534.365,534.368l0,-133.591l-534.365,0l0,133.591l534.365,0Zm-534.365,801.548l935.139,0l-0,-133.591l-935.139,-0l0,133.591Zm0,-400.773l935.139,-0l-0,-133.592l-935.139,0l0,133.592Z" style="fill:#b9bbbe;"/></svg>