<?xml version="1.0" encoding="UTF-8" standalone="no"?><!DOCTYPE svg PUBLIC "-//W3C//DTD SVG 1.1//EN" "http://www.w3.org/Graphics/SVG/1.1/DTD/svg11.dtd"><svg width="100%" height="100%" viewBox="0 0 4000 4000" version="1.1" xmlns="http://www.w3.org/2000/svg" xmlns:xlink="http://www.w3.org/1999/xlink" xml:space="preserve" xmlns:serif="http://www.serif.com/" style="fill-rule:evenodd;clip-rule:evenodd;stroke-linejoin:round;stroke-miterlimit:2;"><path d="M4000,923.844c-0,-509.884 -413.96,-923.844 -923.844,-923.844l-2152.31,0c-509.884,0 -923.844,413.96 -923.844,923.844l0,2152.31c0,509.884 413.96,923.844 923.844,923.844l2152.31,-0c509.884,-0 923.844,-413.96 923.844,-923.844l-0,-2152.31Z" style="fill:#232126;"/><circle cx="2000" cy="2000" r="1106.51" style="fill:#fff;"/><path d="M2000,616.858c-763.494,0 -1383.14,619.648 -1383.14,1383.14c0,763.494 619.648,1383.14 1383.14,1383.14c763.494,-0 1383.14,-619.648 1383.14,-1383.14c-0,-763.494 -619.648,-1383.14 -1383.14,-1383.14Zm-276.628,2074.71l-691.571,-691.571l195.023,-195.023l496.548,495.165l1049.8,-1049.81l195.023,196.406l-1244.83,1244.83Z" style="fill:#3ba55d;"/></svg>