<?xml version="1.0" encoding="UTF-8" standalone="no"?><!DOCTYPE svg PUBLIC "-//W3C//DTD SVG 1.1//EN" "http://www.w3.org/Graphics/SVG/1.1/DTD/svg11.dtd"><svg width="100%" height="100%" viewBox="0 0 4000 4000" version="1.1" xmlns="http://www.w3.org/2000/svg" xmlns:xlink="http://www.w3.org/1999/xlink" xml:space="preserve" xmlns:serif="http://www.serif.com/" style="fill-rule:evenodd;clip-rule:evenodd;stroke-linejoin:round;stroke-miterlimit:2;"><path d="M4000,923.844c-0,-509.884 -413.96,-923.844 -923.844,-923.844l-2152.31,0c-509.884,0 -923.844,413.96 -923.844,923.844l0,2152.31c0,509.884 413.96,923.844 923.844,923.844l2152.31,-0c509.884,-0 923.844,-413.96 923.844,-923.844l-0,-2152.31Z" style="fill:#232126;"/><g><rect x="616.86" y="616.858" width="2766.28" height="2766.28" style="fill:none;"/><path d="M2115.26,1423.69l-230.524,0l0,461.047l-461.047,0l0,230.524l461.047,-0l0,461.047l230.524,-0l-0,-461.047l461.047,-0l-0,-230.524l-461.047,0l-0,-461.047Zm-115.262,-576.308c-636.245,-0 -1152.62,516.372 -1152.62,1152.62c-0,636.245 516.372,1152.62 1152.62,1152.62c636.245,0 1152.62,-516.372 1152.62,-1152.62c0,-636.245 -516.372,-1152.62 -1152.62,-1152.62Zm0,2074.71c-508.304,-0 -922.094,-413.79 -922.094,-922.094c0,-508.304 413.79,-922.094 922.094,-922.094c508.304,0 922.094,413.79 922.094,922.094c-0,508.304 -413.79,922.094 -922.094,922.094Z" style="fill:#00a757;fill-rule:nonzero;"/></g></svg>