<?xml version="1.0" encoding="UTF-8" standalone="no"?><!DOCTYPE svg PUBLIC "-//W3C//DTD SVG 1.1//EN" "http://www.w3.org/Graphics/SVG/1.1/DTD/svg11.dtd"><svg width="100%" height="100%" viewBox="0 0 4000 4000" version="1.1" xmlns="http://www.w3.org/2000/svg" xmlns:xlink="http://www.w3.org/1999/xlink" xml:space="preserve" xmlns:serif="http://www.serif.com/" style="fill-rule:evenodd;clip-rule:evenodd;stroke-linejoin:round;stroke-miterlimit:2;"><path d="M4000,923.844c-0,-509.884 -413.96,-923.844 -923.844,-923.844l-2152.31,0c-509.884,0 -923.844,413.96 -923.844,923.844l0,2152.31c0,509.884 413.96,923.844 923.844,923.844l2152.31,-0c509.884,-0 923.844,-413.96 923.844,-923.844l-0,-2152.31Z" style="fill:#232126;"/><path d="M2959.81,1114.44c-181.99,-84.804 -373.801,-144.477 -570.58,-178.395c-26.833,49.127 -51.442,99.431 -73.158,150.912c-209.365,-31.595 -422.753,-31.595 -632.257,-0c-22.269,-51.481 -46.739,-101.785 -73.572,-150.331c-197.478,33.933 -389.287,93.592 -571.276,178.41c-361.766,542.217 -459.395,1071.57 -410.303,1592.72c211.721,158.509 448.471,279.002 700.156,356.213c56.561,-77.211 106.76,-159.668 149.63,-245.668c-81.729,-30.993 -160.967,-69.008 -236.335,-114.641c20.052,-14.608 39.411,-29.238 58.219,-45.623c443.359,211.749 955.858,211.749 1399.34,-0c18.811,15.8 38.175,31.015 57.539,45.623c-75.233,45.048 -154.615,83.648 -236.21,114.641c43.431,86 93.075,167.882 149.497,245.083c251.69,-77.201 488.442,-197.694 700.163,-356.203l0.691,0c57.529,-603.636 -98.182,-1127.72 -411.55,-1592.74l0.002,-0.001Zm-1419.41,1272.66c-136.492,0 -248.919,-126.93 -248.919,-281.342c-0,-154.411 109.662,-281.339 248.919,-281.339c139.26,-0 250.997,126.928 248.784,281.339c0,154.412 -110.215,281.342 -248.784,281.342Zm918.804,0c-136.495,0 -248.923,-126.93 -248.923,-281.342c-0,-154.411 110.215,-281.339 248.923,-281.339c138.56,-0 250.988,126.928 248.775,281.339c0,154.412 -110.215,281.342 -248.775,281.342Z" style="fill:#fff;fill-rule:nonzero;"/></svg>