<?xml version="1.0" encoding="UTF-8" standalone="no"?><!DOCTYPE svg PUBLIC "-//W3C//DTD SVG 1.1//EN" "http://www.w3.org/Graphics/SVG/1.1/DTD/svg11.dtd"><svg width="100%" height="100%" viewBox="0 0 4000 4000" version="1.1" xmlns="http://www.w3.org/2000/svg" xmlns:xlink="http://www.w3.org/1999/xlink" xml:space="preserve" xmlns:serif="http://www.serif.com/" style="fill-rule:evenodd;clip-rule:evenodd;stroke-linejoin:round;stroke-miterlimit:2;"><path d="M4000,923.844c-0,-509.884 -413.96,-923.844 -923.844,-923.844l-2152.31,0c-509.884,0 -923.844,413.96 -923.844,923.844l0,2152.31c0,509.884 413.96,923.844 923.844,923.844l2152.31,-0c509.884,-0 923.844,-413.96 923.844,-923.844l-0,-2152.31Z" style="fill:#232126;"/><path d="M616.856,920.472l0,202.411c0,560.004 298.219,1049.84 742.174,1322.42l-0,634.222l2024.11,-0l-0,-269.882c-0,-358.943 -719.235,-539.763 -1079.53,-539.763l-33.735,0c-640.969,0 -1180.73,-539.763 -1180.73,-1147l0,-202.411l-472.293,0l0.005,0.006Zm1686.76,-0c-298.103,-0 -539.763,241.66 -539.763,539.763c0,298.103 241.66,539.763 539.763,539.763c298.103,-0 539.763,-241.66 539.763,-539.763c-0,-298.103 -241.66,-539.763 -539.763,-539.763Z" style="fill:#b9bbbe;fill-rule:nonzero;"/></svg>