<?xml version="1.0" encoding="UTF-8" standalone="no"?><!DOCTYPE svg PUBLIC "-//W3C//DTD SVG 1.1//EN" "http://www.w3.org/Graphics/SVG/1.1/DTD/svg11.dtd"><svg width="100%" height="100%" viewBox="0 0 4000 4000" version="1.1" xmlns="http://www.w3.org/2000/svg" xmlns:xlink="http://www.w3.org/1999/xlink" xml:space="preserve" xmlns:serif="http://www.serif.com/" style="fill-rule:evenodd;clip-rule:evenodd;stroke-linejoin:round;stroke-miterlimit:2;"><path d="M4000,923.844c-0,-509.884 -413.96,-923.844 -923.844,-923.844l-2152.31,0c-509.884,0 -923.844,413.96 -923.844,923.844l0,2152.31c0,509.884 413.96,923.844 923.844,923.844l2152.31,-0c509.884,-0 923.844,-413.96 923.844,-923.844l-0,-2152.31Z" style="fill:#232126;"/><path d="M2676.8,1443.88l431.349,0c152.926,0 277.038,124.252 277.038,277.038l0,277.038l-2770.38,-0l-0,-277.038c-0,-152.786 124.251,-277.038 277.038,-277.038l431.347,0c-62.472,-32.552 -121.619,-72.307 -171.07,-121.619c-162.068,-162.067 -162.068,-425.669 -0,-587.598c156.941,-156.941 430.378,-156.941 587.596,-0.276c226.756,226.755 257.369,653.532 260,701.462c0.153,1.593 -0.194,3.018 -0.54,4.438c-0.291,1.173 -0.568,2.342 -0.568,3.596l2.771,-0c-0,-1.266 -0.292,-2.446 -0.582,-3.62c-0.333,-1.392 -0.679,-2.772 -0.526,-4.276c2.769,-47.927 33.244,-474.704 259.999,-701.462c157.219,-156.942 430.378,-156.803 587.597,-0.138c161.929,162.344 161.929,425.945 0,587.874c-49.451,49.312 -108.598,89.067 -171.071,121.619Zm-1328.81,-317.485c-54.022,-54.161 -54.022,-141.982 -0,-196.004c26.042,-26.18 60.81,-40.448 97.933,-40.448c37.123,-0 71.892,14.268 97.933,40.448c81.726,81.726 129.376,228.279 154.864,350.452c-121.897,-25.349 -269.557,-73.276 -350.73,-154.448Zm953.146,154.726c25.626,-122.313 73.138,-268.866 155.003,-350.592c26.041,-26.318 60.81,-40.586 97.933,-40.586c37.123,-0 71.891,14.268 97.794,40.309c54.023,54.161 54.161,141.982 0.139,196.143c-81.865,81.864 -228.557,129.515 -350.869,154.726Zm-1547.81,993.873l0,831.111c0,152.786 124.252,277.038 277.038,277.038l831.111,-0l0,-1108.15l-1108.15,0l-0.001,-0Zm1385.19,-0l-0,1108.15l831.111,0c152.925,0 277.038,-124.251 277.038,-277.038l0,-831.111l-1108.15,-0l-0.001,0.001Z" style="fill:#b9bbbe;"/></svg>