<?xml version="1.0" encoding="UTF-8" standalone="no"?><!DOCTYPE svg PUBLIC "-//W3C//DTD SVG 1.1//EN" "http://www.w3.org/Graphics/SVG/1.1/DTD/svg11.dtd"><svg width="100%" height="100%" viewBox="0 0 4000 4000" version="1.1" xmlns="http://www.w3.org/2000/svg" xmlns:xlink="http://www.w3.org/1999/xlink" xml:space="preserve" xmlns:serif="http://www.serif.com/" style="fill-rule:evenodd;clip-rule:evenodd;stroke-linejoin:round;stroke-miterlimit:2;"><path d="M4000,923.844c-0,-509.884 -413.96,-923.844 -923.844,-923.844l-2152.31,0c-509.884,0 -923.844,413.96 -923.844,923.844l0,2152.31c0,509.884 413.96,923.844 923.844,923.844l2152.31,-0c509.884,-0 923.844,-413.96 923.844,-923.844l-0,-2152.31Z" style="fill:#232126;"/><path d="M2006.64,645.871c-329.932,-0.336 -649.195,116.832 -900.579,330.507c-251.384,213.674 -418.459,509.887 -471.285,835.559c-52.824,325.667 12.054,659.497 183.008,941.681c170.955,282.183 436.812,494.255 749.926,598.229c69.888,12.787 94.603,-30.683 94.603,-67.335l0,-236.077c-387.785,84.371 -469.603,-186.65 -469.603,-186.65c-25.727,-83.996 -80.381,-156.163 -154.262,-203.686c-125.284,-85.231 10.228,-85.231 10.228,-85.231c43.917,6.206 85.848,22.311 122.614,47.12c36.768,24.81 67.409,57.659 89.602,96.061c18.858,34.195 44.282,64.322 74.813,88.674c30.531,24.338 65.569,42.415 103.103,53.188c37.533,10.76 76.825,14.009 115.619,9.566c38.793,-4.457 76.326,-16.521 110.443,-35.514c5.35,-70.112 35.576,-136.018 85.229,-185.804c-308.525,-34.945 -632.39,-154.26 -632.39,-681.822c-2.118,-137.808 48.843,-271.161 142.33,-372.441c-41.636,-119.827 -36.77,-250.92 13.637,-367.33c-0,0 116.762,-37.501 381.819,142.33c227.609,-62.492 467.85,-62.492 695.457,0c265.051,-179.831 380.965,-142.33 380.965,-142.33c51.106,115.178 57.2,245.331 17.049,364.773c93.492,101.279 144.445,234.635 142.335,372.443c-0,533.532 -324.723,650.293 -634.105,681.822c33.182,33.349 58.797,73.431 75.124,117.553c16.313,44.108 22.964,91.215 19.479,138.127l-0,380.965c-0,45.178 24.727,80.122 95.463,66.489c309.548,-106.723 571.42,-319.406 739.356,-600.478c167.936,-281.087 231.134,-612.474 178.404,-935.628c-52.716,-323.155 -217.958,-617.28 -466.516,-830.411c-248.571,-213.132 -564.464,-331.556 -891.866,-334.35Z" style="fill:#b9bbbe;"/></svg>