<?xml version="1.0" encoding="UTF-8" standalone="no"?><!DOCTYPE svg PUBLIC "-//W3C//DTD SVG 1.1//EN" "http://www.w3.org/Graphics/SVG/1.1/DTD/svg11.dtd"><svg width="100%" height="100%" viewBox="0 0 4000 4000" version="1.1" xmlns="http://www.w3.org/2000/svg" xmlns:xlink="http://www.w3.org/1999/xlink" xml:space="preserve" xmlns:serif="http://www.serif.com/" style="fill-rule:evenodd;clip-rule:evenodd;stroke-linejoin:round;stroke-miterlimit:2;"><path d="M4000,923.844c-0,-509.884 -413.96,-923.844 -923.844,-923.844l-2152.31,0c-509.884,0 -923.844,413.96 -923.844,923.844l0,2152.31c0,509.884 413.96,923.844 923.844,923.844l2152.31,-0c509.884,-0 923.844,-413.96 923.844,-923.844l-0,-2152.31Z" style="fill:#232126;"/><path d="M2000,616.858c-762.664,0 -1383.14,620.616 -1383.14,1383.14c0,762.803 620.478,1383.14 1383.14,1383.14c762.664,-0 1383.14,-620.339 1383.14,-1383.14c-0,-762.526 -620.478,-1383.14 -1383.14,-1383.14Zm0,2247.61c-95.437,-0 -172.893,-77.318 -172.893,-172.893c0,-95.437 77.456,-172.893 172.893,-172.893c95.437,0 172.893,77.456 172.893,172.893c-0,95.575 -77.456,172.893 -172.893,172.893Zm138.314,-605.125l0,155.604l-276.628,-0l-0,-414.943l138.314,0c152.699,0 276.628,-124.068 276.628,-276.628c0,-152.699 -123.929,-276.629 -276.628,-276.629c-152.699,0 -276.628,123.93 -276.628,276.629l-276.629,-0c0,-304.983 248.274,-553.257 553.257,-553.257c304.983,-0 553.257,248.274 553.257,553.257c-0,257.402 -176.627,474.279 -414.943,535.967Z" style="fill:#b9bbbe;fill-rule:nonzero;"/></svg>