<?xml version="1.0" encoding="UTF-8" standalone="no"?><!DOCTYPE svg PUBLIC "-//W3C//DTD SVG 1.1//EN" "http://www.w3.org/Graphics/SVG/1.1/DTD/svg11.dtd"><svg width="100%" height="100%" viewBox="0 0 4000 4000" version="1.1" xmlns="http://www.w3.org/2000/svg" xmlns:xlink="http://www.w3.org/1999/xlink" xml:space="preserve" xmlns:serif="http://www.serif.com/" style="fill-rule:evenodd;clip-rule:evenodd;stroke-linejoin:round;stroke-miterlimit:2;"><path d="M4000,923.844c-0,-509.884 -413.96,-923.844 -923.844,-923.844l-2152.31,0c-509.884,0 -923.844,413.96 -923.844,923.844l0,2152.31c0,509.884 413.96,923.844 923.844,923.844l2152.31,-0c509.884,-0 923.844,-413.96 923.844,-923.844l-0,-2152.31Z" style="fill:#232126;"/><path d="M792.336,616.859l2415.32,0c20.522,0 37.172,17.276 37.172,38.564l0,1725.24c0,12.05 -5.394,23.219 -14.471,30.55l-1207.65,963.911c-6.725,5.411 -14.644,8.022 -22.718,8.022c-8.057,-0 -15.975,-2.611 -22.701,-8.022l-1207.65,-963.911c-9.08,-7.331 -14.462,-18.5 -14.462,-30.55l-0,-1725.24c-0,-21.288 16.65,-38.564 37.167,-38.564Zm1352.28,1227.05l713.614,-469.051c17.963,-11.866 39.748,7.853 29.824,27.047l-295.889,581.251c-6.967,13.953 3.147,30.36 18.656,30.36l177.145,0c20.402,0 28.77,26.003 12.207,37.864l-799.923,573.571c-7.157,5.239 -16.909,5.239 -24.239,-0l-799.922,-573.571c-16.391,-11.861 -8.021,-37.864 12.204,-37.864l176.966,0c15.692,0 25.804,-16.407 18.657,-30.36l-295.875,-581.425c-9.765,-19.02 12.03,-38.564 29.989,-26.873l713.788,469.051c12.38,8.195 22.321,19.364 28.943,32.624l108.801,218.467c7.676,15.353 29.634,15.353 37.31,0l108.801,-218.467c6.622,-13.26 16.564,-24.602 28.943,-32.624Z" style="fill:#a685f3;"/></svg>