<?xml version="1.0" encoding="UTF-8" standalone="no"?><!DOCTYPE svg PUBLIC "-//W3C//DTD SVG 1.1//EN" "http://www.w3.org/Graphics/SVG/1.1/DTD/svg11.dtd"><svg width="100%" height="100%" viewBox="0 0 4000 4000" version="1.1" xmlns="http://www.w3.org/2000/svg" xmlns:xlink="http://www.w3.org/1999/xlink" xml:space="preserve" xmlns:serif="http://www.serif.com/" style="fill-rule:evenodd;clip-rule:evenodd;stroke-linejoin:round;stroke-miterlimit:2;"><path d="M4000,923.844c-0,-509.884 -413.96,-923.844 -923.844,-923.844l-2152.31,0c-509.884,0 -923.844,413.96 -923.844,923.844l0,2152.31c0,509.884 413.96,923.844 923.844,923.844l2152.31,-0c509.884,-0 923.844,-413.96 923.844,-923.844l-0,-2152.31Z" style="fill:#232126;"/><path d="M1976.17,626.768c13.14,-13.131 34.51,-13.131 47.65,-0l1349.39,1349.38c6.414,6.258 9.924,14.955 9.924,23.807c-0,8.869 -3.666,17.566 -9.924,23.825l-1349.39,1349.37c-6.57,6.57 -15.267,9.924 -23.825,9.924c-8.558,0 -17.255,-3.354 -23.825,-9.924l-1349.39,-1349.37c-6.412,-6.259 -9.924,-14.817 -9.924,-23.825c0,-9.008 3.512,-17.549 9.924,-23.807l1349.39,-1349.38Zm160.773,1434.1l624.938,-410.407c15.716,-10.23 34.803,6.876 26.107,23.508l-259.097,508.581c-6.121,12.223 2.731,26.573 16.321,26.573l155.136,0c17.86,0 25.191,22.753 10.685,33.127l-700.509,501.872c-6.259,4.582 -14.799,4.582 -21.214,0l-700.505,-501.872c-14.352,-10.374 -7.023,-33.127 10.688,-33.127l154.971,0c13.741,0 22.597,-14.35 16.336,-26.573l-259.1,-508.581c-8.55,-16.632 10.536,-33.738 26.262,-23.508l625.085,410.407c10.84,7.175 19.537,16.944 25.329,28.545l95.281,191.167c6.725,13.434 25.951,13.434 32.676,-0l95.264,-191.167c5.809,-11.601 14.506,-21.526 25.346,-28.545Z" style="fill:#00dec0;"/></svg>