<?xml version="1.0" encoding="UTF-8" standalone="no"?><!DOCTYPE svg PUBLIC "-//W3C//DTD SVG 1.1//EN" "http://www.w3.org/Graphics/SVG/1.1/DTD/svg11.dtd"><svg width="100%" height="100%" viewBox="0 0 4000 4000" version="1.1" xmlns="http://www.w3.org/2000/svg" xmlns:xlink="http://www.w3.org/1999/xlink" xml:space="preserve" xmlns:serif="http://www.serif.com/" style="fill-rule:evenodd;clip-rule:evenodd;stroke-linejoin:round;stroke-miterlimit:2;"><path d="M4000,923.844c-0,-509.884 -413.96,-923.844 -923.844,-923.844l-2152.31,0c-509.884,0 -923.844,413.96 -923.844,923.844l0,2152.31c0,509.884 413.96,923.844 923.844,923.844l2152.31,-0c509.884,-0 923.844,-413.96 923.844,-923.844l-0,-2152.31Z" style="fill:#232126;"/><path d="M3075.78,616.863l-2153.08,-0c-170.586,-0 -304.29,136.777 -304.29,307.363l-1.537,2151.55c0,169.05 135.241,307.363 305.827,307.363l2153.08,0c169.05,0 307.364,-138.313 307.364,-307.363l-0,-2151.55c-0,-170.586 -138.314,-307.363 -307.364,-307.363Zm0,1844.18l-614.727,-0c-0,255.112 -207.471,461.045 -461.046,461.045c-253.576,-0 -461.046,-205.933 -461.046,-461.045l-616.265,-0l0,-1536.82l2153.08,0l-0,1536.82l0.002,-0Z" style="fill:#b9bbbe;fill-rule:nonzero;"/></svg>