<?xml version="1.0" encoding="UTF-8" standalone="no"?><!DOCTYPE svg PUBLIC "-//W3C//DTD SVG 1.1//EN" "http://www.w3.org/Graphics/SVG/1.1/DTD/svg11.dtd"><svg width="100%" height="100%" viewBox="0 0 4000 4000" version="1.1" xmlns="http://www.w3.org/2000/svg" xmlns:xlink="http://www.w3.org/1999/xlink" xml:space="preserve" xmlns:serif="http://www.serif.com/" style="fill-rule:evenodd;clip-rule:evenodd;stroke-linejoin:round;stroke-miterlimit:2;"><path d="M4000,923.844c-0,-509.884 -413.96,-923.844 -923.844,-923.844l-2152.31,0c-509.884,0 -923.844,413.96 -923.844,923.844l0,2152.31c0,509.884 413.96,923.844 923.844,923.844l2152.31,-0c509.884,-0 923.844,-413.96 923.844,-923.844l-0,-2152.31Z" style="fill:#232126;"/><path d="M2000,616.858c-762.664,0 -1383.14,620.754 -1383.14,1383.14c0,762.94 620.477,1383.14 1383.14,1383.14c762.664,-0 1383.14,-620.201 1383.14,-1383.14c-0,-762.387 -620.477,-1383.14 -1383.14,-1383.14Zm0,657.269c94.846,-0 172.893,78.046 172.893,172.892c-0,94.846 -78.047,172.893 -172.893,172.893c-94.846,-0 -172.893,-78.047 -172.893,-172.893c0,-94.846 78.047,-172.892 172.893,-172.892Zm414.942,1417.44l-829.884,0l-0,-276.628l276.628,0l-0,-414.942l-138.314,-0l-0,-276.628l276.628,-0c75.877,-0 138.314,62.437 138.314,138.314l0,553.256l276.628,0l0,276.628Z" style="fill:#3ba55d;fill-rule:nonzero;"/></svg>