<?xml version="1.0" encoding="UTF-8" standalone="no"?><!DOCTYPE svg PUBLIC "-//W3C//DTD SVG 1.1//EN" "http://www.w3.org/Graphics/SVG/1.1/DTD/svg11.dtd"><svg width="100%" height="100%" viewBox="0 0 4000 4000" version="1.1" xmlns="http://www.w3.org/2000/svg" xmlns:xlink="http://www.w3.org/1999/xlink" xml:space="preserve" xmlns:serif="http://www.serif.com/" style="fill-rule:evenodd;clip-rule:evenodd;stroke-linejoin:round;stroke-miterlimit:2;"><path d="M4000,923.844c-0,-509.884 -413.96,-923.844 -923.844,-923.844l-2152.31,0c-509.884,0 -923.844,413.96 -923.844,923.844l0,2152.31c0,509.884 413.96,923.844 923.844,923.844l2152.31,-0c509.884,-0 923.844,-413.96 923.844,-923.844l-0,-2152.31Z" style="fill:#232126;"/><path d="M1170.12,3383.14l-0,-553.257l-276.628,0c-151.754,0 -276.629,-124.874 -276.629,-276.628l0,-1659.77c0,-151.754 124.875,-276.629 276.629,-276.629l2213.02,0c151.754,0 276.629,124.875 276.629,276.629l-0,1659.77c-0,151.754 -124.875,276.628 -276.629,276.628l-1198.72,0l-737.677,553.257Zm-276.628,-2489.65l-0,1659.77l553.256,0l-0,276.628l368.837,-276.628l1290.93,0l-0,-1659.77l-2213.03,-0Z" style="fill:#b9bbbe;fill-rule:nonzero;"/><rect x="1308.43" y="1170.12" width="276.628" height="1106.51" style="fill:#b9bbbe;"/><rect x="1861.69" y="1723.37" width="276.628" height="553.256" style="fill:#b9bbbe;"/><rect x="2414.94" y="1446.74" width="276.628" height="829.884" style="fill:#b9bbbe;"/></svg>