<?xml version="1.0" encoding="UTF-8" standalone="no"?><!DOCTYPE svg PUBLIC "-//W3C//DTD SVG 1.1//EN" "http://www.w3.org/Graphics/SVG/1.1/DTD/svg11.dtd"><svg width="100%" height="100%" viewBox="0 0 4000 4000" version="1.1" xmlns="http://www.w3.org/2000/svg" xmlns:xlink="http://www.w3.org/1999/xlink" xml:space="preserve" xmlns:serif="http://www.serif.com/" style="fill-rule:evenodd;clip-rule:evenodd;stroke-linejoin:round;stroke-miterlimit:2;"><path d="M4000,923.844c-0,-509.884 -413.96,-923.844 -923.844,-923.844l-2152.31,0c-509.884,0 -923.844,413.96 -923.844,923.844l0,2152.31c0,509.884 413.96,923.844 923.844,923.844l2152.31,-0c509.884,-0 923.844,-413.96 923.844,-923.844l-0,-2152.31Z" style="fill:#232126;"/><path d="M1206.04,1449.67c-316.723,374.777 -300.434,920.098 16.289,1276.78l-403.317,476.963l212.587,179.732l404.012,-477.938c153.977,96.061 331.753,149.799 514.826,149.799c288.183,0 559.938,-126.132 745.518,-346.098c355.426,-420.023 453.157,-1542.82 485.038,-2092.04c-450.372,121.956 -1666.16,467.218 -1974.95,832.809l-0.005,-0.004Zm295.283,1162.34c-293.613,-248.227 -330.645,-688.994 -82.557,-982.747c174.024,-205.905 913.549,-477.103 1450.93,-636.787l-1368.37,1619.53l-0.003,0.003Z" style="fill:#5865f2;"/></svg>