<?xml version="1.0" encoding="UTF-8" standalone="no"?><!DOCTYPE svg PUBLIC "-//W3C//DTD SVG 1.1//EN" "http://www.w3.org/Graphics/SVG/1.1/DTD/svg11.dtd"><svg width="100%" height="100%" viewBox="0 0 4000 4000" version="1.1" xmlns="http://www.w3.org/2000/svg" xmlns:xlink="http://www.w3.org/1999/xlink" xml:space="preserve" xmlns:serif="http://www.serif.com/" style="fill-rule:evenodd;clip-rule:evenodd;stroke-linejoin:round;stroke-miterlimit:2;"><path d="M4000,923.844c-0,-509.884 -413.96,-923.844 -923.844,-923.844l-2152.31,0c-509.884,0 -923.844,413.96 -923.844,923.844l0,2152.31c0,509.884 413.96,923.844 923.844,923.844l2152.31,-0c509.884,-0 923.844,-413.96 923.844,-923.844l-0,-2152.31Z" style="fill:#232126;"/><path d="M2691.57,1861.69l0,-553.256c0,-381.332 -310.376,-691.571 -691.57,-691.571c-381.47,0 -691.57,310.239 -691.57,691.571l-0,553.256c-152.561,-0 -276.628,123.929 -276.628,276.628l-0,968.198c-0,152.561 124.067,276.629 276.628,276.629l1383.14,-0c152.561,-0 276.628,-124.068 276.628,-276.629l0,-968.198c0,-152.699 -124.067,-276.628 -276.628,-276.628Zm-691.57,968.198c-114.524,0 -207.471,-92.947 -207.471,-207.471c-0,-114.524 92.947,-207.471 207.471,-207.471c114.524,0 207.471,92.947 207.471,207.471c0,114.524 -92.947,207.471 -207.471,207.471Zm414.942,-968.198l-829.884,-0l-0,-553.256c-0,-228.772 186.171,-414.942 414.942,-414.942c228.771,-0 414.942,186.17 414.942,414.942l0,553.256Z" style="fill:#b9bbbe;fill-rule:nonzero;"/></svg>