<?xml version="1.0" encoding="UTF-8" standalone="no"?><!DOCTYPE svg PUBLIC "-//W3C//DTD SVG 1.1//EN" "http://www.w3.org/Graphics/SVG/1.1/DTD/svg11.dtd"><svg width="100%" height="100%" viewBox="0 0 4000 4000" version="1.1" xmlns="http://www.w3.org/2000/svg" xmlns:xlink="http://www.w3.org/1999/xlink" xml:space="preserve" xmlns:serif="http://www.serif.com/" style="fill-rule:evenodd;clip-rule:evenodd;stroke-linejoin:round;stroke-miterlimit:2;"><path d="M4000,923.844c-0,-509.884 -413.96,-923.844 -923.844,-923.844l-2152.31,0c-509.884,0 -923.844,413.96 -923.844,923.844l0,2152.31c0,509.884 413.96,923.844 923.844,923.844l2152.31,-0c509.884,-0 923.844,-413.96 923.844,-923.844l-0,-2152.31Z" style="fill:#232126;"/><path d="M2691.58,1308.43c0,381.229 -310.167,691.567 -691.566,691.567c-381.234,0 -691.573,-310.34 -691.573,-691.567c-0,-381.226 310.167,-691.565 691.573,-691.565c381.399,-0 691.566,310.339 691.566,691.565Zm-2074.71,1901.81c0,-610.826 568.813,-1037.35 1383.14,-1037.35c814.493,-0 1383.13,426.523 1383.13,1037.35l-0,172.891l-2766.27,0l0,-172.891Z" style="fill:#b9bbbe;"/></svg>