<?xml version="1.0" encoding="UTF-8" standalone="no"?><!DOCTYPE svg PUBLIC "-//W3C//DTD SVG 1.1//EN" "http://www.w3.org/Graphics/SVG/1.1/DTD/svg11.dtd"><svg width="100%" height="100%" viewBox="0 0 4000 4000" version="1.1" xmlns="http://www.w3.org/2000/svg" xmlns:xlink="http://www.w3.org/1999/xlink" xml:space="preserve" xmlns:serif="http://www.serif.com/" style="fill-rule:evenodd;clip-rule:evenodd;stroke-linejoin:round;stroke-miterlimit:2;"><path d="M4000,923.844c-0,-509.884 -413.96,-923.844 -923.844,-923.844l-2152.31,0c-509.884,0 -923.844,413.96 -923.844,923.844l0,2152.31c0,509.884 413.96,923.844 923.844,923.844l2152.31,-0c509.884,-0 923.844,-413.96 923.844,-923.844l-0,-2152.31Z" style="fill:#232126;"/><path d="M2276.62,1446.74c0,304.984 -248.134,553.257 -553.254,553.257c-304.982,0 -553.255,-248.273 -553.255,-553.257c0,-304.982 248.135,-553.255 553.255,-553.255c305.12,0 553.254,248.273 553.254,553.255Zm-1659.77,1521.45c0,-488.662 455.052,-829.88 1106.51,-829.88c651.596,0 1106.51,341.221 1106.51,829.88l-0,138.313l-2213.02,0l0,-138.313Z" style="fill:#b9bbbe;"/><path d="M2276.62,1446.74c0,304.984 -248.134,553.257 -553.254,553.257c-304.982,0 -553.255,-248.273 -553.255,-553.257c0,-304.982 248.135,-553.255 553.255,-553.255c305.12,0 553.254,248.273 553.254,553.255Zm-1659.77,1521.45c0,-488.662 455.052,-829.88 1106.51,-829.88c651.596,0 1106.51,341.221 1106.51,829.88l-0,138.313l-2213.02,0l0,-138.313Z" style="fill:#b9bbbe;"/><path d="M3106.51,3106.51l276.628,-0l-0,-138.314c-0,-354.456 -239.338,-631.332 -619.48,-756.683c213.114,190.527 342.852,452.383 342.852,756.683l0,138.314Z" style="fill:#b9bbbe;fill-rule:nonzero;"/><path d="M2398.81,1986.4c246.517,-55.782 431.083,-276.628 431.083,-539.661c-0,-281.72 -211.731,-515.053 -484.513,-549.006c129.337,146.393 207.885,338.667 207.885,549.006c0,199.573 -70.705,382.882 -188.425,526.175c11.411,4.371 22.739,8.866 33.97,13.486Z" style="fill:#b9bbbe;fill-rule:nonzero;"/></svg>