<?xml version="1.0" encoding="UTF-8" standalone="no"?><!DOCTYPE svg PUBLIC "-//W3C//DTD SVG 1.1//EN" "http://www.w3.org/Graphics/SVG/1.1/DTD/svg11.dtd"><svg width="100%" height="100%" viewBox="0 0 4000 4000" version="1.1" xmlns="http://www.w3.org/2000/svg" xmlns:xlink="http://www.w3.org/1999/xlink" xml:space="preserve" xmlns:serif="http://www.serif.com/" style="fill-rule:evenodd;clip-rule:evenodd;stroke-linejoin:round;stroke-miterlimit:2;"><path d="M4000,923.844c-0,-509.884 -413.96,-923.844 -923.844,-923.844l-2152.31,0c-509.884,0 -923.844,413.96 -923.844,923.844l0,2152.31c0,509.884 413.96,923.844 923.844,923.844l2152.31,-0c509.884,-0 923.844,-413.96 923.844,-923.844l-0,-2152.31Z" style="fill:#232126;"/><path d="M893.487,616.854c-152.699,0 -276.629,123.792 -276.629,276.629l0,1659.78c0,152.7 123.93,276.63 276.629,276.63l414.944,-0l0,553.258l553.25,-553.258l1244.83,-0c152.837,-0 276.629,-123.93 276.629,-276.63l-0,-1659.78c-0,-152.837 -123.792,-276.629 -276.629,-276.629l-2213.03,0l0.001,0Z" style="fill:#b9bbbe;fill-rule:nonzero;"/></svg>