<?xml version="1.0" encoding="UTF-8" standalone="no"?><!DOCTYPE svg PUBLIC "-//W3C//DTD SVG 1.1//EN" "http://www.w3.org/Graphics/SVG/1.1/DTD/svg11.dtd"><svg width="100%" height="100%" viewBox="0 0 4000 4000" version="1.1" xmlns="http://www.w3.org/2000/svg" xmlns:xlink="http://www.w3.org/1999/xlink" xml:space="preserve" xmlns:serif="http://www.serif.com/" style="fill-rule:evenodd;clip-rule:evenodd;stroke-linejoin:round;stroke-miterlimit:2;"><path d="M4000,923.844c-0,-509.884 -413.96,-923.844 -923.844,-923.844l-2152.31,0c-509.884,0 -923.844,413.96 -923.844,923.844l0,2152.31c0,509.884 413.96,923.844 923.844,923.844l2152.31,-0c509.884,-0 923.844,-413.96 923.844,-923.844l-0,-2152.31Z" style="fill:#232126;"/><path d="M2000,616.858c-762.664,0 -1383.14,620.477 -1383.14,1383.14c0,762.802 620.477,1383.14 1383.14,1383.14c762.664,-0 1383.14,-620.339 1383.14,-1383.14c-0,-762.664 -620.477,-1383.14 -1383.14,-1383.14Zm-138.314,553.257l276.628,-0l0,968.198l-276.628,0l-0,-968.198Zm138.314,1556.03c-95.437,-0 -172.893,-77.318 -172.893,-172.893c0,-95.436 77.456,-172.892 172.893,-172.892c95.437,-0 172.893,77.456 172.893,172.892c-0,95.575 -77.456,172.893 -172.893,172.893Z" style="fill:#3ba55d;"/></svg>