<?xml version="1.0" encoding="UTF-8" standalone="no"?><!DOCTYPE svg PUBLIC "-//W3C//DTD SVG 1.1//EN" "http://www.w3.org/Graphics/SVG/1.1/DTD/svg11.dtd"><svg width="100%" height="100%" viewBox="0 0 4000 4000" version="1.1" xmlns="http://www.w3.org/2000/svg" xmlns:xlink="http://www.w3.org/1999/xlink" xml:space="preserve" xmlns:serif="http://www.serif.com/" style="fill-rule:evenodd;clip-rule:evenodd;stroke-linejoin:round;stroke-miterlimit:2;"><path d="M4000,923.844c-0,-509.884 -413.96,-923.844 -923.844,-923.844l-2152.31,0c-509.884,0 -923.844,413.96 -923.844,923.844l0,2152.31c0,509.884 413.96,923.844 923.844,923.844l2152.31,-0c509.884,-0 923.844,-413.96 923.844,-923.844l-0,-2152.31Z" style="fill:#232126;"/><g><circle cx="2000" cy="1897.09" r="1280.23" style="fill:#32dec5;"/><path d="M2546.66,1913.09l-69.773,-69.132c-14.586,-14.529 -22.795,-34.29 -22.795,-54.877c0,-27.404 14.543,-52.842 38.158,-66.745c85.036,-50.295 165.374,-108.138 240.043,-172.831c36.062,-36.063 56.343,-85.025 56.343,-136.025c0,-105.53 -86.838,-192.368 -192.367,-192.368c-51,0 -99.963,20.281 -136.025,56.343c-65.263,74.366 -123.346,154.739 -173.471,240.044c-14.171,23.184 -39.46,37.365 -66.633,37.365c-20.591,0 -40.368,-8.144 -54.989,-22.643l-69.133,-69.132c-86.4,-86.349 -228.536,-86.349 -314.937,-0l-123.542,122.902l768.139,768.139l123.542,-122.902c41.463,-42.03 64.733,-98.753 64.733,-157.792c0,-60.29 -24.267,-118.113 -67.293,-160.346Z" style="fill:#fff;fill-rule:nonzero;"/><path d="M1459.1,1784.43c-35.64,33.685 -82.865,52.47 -131.905,52.47c-53.406,-0 -104.462,-22.279 -140.784,-61.432l-38.407,-38.407c-5.436,-5.01 -12.564,-7.794 -19.957,-7.794c-16.153,-0 -29.445,13.292 -29.445,29.445c-0,7.393 2.784,14.521 7.795,19.957l20.483,21.124l700.927,700.926c59.145,59.867 139.885,93.598 224.04,93.598c84.156,-0 164.896,-33.731 224.041,-93.598l184.993,-184.993l-768.138,-768.139l-233.643,236.843Z" style="fill:#2482ff;fill-rule:nonzero;"/><circle cx="2581.23" cy="1429.16" r="75.534" style="fill:#32dec5;"/><path d="M1633.22,3072.34c0.213,4.592 0.32,9.188 0.32,13.785c-0,162.937 -134.077,297.014 -297.014,297.014c-162.937,-0 -297.013,-134.077 -297.013,-297.014c-0,-4.597 0.106,-9.193 0.32,-13.785c-0,-163.869 297.013,-519.133 297.013,-519.133c0,-0 296.374,355.264 296.374,519.133Z" style="fill:#2482ff;fill-rule:nonzero;"/></g></svg>