<?xml version="1.0" encoding="UTF-8" standalone="no"?><!DOCTYPE svg PUBLIC "-//W3C//DTD SVG 1.1//EN" "http://www.w3.org/Graphics/SVG/1.1/DTD/svg11.dtd"><svg width="100%" height="100%" viewBox="0 0 4000 4000" version="1.1" xmlns="http://www.w3.org/2000/svg" xmlns:xlink="http://www.w3.org/1999/xlink" xml:space="preserve" xmlns:serif="http://www.serif.com/" style="fill-rule:evenodd;clip-rule:evenodd;stroke-linejoin:round;stroke-miterlimit:2;"><path d="M4000,923.844c-0,-509.884 -413.96,-923.844 -923.844,-923.844l-2152.31,0c-509.884,0 -923.844,413.96 -923.844,923.844l0,2152.31c0,509.884 413.96,923.844 923.844,923.844l2152.31,-0c509.884,-0 923.844,-413.96 923.844,-923.844l-0,-2152.31Z" style="fill:#232126;"/><path d="M2654.72,1594.69l-351.669,226.337c-50.239,25.148 -75.357,25.148 -125.596,-0c-25.119,-25.148 -75.355,-50.297 -100.476,-75.446c-100.476,-25.148 -175.834,0 -251.191,50.298l-125.594,75.445l-627.975,427.524c-150.715,75.446 -326.549,50.297 -401.906,-100.594c-100.475,-125.742 -50.237,-301.782 75.357,-402.375l753.57,-502.97c200.952,-125.743 452.142,-176.04 678.213,-125.743c200.954,50.297 351.674,150.891 477.265,301.782c50.247,50.297 25.124,100.594 0,125.742l0.002,0Z" style="fill:#5865f2;fill-rule:nonzero;"/><path d="M3383.14,1946.75c-0,100.594 -50.222,201.188 -125.592,251.485l-778.687,502.982c-150.712,100.594 -301.427,150.891 -477.26,150.891c-75.358,0 -125.594,0 -200.952,-25.149c-200.954,-50.296 -351.667,-150.89 -477.263,-301.781c-25.118,-50.31 -0,-100.607 25.121,-125.755l351.666,-226.337c25.118,-25.148 75.355,-25.148 100.476,0c50.236,25.149 100.475,50.297 125.594,75.446c100.476,-0 175.833,-0 251.191,-50.297l175.833,-100.595l502.381,-352.078l75.345,-50.297c125.617,-75.445 326.553,-50.297 401.923,75.445c50.222,75.446 50.222,125.743 50.222,176.04l0.002,0Z" style="fill:#5865f2;fill-rule:nonzero;"/></svg>