<?xml version="1.0" encoding="UTF-8" standalone="no"?><!DOCTYPE svg PUBLIC "-//W3C//DTD SVG 1.1//EN" "http://www.w3.org/Graphics/SVG/1.1/DTD/svg11.dtd"><svg width="100%" height="100%" viewBox="0 0 4000 4000" version="1.1" xmlns="http://www.w3.org/2000/svg" xmlns:xlink="http://www.w3.org/1999/xlink" xml:space="preserve" xmlns:serif="http://www.serif.com/" style="fill-rule:evenodd;clip-rule:evenodd;stroke-linejoin:round;stroke-miterlimit:2;"><path d="M4000,923.844c-0,-509.884 -413.96,-923.844 -923.844,-923.844l-2152.31,0c-509.884,0 -923.844,413.96 -923.844,923.844l0,2152.31c0,509.884 413.96,923.844 923.844,923.844l2152.31,-0c509.884,-0 923.844,-413.96 923.844,-923.844l-0,-2152.31Z" style="fill:#232126;"/><path d="M3078.85,3210.25l0,-2247.6l165.977,-0l0,2420.49l-2157.7,-0c-183.322,-0 -331.954,-154.824 -331.954,-345.78l-0,-2074.71c-0,-190.96 148.632,-345.786 331.954,-345.786l1825.75,0l0,2247.6l-1825.75,-0c-91.661,-0 -165.977,77.337 -165.977,172.898c-0,95.561 74.316,172.89 165.977,172.89l1991.72,-0Zm-749.236,-2040.13l-670.788,663.204l-263.928,-261.198l-224.783,220.891l488.678,483.615l894.466,-885.188l-223.645,-221.324Z" style="fill:#b9bbbe;"/></svg>