<?xml version="1.0" encoding="UTF-8" standalone="no"?><!DOCTYPE svg PUBLIC "-//W3C//DTD SVG 1.1//EN" "http://www.w3.org/Graphics/SVG/1.1/DTD/svg11.dtd"><svg width="100%" height="100%" viewBox="0 0 4000 4000" version="1.1" xmlns="http://www.w3.org/2000/svg" xmlns:xlink="http://www.w3.org/1999/xlink" xml:space="preserve" xmlns:serif="http://www.serif.com/" style="fill-rule:evenodd;clip-rule:evenodd;stroke-linejoin:round;stroke-miterlimit:2;"><path d="M4000,923.844c-0,-509.884 -413.96,-923.844 -923.844,-923.844l-2152.31,0c-509.884,0 -923.844,413.96 -923.844,923.844l0,2152.31c0,509.884 413.96,923.844 923.844,923.844l2152.31,-0c509.884,-0 923.844,-413.96 923.844,-923.844l-0,-2152.31Z" style="fill:#232126;"/><g><path d="M1078.56,1076.95c-0,-0 33.522,-50.153 47.424,-72.371c13.903,-22.217 -35.99,-74.709 -55.349,-91.339c-19.36,-16.63 -49.892,-8.316 -49.892,-8.316c-243.616,107.971 -365.489,329.499 -382.119,373.804c-16.632,44.306 42.357,92.64 85.882,116.287c20.009,10.914 51.841,-13.253 71.461,-31.184l6.626,-6.756l10.394,-10.525l662.764,660.17l90.56,-90.571l166.44,-166.438l-655.101,-671.852l0.91,-0.909Z" style="fill:#5165f6;fill-rule:nonzero;"/><path d="M2644.3,1773.35l34.955,-33.258l314.035,311.048c2.213,1.956 4.547,2.729 6.624,2.729c5.987,-0 10.914,-5.457 10.914,-5.457c-0,-0 347.685,-344.957 348.868,-346.124c10.262,-10.141 -0,-15.72 -0,-15.72l-268.181,-269.997l-0.394,0.391l-36.759,-35.991l20.525,-19.749l43.913,5.067l-8.307,-58.208l11.036,-11.173l-16.493,-83.934c-57.298,-81.205 -214.262,-211.263 -214.262,-211.263l-82.112,-14.813l-8.307,11.045l-61.846,-9.226l5.972,52.751l3.896,3.899l-18.326,18.449l-101.333,-99.135c-0,-0 -588.066,-319.364 -619.368,-334.175c-17.675,-8.186 -30.665,-13.643 -43.141,-13.643c-9.61,0 -18.963,3.249 -29.755,10.914c-24.951,17.54 -10.262,52.881 -10.262,52.881l365.617,675.627l73.154,72.5l-22.874,22.866l-8.443,8.447l-58.465,-8.057l8.958,57.949l-16.886,16.89l-2.986,-2.989c-2.729,-2.728 -6.503,-4.156 -10.141,-4.156c-3.638,-0 -7.276,1.428 -10.126,4.156c-5.593,5.588 -5.593,14.683 0,20.27l2.986,2.988l-8.064,8.185l-2.077,-2.208c-2.849,-2.729 -6.487,-4.158 -10.125,-4.158c-3.775,-0 -7.413,1.429 -10.141,4.158c-5.578,5.587 -5.578,14.682 -0,20.269l2.213,2.209l-153.842,154.62l-3.501,-3.516c-2.865,-2.729 -6.503,-4.154 -10.141,-4.154c-3.638,0 -7.276,1.425 -10.126,4.154c-5.593,5.593 -5.593,14.688 0,20.266l3.638,3.517l-8.185,8.185l-2.729,-2.607c-2.728,-2.85 -6.503,-4.29 -10.004,-4.29c-3.775,0 -7.413,1.44 -10.262,4.29c-5.457,5.594 -5.457,14.552 -0,20.146l2.728,2.728l-20.009,20.267l-2.728,25.723l10.52,10.793l-0.258,0.121l-12.733,12.991l-830.116,829.992l-10.784,-8.974l-34.431,4.942l-19.49,19.751l-1.299,-1.303c-2.858,-2.865 -6.496,-4.29 -10.134,-4.29c-3.637,-0 -7.406,1.425 -10.134,4.29c-5.588,5.593 -5.588,14.552 -0,20.145l1.558,1.546l-8.055,8.322l-0.779,-0.773c-2.729,-2.865 -6.497,-4.29 -10.135,-4.29c-3.638,0 -7.276,1.425 -10.135,4.29c-5.457,5.578 -5.457,14.552 0,20.13l0.91,1.046l-151.887,154.478l-3.118,-3.122c-2.857,-2.85 -6.366,-4.154 -10.133,-4.154c-3.638,0 -7.276,1.304 -10.135,4.154c-5.587,5.593 -5.587,14.688 0,20.281l3.378,3.244l-8.056,8.186l-2.467,-2.471c-2.859,-2.729 -6.497,-4.153 -10.266,-4.153c-3.507,-0 -7.276,1.424 -10.004,4.153c-5.587,5.593 -5.587,14.688 -0,20.267l2.598,2.728l-11.303,11.566l-58.857,-10.52l4.417,65.741l-18.579,18.963l16.11,88.616c-0,-0 24.687,77.171 75.488,128.375c49.243,49.629 124.342,73.397 127.59,75.868l84.843,14.809l20.918,-20.524l58.469,9.489l-9.615,-57.814l17.8,-17.417l8.186,8.186c2.728,2.728 6.366,4.153 10.004,4.153c3.638,0 7.405,-1.425 10.134,-4.153c5.587,-5.715 5.587,-14.688 -0,-20.267l-8.055,-8.064l8.315,-8.049l7.016,7.018c2.728,2.85 6.496,4.29 10.134,4.29c3.638,0 7.276,-1.44 10.135,-4.29c5.588,-5.593 5.588,-14.552 0,-20.145l-6.886,-7.018l154.225,-152.144l6.756,6.761c2.728,2.864 6.497,4.153 10.135,4.153c3.638,-0 7.276,-1.289 10.133,-4.153c5.457,-5.594 5.457,-14.689 0,-20.267l-6.626,-6.503l8.186,-8.185l5.716,5.714c2.728,2.729 6.366,4.169 10.004,4.169c3.769,-0 7.407,-1.44 10.135,-4.169c5.588,-5.578 5.588,-14.673 0,-20.266l-5.587,-5.579l17.28,-16.901l6.238,-37.017l-9.225,-9.231l0.13,-0.137l16.761,-16.628l824.529,-824.778l-0.394,-0.788l16.113,16.644l25.86,-2.865l23.253,-23.389l3.759,3.774c2.865,2.728 6.503,4.153 10.141,4.153c3.638,0 7.412,-1.425 10.141,-4.153c5.578,-5.593 5.578,-14.688 -0,-20.267l-3.775,-3.774l8.186,-8.049l2.865,2.85c2.728,2.728 6.366,4.153 10.125,4.153c3.638,0 7.276,-1.425 10.005,-4.153c5.593,-5.579 5.593,-14.674 -0,-20.267l-2.85,-2.986l154.084,-154.357l4.032,4.032c2.729,2.729 6.367,4.153 10.005,4.153c3.774,0 7.412,-1.424 10.141,-4.153c5.578,-5.593 5.578,-14.688 -0,-20.267l-4.033,-4.032l8.186,-8.185l3.123,3.244c2.849,2.728 6.487,4.153 10.125,4.153c3.638,0 7.276,-1.425 10.141,-4.153c5.578,-5.715 5.578,-14.673 0,-20.267l-3.122,-3.244l17.144,-17.159l57.298,8.974l-9.353,-57.177Z" style="fill:#5165f6;fill-rule:nonzero;"/><path d="M2758.77,2705.57l-365.482,-277.002l-65.09,-67.045l-252.188,252.188l63.407,60.557l238.152,357.16l321.174,351.718l370.18,-345.352l-310.153,-332.224Z" style="fill:#5165f6;fill-rule:nonzero;"/></g></svg>