<?xml version="1.0" encoding="UTF-8" standalone="no"?><!DOCTYPE svg PUBLIC "-//W3C//DTD SVG 1.1//EN" "http://www.w3.org/Graphics/SVG/1.1/DTD/svg11.dtd"><svg width="100%" height="100%" viewBox="0 0 4000 4000" version="1.1" xmlns="http://www.w3.org/2000/svg" xmlns:xlink="http://www.w3.org/1999/xlink" xml:space="preserve" xmlns:serif="http://www.serif.com/" style="fill-rule:evenodd;clip-rule:evenodd;stroke-linejoin:round;stroke-miterlimit:2;"><path d="M4000,923.844c-0,-509.884 -413.96,-923.844 -923.844,-923.844l-2152.31,0c-509.884,0 -923.844,413.96 -923.844,923.844l0,2152.31c0,509.884 413.96,923.844 923.844,923.844l2152.31,-0c509.884,-0 923.844,-413.96 923.844,-923.844l-0,-2152.31Z" style="fill:#232126;"/><path d="M1997.91,611.635c716.74,1.239 1314.6,547.425 1379.46,1260.26c64.867,712.819 -424.595,1357.69 -1129.38,1487.93c-704.782,130.247 -1392.91,-296.995 -1587.78,-985.798l534.21,220.847c43.493,194.865 225.928,326.568 424.864,306.696c198.942,-19.858 351.638,-185.026 355.629,-384.644l0,-17.322l473.513,-337.75l13.012,-0c212.436,1.053 404.544,-125.938 486.58,-321.648c82.023,-195.698 37.776,-421.484 -112.066,-571.873c-149.841,-150.39 -375.719,-195.695 -572.095,-114.752c-196.375,80.945 -324.488,272.159 -324.488,484.314l-0,8.661l-332.152,480.654l-22.114,-0c-79.111,-0.277 -156.366,23.932 -221.141,69.288l-747.114,-307.444c54.488,-721.207 656.816,-1278.33 1381.06,-1277.42Zm-512.53,2104.48l-169.109,-69.288c29.67,65.81 84.241,117.194 151.764,142.9c150.509,61.208 322.261,-10.352 384.62,-160.208c30.792,-71.906 30.792,-153.278 0,-225.171c-61.32,-147.153 -227.973,-219.767 -377.682,-164.558l178.214,73.611c53.343,21.285 95.841,63.149 117.875,116.126c22.033,52.978 21.742,112.579 -0.804,165.348c-47.961,110.182 -173.987,163.492 -286.613,121.24l1.735,0Zm714.157,-1078.22c-0.013,69.74 28.048,136.557 77.88,185.419c49.832,48.861 117.235,75.676 187.063,74.387c144.465,0.028 262.323,-115.544 264.929,-259.806c-0,-146.121 -118.621,-264.575 -264.929,-264.575c-146.322,0 -264.943,118.454 -264.943,264.575Zm607.058,4.331c2.107,142.702 -82.369,272.534 -213.808,328.574c-131.439,56.04 -283.761,27.174 -385.503,-73.057c-101.756,-100.232 -132.728,-251.936 -78.42,-383.95c54.321,-132.014 183.155,-218.143 326.068,-217.984c93.067,-2.113 183.017,33.548 249.297,98.835c66.281,65.287 103.212,154.619 102.366,247.582Z" style="fill:#b9bbbe;fill-rule:nonzero;"/></svg>