<?xml version="1.0" encoding="UTF-8" standalone="no"?><!DOCTYPE svg PUBLIC "-//W3C//DTD SVG 1.1//EN" "http://www.w3.org/Graphics/SVG/1.1/DTD/svg11.dtd"><svg width="100%" height="100%" viewBox="0 0 4000 4000" version="1.1" xmlns="http://www.w3.org/2000/svg" xmlns:xlink="http://www.w3.org/1999/xlink" xml:space="preserve" xmlns:serif="http://www.serif.com/" style="fill-rule:evenodd;clip-rule:evenodd;stroke-linejoin:round;stroke-miterlimit:2;"><path d="M4000,923.844c-0,-509.884 -413.96,-923.844 -923.844,-923.844l-2152.31,0c-509.884,0 -923.844,413.96 -923.844,923.844l0,2152.31c0,509.884 413.96,923.844 923.844,923.844l2152.31,-0c509.884,-0 923.844,-413.96 923.844,-923.844l-0,-2152.31Z" style="fill:#232126;"/><path d="M3383.14,1121.53l-1756.94,-0l0,1756.93l358.971,0c137.776,0 269.914,-54.73 367.34,-152.156c97.426,-97.426 152.155,-229.563 152.155,-367.344l0,-358.966l358.971,-0c137.776,-0 269.914,-54.735 367.34,-152.156c97.426,-97.426 152.161,-229.563 152.161,-367.345l-0,-358.965Z" style="fill:#fd3264;fill-rule:nonzero;"/><path d="M616.859,1121.53l878.466,-0l0,878.466l-610.023,-0c-70.958,-0 -139.008,-28.187 -189.186,-78.365c-50.178,-50.178 -78.365,-118.228 -78.365,-189.186l-0.892,-610.915Z" style="fill:#fd3264;fill-rule:nonzero;"/></svg>