<?xml version="1.0" encoding="UTF-8" standalone="no"?><!DOCTYPE svg PUBLIC "-//W3C//DTD SVG 1.1//EN" "http://www.w3.org/Graphics/SVG/1.1/DTD/svg11.dtd"><svg width="100%" height="100%" viewBox="0 0 4000 4000" version="1.1" xmlns="http://www.w3.org/2000/svg" xmlns:xlink="http://www.w3.org/1999/xlink" xml:space="preserve" xmlns:serif="http://www.serif.com/" style="fill-rule:evenodd;clip-rule:evenodd;stroke-linejoin:round;stroke-miterlimit:2;"><path d="M4000,923.844c-0,-509.884 -413.96,-923.844 -923.844,-923.844l-2152.31,0c-509.884,0 -923.844,413.96 -923.844,923.844l0,2152.31c0,509.884 413.96,923.844 923.844,923.844l2152.31,-0c509.884,-0 923.844,-413.96 923.844,-923.844l-0,-2152.31Z" style="fill:#232126;"/><path d="M1476.86,3127.09c1048.46,0 1620.35,-866.496 1620.35,-1620.35l0,-73.652c111.135,-81.494 207.789,-181.083 285.937,-294.607c-102.809,47.335 -212.492,78.043 -324.941,90.981c119.392,-71.407 208.715,-183.828 251.289,-316.27c-111.717,65.081 -233.101,111.883 -359.589,138.639c-216.102,-228.044 -575.498,-239.638 -805.846,-25.995c-148.19,137.832 -211.04,344.572 -164.635,541.559c-457.164,-22.603 -883.199,-238.377 -1171.93,-593.548c-151.769,259.762 -73.727,592.868 177.631,758.178c-90.717,-3.541 -179.511,-27.22 -259.947,-69.315l-0,8.664c-0.072,270.598 189.931,504.031 454.908,558.886c-83.431,22.338 -170.864,25.298 -255.616,8.672c74.799,232.022 289.133,390.599 532.894,394.251c-200.966,158.812 -450.056,244.387 -706.192,242.616c-43.325,0 -90.983,-4.329 -134.307,-8.658c255.097,170.555 555.304,261.068 862.162,259.947" style="fill:#00a2f5;fill-rule:nonzero;"/></svg>