<?xml version="1.0" encoding="UTF-8" standalone="no"?><!DOCTYPE svg PUBLIC "-//W3C//DTD SVG 1.1//EN" "http://www.w3.org/Graphics/SVG/1.1/DTD/svg11.dtd"><svg width="100%" height="100%" viewBox="0 0 4000 4000" version="1.1" xmlns="http://www.w3.org/2000/svg" xmlns:xlink="http://www.w3.org/1999/xlink" xml:space="preserve" xmlns:serif="http://www.serif.com/" style="fill-rule:evenodd;clip-rule:evenodd;stroke-linejoin:round;stroke-miterlimit:2;"><path d="M4000,923.844c-0,-509.884 -413.96,-923.844 -923.844,-923.844l-2152.31,0c-509.884,0 -923.844,413.96 -923.844,923.844l0,2152.31c0,509.884 413.96,923.844 923.844,923.844l2152.31,-0c509.884,-0 923.844,-413.96 923.844,-923.844l-0,-2152.31Z" style="fill:#232126;"/><path d="M1788.77,2211.23c61.42,58.423 61.42,154.298 0,212.722c-58.423,58.424 -154.298,58.424 -212.722,-0c-290.207,-290.643 -290.207,-768.477 0,-1059.12l530.308,-530.308c290.643,-290.208 768.477,-290.208 1059.12,-0c290.208,290.643 290.208,768.477 0,1059.12l-223.208,223.208c1.498,-122.839 -17.977,-245.679 -59.922,-362.526l70.408,-71.907c84.793,-83.877 132.558,-198.316 132.558,-317.586c0,-119.27 -47.765,-233.708 -132.558,-317.586c-83.878,-84.792 -198.316,-132.558 -317.586,-132.558c-119.27,-0 -233.708,47.766 -317.586,132.558l-528.81,528.811c-84.793,83.878 -132.559,198.316 -132.559,317.586c0,119.269 47.766,233.708 132.559,317.586l-0.004,-0Zm422.45,-635.172c58.423,-58.424 154.298,-58.424 212.722,0c290.207,290.643 290.207,768.477 -0,1059.12l-530.308,530.308c-290.643,290.208 -768.477,290.208 -1059.12,0c-290.208,-290.643 -290.208,-768.477 -0,-1059.12l223.208,-223.208c-1.498,122.839 17.977,245.679 59.922,364.024l-70.408,70.409c-84.793,83.877 -132.558,198.316 -132.558,317.586c-0,119.27 47.765,233.708 132.558,317.586c83.878,84.792 198.316,132.558 317.586,132.558c119.27,0 233.708,-47.766 317.586,-132.558l528.81,-528.811c84.793,-83.878 132.559,-198.316 132.559,-317.586c-0,-119.269 -47.766,-233.708 -132.559,-317.586c-29.395,-27.544 -46.094,-66.078 -46.094,-106.361c0,-40.283 16.699,-78.816 46.094,-106.361l0.004,0Z" style="fill:#b9bbbe;"/></svg>