<?xml version="1.0" encoding="UTF-8" standalone="no"?><!DOCTYPE svg PUBLIC "-//W3C//DTD SVG 1.1//EN" "http://www.w3.org/Graphics/SVG/1.1/DTD/svg11.dtd"><svg width="100%" height="100%" viewBox="0 0 4000 4000" version="1.1" xmlns="http://www.w3.org/2000/svg" xmlns:xlink="http://www.w3.org/1999/xlink" xml:space="preserve" xmlns:serif="http://www.serif.com/" style="fill-rule:evenodd;clip-rule:evenodd;stroke-linejoin:round;stroke-miterlimit:2;"><path d="M4000,923.844c-0,-509.884 -413.96,-923.844 -923.844,-923.844l-2152.31,0c-509.884,0 -923.844,413.96 -923.844,923.844l0,2152.31c0,509.884 413.96,923.844 923.844,923.844l2152.31,-0c509.884,-0 923.844,-413.96 923.844,-923.844l-0,-2152.31Z" style="fill:#232126;"/><path d="M3317.58,1467.35c-40.803,-25.311 -91.841,-27.386 -134.58,-6.086l-353.116,176.627l0,-329.464c0,-152.56 -124.068,-276.628 -276.628,-276.628l-1659.77,-0c-152.561,-0 -276.629,124.068 -276.629,276.628l0,1383.14c0,152.699 124.068,276.628 276.629,276.628l1659.77,0c152.56,0 276.628,-123.929 276.628,-276.628l0,-329.464l353.116,176.488c19.502,9.821 40.665,14.662 61.827,14.662c25.311,-0 50.484,-7.054 72.753,-20.609c40.664,-25.312 65.561,-69.71 65.561,-117.705l-0,-829.886c-0,-47.995 -24.897,-92.393 -65.561,-117.705Z" style="fill:#b9bbbe;fill-rule:nonzero;"/></svg>