<?xml version="1.0" encoding="UTF-8" standalone="no"?><!DOCTYPE svg PUBLIC "-//W3C//DTD SVG 1.1//EN" "http://www.w3.org/Graphics/SVG/1.1/DTD/svg11.dtd"><svg width="100%" height="100%" viewBox="0 0 4000 4000" version="1.1" xmlns="http://www.w3.org/2000/svg" xmlns:xlink="http://www.w3.org/1999/xlink" xml:space="preserve" xmlns:serif="http://www.serif.com/" style="fill-rule:evenodd;clip-rule:evenodd;stroke-linejoin:round;stroke-miterlimit:2;"><path d="M4000,923.844c-0,-509.884 -413.96,-923.844 -923.844,-923.844l-2152.31,0c-509.884,0 -923.844,413.96 -923.844,923.844l0,2152.31c0,509.884 413.96,923.844 923.844,923.844l2152.31,-0c509.884,-0 923.844,-413.96 923.844,-923.844l-0,-2152.31Z" style="fill:#232126;"/><path d="M1874.26,1861.69l0,-260.372c-146.511,-51.783 -251.48,-191.511 -251.48,-355.755c-0,-208.333 168.881,-377.22 377.22,-377.22c208.339,-0 377.221,168.887 377.221,377.22l251.48,0c-0,-347.221 -281.482,-628.7 -628.701,-628.7c-347.221,-0 -628.7,281.479 -628.7,628.7c-0,225.703 118.933,423.626 297.547,534.521l-386.205,725.596c-12.101,-1.786 -24.483,-2.716 -37.082,-2.716c-138.889,0 -251.48,112.588 -251.48,251.48c-0,138.893 112.591,251.48 251.48,251.48c103.122,0 191.747,-62.065 230.554,-150.887l1047.77,-0c38.803,88.822 127.438,150.887 230.557,150.887c138.893,0 251.48,-112.587 251.48,-251.48c0,-138.892 -112.587,-251.48 -251.48,-251.48c-103.119,0 -191.754,62.065 -230.557,150.889l-1047.77,-0c-0.647,-1.485 -1.309,-2.956 -1.984,-4.426l400.129,-787.741l0.001,0.004Z" style="fill:#b9bbbe;fill-rule:nonzero;"/><path d="M2000,1497.04c-138.892,0 -251.48,-112.591 -251.48,-251.48c-0,-138.888 112.588,-251.48 251.48,-251.48c138.892,0 251.48,112.592 251.48,251.48c-0,54.734 -17.491,105.383 -47.178,146.667l550.138,733.515c347.219,-0 628.701,281.481 628.701,628.7c-0,347.219 -281.482,628.701 -628.701,628.701c-257.805,-0 -479.372,-155.176 -576.392,-377.221l295.225,-0c69.069,77.179 169.448,125.741 281.167,125.741c208.326,-0 377.221,-168.882 377.221,-377.221c-0,-208.338 -168.895,-377.22 -377.221,-377.22l-125.74,0l-628.7,-880.182l-0,0Z" style="fill:#b9bbbe;fill-rule:nonzero;"/><path d="M1821.96,3005.93c-97.02,222.044 -318.585,377.22 -576.392,377.22c-347.221,0 -628.701,-281.481 -628.701,-628.7c0,-347.219 281.48,-628.701 628.701,-628.701l-0,251.481c-208.333,-0 -377.221,168.881 -377.221,377.22c0,208.339 168.888,377.22 377.221,377.22c111.719,0 212.097,-48.561 281.168,-125.74l295.224,-0Z" style="fill:#b9bbbe;fill-rule:nonzero;"/></svg>