<?xml version="1.0" encoding="UTF-8" standalone="no"?><!DOCTYPE svg PUBLIC "-//W3C//DTD SVG 1.1//EN" "http://www.w3.org/Graphics/SVG/1.1/DTD/svg11.dtd"><svg width="100%" height="100%" viewBox="0 0 4000 4000" version="1.1" xmlns="http://www.w3.org/2000/svg" xmlns:xlink="http://www.w3.org/1999/xlink" xml:space="preserve" xmlns:serif="http://www.serif.com/" style="fill-rule:evenodd;clip-rule:evenodd;stroke-linejoin:round;stroke-miterlimit:2;"><path d="M4000,923.844c-0,-509.884 -413.96,-923.844 -923.844,-923.844l-2152.31,0c-509.884,0 -923.844,413.96 -923.844,923.844l0,2152.31c0,509.884 413.96,923.844 923.844,923.844l2152.31,-0c509.884,-0 923.844,-413.96 923.844,-923.844l-0,-2152.31Z" style="fill:#232126;"/><path d="M3362.93,1329.85c-31.812,-119.799 -125.534,-214.135 -244.553,-246.152c-215.728,-58.186 -1080.77,-58.186 -1080.77,-58.186c-0,0 -865.044,0 -1080.77,58.186c-119.014,32.017 -212.753,126.353 -244.566,246.152c-57.808,217.121 -57.808,670.154 -57.808,670.154c0,-0 0,453.006 57.808,670.159c31.813,119.78 125.552,214.11 244.566,246.144c215.723,58.175 1080.77,58.175 1080.77,58.175c-0,-0 865.044,-0 1080.77,-58.175c119.019,-32.034 212.741,-126.364 244.553,-246.144c57.816,-217.153 57.816,-670.159 57.816,-670.159c-0,-0 -0,-453.033 -57.816,-670.154Z" style="fill:#fc2026;"/><path d="M1747.82,2391.45l722.999,-411.305l-722.999,-411.319l-0,822.624Z" style="fill:#fffffe;"/></svg>